{"glyphs":{"0":{"ha":884,"x_min":63,"x_max":821,"o":"m 442 -13 q 162 95 260 -13 q 63 400 63 202 l 63 605 q 162 914 63 804 q 443 1023 261 1023 q 722 914 624 1023 q 821 605 821 804 l 821 400 q 722 95 821 202 q 442 -13 624 -13 m 442 164 q 559 222 525 164 q 593 426 593 280 l 593 580 q 559 787 593 727 q 442 846 525 846 q 324 787 359 846 q 290 580 290 727 l 290 426 q 324 222 290 280 q 442 164 359 164 m 442 394 q 376 408 402 394 q 351 461 351 422 l 351 548 q 376 600 351 586 q 442 615 402 615 q 507 600 482 615 q 532 548 532 586 l 532 461 q 506 408 532 422 q 442 394 481 394 z "},"1":{"ha":884,"x_min":76,"x_max":821,"o":"m 101 0 l 101 189 l 354 189 l 354 783 l 317 783 q 232 649 297 699 q 88 593 168 598 l 76 780 q 252 854 174 790 q 357 1010 330 917 l 606 1010 l 606 189 l 821 189 l 821 0 l 101 0 z "},"2":{"ha":884,"x_min":63,"x_max":821,"o":"m 63 0 l 63 208 q 114 396 63 331 q 302 520 164 462 l 423 571 q 523 620 491 598 q 556 705 556 641 l 556 725 q 527 819 556 793 q 442 846 497 846 q 360 816 385 846 q 328 693 335 787 l 76 706 q 171 948 86 874 q 441 1023 256 1023 q 721 945 634 1023 q 808 723 808 867 l 808 673 q 741 501 808 558 q 574 403 673 443 l 452 352 q 336 291 357 313 q 316 211 316 269 l 316 189 l 821 189 l 821 0 l 63 0 z "},"3":{"ha":884,"x_min":51,"x_max":821,"o":"m 446 -13 q 153 64 247 -13 q 51 293 59 140 l 303 306 q 343 195 312 216 q 452 174 374 174 q 541 201 514 174 q 568 283 568 227 l 568 317 q 536 407 568 380 q 442 434 504 434 l 303 434 l 303 620 l 442 620 q 521 637 499 620 q 543 702 543 654 l 543 742 q 518 814 543 792 q 438 836 492 836 q 361 813 386 836 q 328 730 336 789 l 76 742 q 167 958 85 893 q 429 1023 249 1023 q 709 963 622 1023 q 795 769 795 903 l 795 746 q 741 610 795 659 q 610 551 687 561 l 610 514 q 755 452 689 508 q 821 298 821 396 l 821 277 q 721 50 821 112 q 446 -13 621 -13 z "},"4":{"ha":884,"x_min":51,"x_max":884,"o":"m 265 423 l 480 423 l 480 755 l 265 423 m 884 246 l 732 246 l 732 0 l 480 0 l 480 246 l 51 246 l 51 423 l 423 1010 l 732 1010 l 732 423 l 884 423 l 884 246 z "},"5":{"ha":884,"x_min":51,"x_max":821,"o":"m 441 -13 q 149 61 239 -13 q 51 317 59 134 l 303 330 q 344 196 314 227 q 442 164 374 164 q 544 198 520 164 q 568 311 568 232 l 568 346 q 539 448 568 415 q 408 480 509 480 l 88 480 l 88 1010 l 783 1010 l 783 833 l 341 833 l 341 668 l 499 668 q 739 599 658 668 q 821 390 821 530 l 821 273 q 732 69 821 152 q 441 -13 643 -13 z "},"6":{"ha":884,"x_min":63,"x_max":821,"o":"m 442 -13 q 157 76 251 -13 q 63 348 63 165 l 63 653 q 157 932 63 841 q 444 1023 251 1023 q 695 961 611 1023 q 809 753 779 899 l 545 723 q 506 823 529 801 q 423 846 482 846 q 340 802 365 846 q 316 652 316 758 l 316 547 l 328 547 q 410 607 360 582 q 551 631 460 631 q 750 557 679 631 q 821 331 821 482 l 821 303 q 727 66 821 144 q 442 -13 633 -13 m 441 164 q 539 204 513 164 q 566 306 566 244 l 566 322 q 539 436 566 394 q 441 479 513 479 q 342 436 369 479 q 316 322 316 394 l 316 306 q 342 199 316 234 q 441 164 369 164 z "},"7":{"ha":884,"x_min":63,"x_max":821,"o":"m 253 0 q 372 451 311 283 q 568 821 433 619 l 63 821 l 63 1010 l 821 1010 l 821 821 q 628 420 689 600 q 530 0 566 240 l 253 0 z "},"8":{"ha":884,"x_min":63,"x_max":821,"o":"m 442 -13 q 157 55 251 -13 q 63 261 63 122 l 63 289 q 119 444 63 384 q 274 514 176 505 l 274 551 q 141 608 194 558 q 88 740 88 658 l 88 780 q 176 963 88 903 q 442 1023 264 1023 q 708 963 620 1023 q 795 780 795 903 l 795 740 q 742 608 795 658 q 610 551 689 558 l 610 514 q 765 444 708 505 q 821 289 821 383 l 821 261 q 727 55 821 122 q 442 -13 633 -13 m 442 619 q 517 640 491 619 q 543 715 543 660 l 543 742 q 517 816 543 795 q 442 836 491 836 q 367 816 393 836 q 341 742 341 795 l 341 715 q 367 640 341 660 q 442 619 393 619 m 442 174 q 544 208 520 174 q 568 299 568 241 l 568 314 q 544 407 568 372 q 442 442 520 442 q 340 407 364 442 q 316 314 316 372 l 316 299 q 340 208 316 241 q 442 174 364 174 z "},"9":{"ha":884,"x_min":63,"x_max":821,"o":"m 443 532 q 542 574 515 532 q 568 688 568 616 l 568 705 q 542 811 568 777 q 443 846 515 846 q 345 806 371 846 q 318 705 318 766 l 318 688 q 345 574 318 616 q 443 532 371 532 m 439 -13 q 190 51 275 -13 q 74 258 105 115 l 338 287 q 378 187 355 210 q 461 164 402 164 q 545 208 521 164 q 568 359 568 253 l 568 463 l 556 463 q 474 403 524 427 q 333 379 424 379 q 133 453 202 379 q 63 679 63 528 l 63 707 q 157 944 63 866 q 442 1023 251 1023 q 727 934 633 1023 q 821 662 821 845 l 821 357 q 727 78 821 169 q 439 -13 633 -13 z "},"\u0000":{"ha":0,"x_min":0,"x_max":0,"o":""},"\r":{"ha":0,"x_min":0,"x_max":0,"o":""}," ":{"ha":884,"x_min":0,"x_max":0,"o":""}," ":{"ha":884,"x_min":0,"x_max":0,"o":""},"A":{"ha":884,"x_min":13,"x_max":872,"o":"m 540 417 l 448 828 l 345 417 l 540 417 m 635 0 l 583 227 l 297 227 l 240 0 l 13 0 l 288 1010 l 597 1010 l 872 0 l 635 0 z "},"À":{"ha":884,"x_min":13,"x_max":872,"o":"m 13 0 m 540 417 l 448 828 l 345 417 l 540 417 m 635 0 l 583 227 l 297 227 l 240 0 l 13 0 l 288 1010 l 597 1010 l 872 0 l 635 0 m 418 1136 l 134 1389 l 449 1389 l 583 1136 l 418 1136 z "},"Á":{"ha":884,"x_min":13,"x_max":872,"o":"m 13 0 m 540 417 l 448 828 l 345 417 l 540 417 m 635 0 l 583 227 l 297 227 l 240 0 l 13 0 l 288 1010 l 597 1010 l 872 0 l 635 0 m 273 1136 l 407 1389 l 722 1389 l 438 1136 l 273 1136 z "},"Â":{"ha":884,"x_min":13,"x_max":872,"o":"m 13 0 m 540 417 l 448 828 l 345 417 l 540 417 m 635 0 l 583 227 l 297 227 l 240 0 l 13 0 l 288 1010 l 597 1010 l 872 0 l 635 0 m 191 1116 l 112 1222 l 345 1423 l 537 1423 l 771 1222 l 694 1117 l 441 1250 l 191 1116 z "},"Ã":{"ha":884,"x_min":13,"x_max":872,"o":"m 13 0 m 540 417 l 448 828 l 345 417 l 540 417 m 635 0 l 583 227 l 297 227 l 240 0 l 13 0 l 288 1010 l 597 1010 l 872 0 l 635 0 m 563 1149 q 468 1168 501 1149 q 415 1208 436 1187 q 378 1249 395 1231 q 336 1268 360 1268 q 299 1249 316 1268 q 284 1173 283 1231 l 284 1162 l 124 1162 l 124 1181 q 177 1356 124 1285 q 323 1427 230 1427 q 417 1408 384 1427 q 471 1367 449 1389 q 510 1326 492 1345 q 549 1307 528 1307 q 586 1325 569 1307 q 601 1402 602 1343 l 601 1413 l 761 1413 l 761 1394 q 708 1220 761 1290 q 563 1149 655 1149 z "},"Ä":{"ha":884,"x_min":13,"x_max":872,"o":"m 13 0 m 540 417 l 448 828 l 345 417 l 540 417 m 635 0 l 583 227 l 297 227 l 240 0 l 13 0 l 288 1010 l 597 1010 l 872 0 l 635 0 m 278 1124 q 189 1145 223 1124 q 154 1220 154 1167 l 154 1239 q 189 1316 154 1293 q 278 1338 223 1338 q 367 1316 333 1338 q 402 1239 402 1293 l 402 1220 q 367 1145 402 1167 q 278 1124 332 1124 m 606 1124 q 517 1145 552 1124 q 482 1220 482 1167 l 482 1239 q 517 1316 482 1293 q 606 1338 552 1338 q 696 1316 662 1338 q 730 1239 730 1293 l 730 1220 q 695 1145 730 1167 q 606 1124 660 1124 z "},"Å":{"ha":884,"x_min":13,"x_max":872,"o":"m 13 0 m 540 417 l 448 828 l 345 417 l 540 417 m 635 0 l 583 227 l 297 227 l 240 0 l 13 0 l 288 1010 l 597 1010 l 872 0 l 635 0 m 442 1105 q 250 1153 323 1105 q 177 1301 177 1201 l 177 1341 q 250 1491 177 1442 q 442 1540 323 1540 q 634 1491 562 1540 q 707 1341 707 1442 l 707 1301 q 634 1153 707 1201 q 442 1105 561 1105 m 442 1220 q 509 1238 486 1220 q 533 1301 533 1256 l 533 1341 q 509 1405 533 1384 q 442 1426 486 1426 q 374 1405 396 1426 q 351 1341 351 1384 l 351 1301 q 374 1238 351 1256 q 442 1220 396 1220 z "},"Ā":{"ha":884,"x_min":13,"x_max":872,"o":"m 13 0 m 540 417 l 448 828 l 345 417 l 540 417 m 635 0 l 583 227 l 297 227 l 240 0 l 13 0 l 288 1010 l 597 1010 l 872 0 l 635 0 m 158 1168 l 158 1357 l 726 1357 l 726 1168 l 158 1168 z "},"Ă":{"ha":884,"x_min":13,"x_max":872,"o":"m 13 0 m 540 417 l 448 828 l 345 417 l 540 417 m 635 0 l 583 227 l 297 227 l 240 0 l 13 0 l 288 1010 l 597 1010 l 872 0 l 635 0 m 442 1128 q 189 1202 271 1128 q 105 1431 106 1277 l 307 1431 q 338 1311 308 1345 q 442 1278 369 1278 q 545 1311 515 1278 q 577 1431 576 1345 l 779 1431 q 695 1202 778 1277 q 442 1128 612 1128 z "},"Ą":{"ha":884,"x_min":13,"x_max":953,"o":"m 13 0 m 540 417 l 448 828 l 345 417 l 540 417 m 635 0 l 583 227 l 297 227 l 240 0 l 13 0 l 288 1010 l 597 1010 l 872 0 l 635 0 m 790 -283 q 623 -242 684 -283 q 562 -121 562 -202 q 626 20 562 -38 q 766 97 691 77 l 801 29 q 748 -21 758 3 q 739 -67 739 -45 q 761 -116 739 -100 q 833 -131 783 -131 q 886 -128 856 -131 q 953 -119 917 -125 l 953 -265 q 867 -278 908 -274 q 790 -283 826 -283 z "},"Ǻ":{"ha":884,"x_min":13,"x_max":872,"o":"m 13 0 m 540 417 l 448 828 l 345 417 l 540 417 m 635 0 l 583 227 l 297 227 l 240 0 l 13 0 l 288 1010 l 597 1010 l 872 0 l 635 0 m 442 1105 q 250 1153 323 1105 q 177 1301 177 1201 l 177 1341 q 250 1491 177 1442 q 442 1540 323 1540 q 634 1491 562 1540 q 707 1341 707 1442 l 707 1301 q 634 1153 707 1201 q 442 1105 561 1105 m 442 1220 q 509 1238 486 1220 q 533 1301 533 1256 l 533 1341 q 509 1405 533 1384 q 442 1426 486 1426 q 374 1405 396 1426 q 351 1341 351 1384 l 351 1301 q 374 1238 351 1256 q 442 1220 396 1220 m 361 1515 l 495 1768 l 811 1768 l 527 1515 l 361 1515 z "},"B":{"ha":884,"x_min":63,"x_max":821,"o":"m 63 0 l 63 1010 l 460 1010 q 711 952 630 1010 q 793 773 793 894 l 793 730 q 758 607 793 646 q 643 553 722 567 l 643 516 q 775 458 729 508 q 821 332 821 408 l 821 266 q 732 66 821 131 q 456 0 643 0 l 63 0 m 316 606 l 434 606 q 518 625 494 606 q 543 691 543 644 l 543 751 q 518 815 543 797 q 434 833 494 833 l 316 833 l 316 606 m 316 177 l 429 177 q 537 199 505 177 q 568 279 568 222 l 568 345 q 537 422 568 399 q 429 444 505 444 l 316 444 l 316 177 z "},"":{"ha":884,"x_min":63,"x_max":821,"o":"m 63 0 l 63 1010 l 460 1010 q 711 952 630 1010 q 793 773 793 894 l 793 730 q 758 607 793 646 q 643 553 722 567 l 643 516 q 775 458 729 508 q 821 332 821 408 l 821 266 q 732 66 821 131 q 456 0 643 0 l 63 0 m 316 606 l 434 606 q 518 625 494 606 q 543 691 543 644 l 543 751 q 518 815 543 797 q 434 833 494 833 l 316 833 l 316 606 m 316 177 l 429 177 q 537 199 505 177 q 568 279 568 222 l 568 345 q 537 422 568 399 q 429 444 505 444 l 316 444 l 316 177 z "},"C":{"ha":884,"x_min":63,"x_max":846,"o":"m 455 -13 q 161 69 259 -13 q 63 312 63 150 l 63 693 q 162 941 63 859 q 456 1023 260 1023 q 746 937 655 1023 q 846 655 837 851 l 593 643 q 559 797 586 760 q 455 833 532 833 q 348 795 380 833 q 316 667 316 756 l 316 337 q 348 214 316 251 q 455 177 380 177 q 557 213 530 177 q 593 362 585 249 l 846 350 q 746 71 837 155 q 455 -13 655 -13 z "},"Ç":{"ha":884,"x_min":63,"x_max":846,"o":"m 63 0 m 455 -13 q 161 69 259 -13 q 63 312 63 150 l 63 693 q 162 941 63 859 q 456 1023 260 1023 q 746 937 655 1023 q 846 655 837 851 l 593 643 q 559 797 586 760 q 455 833 532 833 q 348 795 380 833 q 316 667 316 756 l 316 337 q 348 214 316 251 q 455 177 380 177 q 557 213 530 177 q 593 362 585 249 l 846 350 q 746 71 837 155 q 455 -13 655 -13 m 423 0 l 448 53 q 625 8 557 43 q 693 -111 693 -27 q 609 -246 693 -206 q 420 -285 524 -285 q 222 -246 299 -285 q 139 -114 145 -206 l 351 -101 q 367 -134 354 -125 q 410 -144 380 -144 q 461 -131 444 -144 q 479 -74 479 -117 q 467 -26 479 -43 q 423 0 456 -9 z "},"Ć":{"ha":884,"x_min":63,"x_max":846,"o":"m 63 0 m 455 -13 q 161 69 259 -13 q 63 312 63 150 l 63 693 q 162 941 63 859 q 456 1023 260 1023 q 746 937 655 1023 q 846 655 837 851 l 593 643 q 559 797 586 760 q 455 833 532 833 q 348 795 380 833 q 316 667 316 756 l 316 337 q 348 214 316 251 q 455 177 380 177 q 557 213 530 177 q 593 362 585 249 l 846 350 q 746 71 837 155 q 455 -13 655 -13 m 317 1136 l 451 1389 l 766 1389 l 482 1136 l 317 1136 z "},"Ĉ":{"ha":884,"x_min":63,"x_max":846,"o":"m 63 0 m 210 1116 l 131 1222 l 364 1423 l 556 1423 l 790 1222 l 713 1117 l 460 1250 l 210 1116 m 455 -13 q 161 69 259 -13 q 63 312 63 150 l 63 693 q 162 941 63 859 q 456 1023 260 1023 q 746 937 655 1023 q 846 655 837 851 l 593 643 q 559 797 586 760 q 455 833 532 833 q 348 795 380 833 q 316 667 316 756 l 316 337 q 348 214 316 251 q 455 177 380 177 q 557 213 530 177 q 593 362 585 249 l 846 350 q 746 71 837 155 q 455 -13 655 -13 z "},"Ċ":{"ha":884,"x_min":63,"x_max":846,"o":"m 63 0 m 455 -13 q 161 69 259 -13 q 63 312 63 150 l 63 693 q 162 941 63 859 q 456 1023 260 1023 q 746 937 655 1023 q 846 655 837 851 l 593 643 q 559 797 586 760 q 455 833 532 833 q 348 795 380 833 q 316 667 316 756 l 316 337 q 348 214 316 251 q 455 177 380 177 q 557 213 530 177 q 593 362 585 249 l 846 350 q 746 71 837 155 q 455 -13 655 -13 m 461 1124 q 344 1145 389 1124 q 299 1220 299 1167 l 299 1239 q 344 1316 299 1293 q 461 1338 389 1338 q 578 1316 533 1338 q 622 1239 622 1293 l 622 1220 q 577 1145 622 1167 q 461 1124 532 1124 z "},"Č":{"ha":884,"x_min":63,"x_max":846,"o":"m 63 0 m 366 1141 l 131 1342 l 208 1447 l 462 1314 l 712 1448 l 790 1342 l 558 1141 l 366 1141 m 455 -13 q 161 69 259 -13 q 63 312 63 150 l 63 693 q 162 941 63 859 q 456 1023 260 1023 q 746 937 655 1023 q 846 655 837 851 l 593 643 q 559 797 586 760 q 455 833 532 833 q 348 795 380 833 q 316 667 316 756 l 316 337 q 348 214 316 251 q 455 177 380 177 q 557 213 530 177 q 593 362 585 249 l 846 350 q 746 71 837 155 q 455 -13 655 -13 z "},"D":{"ha":884,"x_min":63,"x_max":821,"o":"m 63 0 l 63 1010 l 443 1010 q 720 910 620 1010 q 821 643 821 809 l 821 362 q 720 98 821 197 q 442 0 620 0 l 63 0 m 316 189 l 417 189 q 535 232 503 189 q 568 388 568 275 l 568 617 q 535 777 568 732 q 417 821 503 821 l 316 821 l 316 189 z "},"Ď":{"ha":884,"x_min":63,"x_max":821,"o":"m 63 0 m 347 1141 l 112 1342 l 189 1447 l 443 1314 l 693 1448 l 771 1342 l 539 1141 l 347 1141 m 63 0 l 63 1010 l 443 1010 q 720 910 620 1010 q 821 643 821 809 l 821 362 q 720 98 821 197 q 442 0 620 0 l 63 0 m 316 189 l 417 189 q 535 232 503 189 q 568 388 568 275 l 568 617 q 535 777 568 732 q 417 821 503 821 l 316 821 l 316 189 z "},"E":{"ha":884,"x_min":63,"x_max":821,"o":"m 63 0 l 63 1010 l 821 1010 l 821 821 l 316 821 l 316 631 l 758 631 l 758 442 l 316 442 l 316 189 l 821 189 l 821 0 l 63 0 z "},"":{"ha":884,"x_min":63,"x_max":821,"o":"m 63 0 l 63 1010 l 821 1010 l 821 821 l 316 821 l 316 631 l 758 631 l 758 442 l 316 442 l 316 189 l 821 189 l 821 0 l 63 0 z "},"È":{"ha":884,"x_min":63,"x_max":821,"o":"m 63 0 m 456 1136 l 172 1389 l 487 1389 l 621 1136 l 456 1136 m 63 0 l 63 1010 l 821 1010 l 821 821 l 316 821 l 316 631 l 758 631 l 758 442 l 316 442 l 316 189 l 821 189 l 821 0 l 63 0 z "},"É":{"ha":884,"x_min":63,"x_max":821,"o":"m 63 0 m 311 1133 l 444 1385 l 760 1385 l 476 1133 l 311 1133 m 63 0 l 63 1010 l 821 1010 l 821 821 l 316 821 l 316 631 l 758 631 l 758 442 l 316 442 l 316 189 l 821 189 l 821 0 l 63 0 z "},"Ê":{"ha":884,"x_min":63,"x_max":821,"o":"m 63 0 m 203 1116 l 125 1222 l 357 1423 l 549 1423 l 784 1222 l 707 1117 l 453 1250 l 203 1116 m 63 0 l 63 1010 l 821 1010 l 821 821 l 316 821 l 316 631 l 758 631 l 758 442 l 316 442 l 316 189 l 821 189 l 821 0 l 63 0 z "},"Ë":{"ha":884,"x_min":63,"x_max":821,"o":"m 63 0 m 63 0 l 63 1010 l 821 1010 l 821 821 l 316 821 l 316 631 l 758 631 l 758 442 l 316 442 l 316 189 l 821 189 l 821 0 l 63 0 m 299 1124 q 210 1145 245 1124 q 176 1220 176 1167 l 176 1239 q 210 1316 176 1293 q 299 1338 245 1338 q 389 1316 355 1338 q 423 1239 423 1293 l 423 1220 q 388 1145 423 1167 q 299 1124 354 1124 m 628 1124 q 539 1145 573 1124 q 504 1220 504 1167 l 504 1239 q 539 1316 504 1293 q 628 1338 573 1338 q 717 1316 683 1338 q 751 1239 751 1293 l 751 1220 q 717 1145 751 1167 q 628 1124 682 1124 z "},"Ē":{"ha":884,"x_min":63,"x_max":821,"o":"m 63 0 m 63 0 l 63 1010 l 821 1010 l 821 821 l 316 821 l 316 631 l 758 631 l 758 442 l 316 442 l 316 189 l 821 189 l 821 0 l 63 0 m 170 1168 l 170 1357 l 739 1357 l 739 1168 l 170 1168 z "},"Ĕ":{"ha":884,"x_min":63,"x_max":821,"o":"m 63 0 m 63 0 l 63 1010 l 821 1010 l 821 821 l 316 821 l 316 631 l 758 631 l 758 442 l 316 442 l 316 189 l 821 189 l 821 0 l 63 0 m 455 1128 q 201 1202 284 1128 q 117 1431 119 1277 l 319 1431 q 351 1311 321 1345 q 455 1278 381 1278 q 558 1311 528 1278 q 590 1431 588 1345 l 792 1431 q 708 1202 790 1277 q 455 1128 625 1128 z "},"Ė":{"ha":884,"x_min":63,"x_max":821,"o":"m 63 0 m 455 1124 q 338 1145 383 1124 q 293 1220 293 1167 l 293 1239 q 338 1316 293 1293 q 455 1338 383 1338 q 571 1316 527 1338 q 616 1239 616 1293 l 616 1220 q 571 1145 616 1167 q 455 1124 525 1124 m 63 0 l 63 1010 l 821 1010 l 821 821 l 316 821 l 316 631 l 758 631 l 758 442 l 316 442 l 316 189 l 821 189 l 821 0 l 63 0 z "},"Ę":{"ha":884,"x_min":63,"x_max":821,"o":"m 63 0 m 655 -283 q 488 -242 549 -283 q 427 -121 427 -202 q 491 20 427 -38 q 631 97 556 77 l 665 29 q 613 -21 622 3 q 604 -67 604 -45 q 626 -116 604 -100 q 698 -131 648 -131 q 751 -128 721 -131 q 818 -119 782 -125 l 818 -265 q 732 -278 773 -274 q 655 -283 691 -283 m 63 0 l 63 1010 l 821 1010 l 821 821 l 316 821 l 316 631 l 758 631 l 758 442 l 316 442 l 316 189 l 821 189 l 821 0 l 63 0 z "},"Ě":{"ha":884,"x_min":63,"x_max":821,"o":"m 63 0 m 360 1141 l 125 1342 l 202 1447 l 456 1314 l 706 1448 l 784 1342 l 552 1141 l 360 1141 m 63 0 l 63 1010 l 821 1010 l 821 821 l 316 821 l 316 631 l 758 631 l 758 442 l 316 442 l 316 189 l 821 189 l 821 0 l 63 0 z "},"F":{"ha":884,"x_min":126,"x_max":846,"o":"m 126 0 l 126 1010 l 846 1010 l 846 821 l 379 821 l 379 568 l 758 568 l 758 379 l 379 379 l 379 0 l 126 0 z "},"G":{"ha":884,"x_min":63,"x_max":821,"o":"m 444 -13 q 162 78 260 -13 q 63 337 63 168 l 63 668 q 161 931 63 840 q 443 1023 259 1023 q 720 941 628 1023 q 821 706 812 859 l 568 693 q 535 803 562 773 q 446 833 508 833 q 344 792 372 833 q 316 643 316 751 l 316 362 q 343 217 316 256 q 442 177 370 177 q 542 215 514 177 q 568 354 569 254 l 442 354 l 442 543 l 821 543 l 821 337 q 723 78 821 168 q 444 -13 626 -13 z "},"Ĝ":{"ha":884,"x_min":63,"x_max":821,"o":"m 63 0 m 191 1116 l 112 1222 l 345 1423 l 537 1423 l 771 1222 l 694 1117 l 441 1250 l 191 1116 m 444 -13 q 162 78 260 -13 q 63 337 63 168 l 63 668 q 161 931 63 840 q 443 1023 259 1023 q 720 941 628 1023 q 821 706 812 859 l 568 693 q 535 803 562 773 q 446 833 508 833 q 344 792 372 833 q 316 643 316 751 l 316 362 q 343 217 316 256 q 442 177 370 177 q 542 215 514 177 q 568 354 569 254 l 442 354 l 442 543 l 821 543 l 821 337 q 723 78 821 168 q 444 -13 626 -13 z "},"Ğ":{"ha":884,"x_min":63,"x_max":821,"o":"m 63 0 m 442 1128 q 189 1202 271 1128 q 105 1431 106 1277 l 307 1431 q 338 1311 308 1345 q 442 1278 369 1278 q 545 1311 515 1278 q 577 1431 576 1345 l 779 1431 q 695 1202 778 1277 q 442 1128 612 1128 m 444 -13 q 162 78 260 -13 q 63 337 63 168 l 63 668 q 161 931 63 840 q 443 1023 259 1023 q 720 941 628 1023 q 821 706 812 859 l 568 693 q 535 803 562 773 q 446 833 508 833 q 344 792 372 833 q 316 643 316 751 l 316 362 q 343 217 316 256 q 442 177 370 177 q 542 215 514 177 q 568 354 569 254 l 442 354 l 442 543 l 821 543 l 821 337 q 723 78 821 168 q 444 -13 626 -13 z "},"Ġ":{"ha":884,"x_min":63,"x_max":821,"o":"m 63 0 m 455 1124 q 338 1145 383 1124 q 293 1220 293 1167 l 293 1239 q 338 1316 293 1293 q 455 1338 383 1338 q 571 1316 527 1338 q 616 1239 616 1293 l 616 1220 q 571 1145 616 1167 q 455 1124 525 1124 m 444 -13 q 162 78 260 -13 q 63 337 63 168 l 63 668 q 161 931 63 840 q 443 1023 259 1023 q 720 941 628 1023 q 821 706 812 859 l 568 693 q 535 803 562 773 q 446 833 508 833 q 344 792 372 833 q 316 643 316 751 l 316 362 q 343 217 316 256 q 442 177 370 177 q 542 215 514 177 q 568 354 569 254 l 442 354 l 442 543 l 821 543 l 821 337 q 723 78 821 168 q 444 -13 626 -13 z "},"Ģ":{"ha":884,"x_min":63,"x_max":821,"o":"m 63 0 m 235 -379 l 318 -126 l 634 -126 l 400 -379 l 235 -379 m 444 -13 q 162 78 260 -13 q 63 337 63 168 l 63 668 q 161 931 63 840 q 443 1023 259 1023 q 720 941 628 1023 q 821 706 812 859 l 568 693 q 535 803 562 773 q 446 833 508 833 q 344 792 372 833 q 316 643 316 751 l 316 362 q 343 217 316 256 q 442 177 370 177 q 542 215 514 177 q 568 354 569 254 l 442 354 l 442 543 l 821 543 l 821 337 q 723 78 821 168 q 444 -13 626 -13 z "},"H":{"ha":884,"x_min":63,"x_max":821,"o":"m 63 0 l 63 1010 l 316 1010 l 316 657 l 568 657 l 568 1010 l 821 1010 l 821 0 l 568 0 l 568 467 l 316 467 l 316 0 l 63 0 z "},"Ĥ":{"ha":884,"x_min":63,"x_max":821,"o":"m 63 0 m 63 0 l 63 1010 l 316 1010 l 316 657 l 568 657 l 568 1010 l 821 1010 l 821 0 l 568 0 l 568 467 l 316 467 l 316 0 l 63 0 m 191 1116 l 112 1222 l 345 1423 l 537 1423 l 771 1222 l 694 1117 l 441 1250 l 191 1116 z "},"I":{"ha":884,"x_min":63,"x_max":821,"o":"m 63 0 l 63 189 l 316 189 l 316 821 l 63 821 l 63 1010 l 821 1010 l 821 821 l 568 821 l 568 189 l 821 189 l 821 0 l 63 0 z "},"Ì":{"ha":884,"x_min":63,"x_max":821,"o":"m 63 0 m 63 0 l 63 189 l 316 189 l 316 821 l 63 821 l 63 1010 l 821 1010 l 821 821 l 568 821 l 568 189 l 821 189 l 821 0 l 63 0 m 418 1136 l 134 1389 l 449 1389 l 583 1136 l 418 1136 z "},"Í":{"ha":884,"x_min":63,"x_max":821,"o":"m 63 0 m 63 0 l 63 189 l 316 189 l 316 821 l 63 821 l 63 1010 l 821 1010 l 821 821 l 568 821 l 568 189 l 821 189 l 821 0 l 63 0 m 273 1136 l 407 1389 l 722 1389 l 438 1136 l 273 1136 z "},"Î":{"ha":884,"x_min":63,"x_max":821,"o":"m 63 0 m 63 0 l 63 189 l 316 189 l 316 821 l 63 821 l 63 1010 l 821 1010 l 821 821 l 568 821 l 568 189 l 821 189 l 821 0 l 63 0 m 191 1116 l 112 1222 l 345 1423 l 537 1423 l 771 1222 l 694 1117 l 441 1250 l 191 1116 z "},"Ï":{"ha":884,"x_min":63,"x_max":821,"o":"m 63 0 m 63 0 l 63 189 l 316 189 l 316 821 l 63 821 l 63 1010 l 821 1010 l 821 821 l 568 821 l 568 189 l 821 189 l 821 0 l 63 0 m 278 1124 q 189 1145 223 1124 q 154 1220 154 1167 l 154 1239 q 189 1316 154 1293 q 278 1338 223 1338 q 367 1316 333 1338 q 402 1239 402 1293 l 402 1220 q 367 1145 402 1167 q 278 1124 332 1124 m 606 1124 q 517 1145 552 1124 q 482 1220 482 1167 l 482 1239 q 517 1316 482 1293 q 606 1338 552 1338 q 696 1316 662 1338 q 730 1239 730 1293 l 730 1220 q 695 1145 730 1167 q 606 1124 660 1124 z "},"Ĩ":{"ha":884,"x_min":63,"x_max":821,"o":"m 63 0 m 63 0 l 63 189 l 316 189 l 316 821 l 63 821 l 63 1010 l 821 1010 l 821 821 l 568 821 l 568 189 l 821 189 l 821 0 l 63 0 m 563 1149 q 468 1168 501 1149 q 415 1208 436 1187 q 378 1249 395 1231 q 336 1268 360 1268 q 299 1249 316 1268 q 284 1173 283 1231 l 284 1162 l 124 1162 l 124 1181 q 177 1356 124 1285 q 323 1427 230 1427 q 417 1408 384 1427 q 471 1367 449 1389 q 510 1326 492 1345 q 549 1307 528 1307 q 586 1325 569 1307 q 601 1402 602 1343 l 601 1413 l 761 1413 l 761 1394 q 708 1220 761 1290 q 563 1149 655 1149 z "},"Ī":{"ha":884,"x_min":63,"x_max":821,"o":"m 63 0 m 63 0 l 63 189 l 316 189 l 316 821 l 63 821 l 63 1010 l 821 1010 l 821 821 l 568 821 l 568 189 l 821 189 l 821 0 l 63 0 m 158 1168 l 158 1357 l 726 1357 l 726 1168 l 158 1168 z "},"Ĭ":{"ha":884,"x_min":63,"x_max":821,"o":"m 63 0 m 63 0 l 63 189 l 316 189 l 316 821 l 63 821 l 63 1010 l 821 1010 l 821 821 l 568 821 l 568 189 l 821 189 l 821 0 l 63 0 m 442 1128 q 189 1202 271 1128 q 105 1431 106 1277 l 307 1431 q 338 1311 308 1345 q 442 1278 369 1278 q 545 1311 515 1278 q 577 1431 576 1345 l 779 1431 q 695 1202 778 1277 q 442 1128 612 1128 z "},"Į":{"ha":884,"x_min":63,"x_max":821,"o":"m 63 0 m 63 0 l 63 189 l 316 189 l 316 821 l 63 821 l 63 1010 l 821 1010 l 821 821 l 568 821 l 568 189 l 821 189 l 821 0 l 63 0 m 563 -283 q 396 -242 457 -283 q 335 -121 335 -202 q 399 20 335 -38 q 539 97 463 77 l 573 29 q 521 -21 530 3 q 511 -67 511 -45 q 533 -116 511 -100 q 606 -131 556 -131 q 659 -128 629 -131 q 726 -119 689 -125 l 726 -265 q 640 -278 681 -274 q 563 -283 598 -283 z "},"İ":{"ha":884,"x_min":63,"x_max":821,"o":"m 63 0 m 63 0 l 63 189 l 316 189 l 316 821 l 63 821 l 63 1010 l 821 1010 l 821 821 l 568 821 l 568 189 l 821 189 l 821 0 l 63 0 m 442 1124 q 325 1145 370 1124 q 280 1220 280 1167 l 280 1239 q 325 1316 280 1293 q 442 1338 370 1338 q 559 1316 514 1338 q 604 1239 604 1293 l 604 1220 q 558 1145 604 1167 q 442 1124 513 1124 z "},"J":{"ha":884,"x_min":38,"x_max":795,"o":"m 428 -13 q 138 75 230 -13 q 38 362 47 163 l 290 376 q 328 215 299 254 q 426 177 356 177 q 515 211 487 177 q 543 341 543 245 l 543 821 l 253 821 l 253 1010 l 795 1010 l 795 328 q 707 78 795 169 q 428 -13 619 -13 z "},"Ĵ":{"ha":884,"x_min":38,"x_max":847,"o":"m 38 0 m 266 1116 l 188 1222 l 420 1423 l 612 1423 l 847 1222 l 770 1117 l 516 1250 l 266 1116 m 428 -13 q 138 75 230 -13 q 38 362 47 163 l 290 376 q 328 215 299 254 q 426 177 356 177 q 515 211 487 177 q 543 341 543 245 l 543 821 l 253 821 l 253 1010 l 795 1010 l 795 328 q 707 78 795 169 q 428 -13 619 -13 z "},"K":{"ha":884,"x_min":63,"x_max":865,"o":"m 316 423 l 316 0 l 63 0 l 63 1010 l 316 1010 l 316 612 l 366 612 l 606 1010 l 865 1010 l 554 543 l 861 0 l 606 0 l 370 423 l 316 423 z "},"Ķ":{"ha":884,"x_min":63,"x_max":865,"o":"m 63 0 m 316 423 l 316 0 l 63 0 l 63 1010 l 316 1010 l 316 612 l 366 612 l 606 1010 l 865 1010 l 554 543 l 861 0 l 606 0 l 370 423 l 316 423 m 264 -379 l 347 -126 l 663 -126 l 429 -379 l 264 -379 z "},"L":{"ha":884,"x_min":126,"x_max":821,"o":"m 126 0 l 126 1010 l 379 1010 l 379 189 l 821 189 l 821 0 l 126 0 z "},"Ĺ":{"ha":884,"x_min":126,"x_max":821,"o":"m 126 0 m 128 1136 l 261 1389 l 577 1389 l 293 1136 l 128 1136 m 126 0 l 126 1010 l 379 1010 l 379 189 l 821 189 l 821 0 l 126 0 z "},"Ļ":{"ha":884,"x_min":126,"x_max":821,"o":"m 126 0 m 126 0 l 126 1010 l 379 1010 l 379 189 l 821 189 l 821 0 l 126 0 m 292 -379 l 375 -126 l 691 -126 l 457 -379 l 292 -379 z "},"Ľ":{"ha":884,"x_min":126,"x_max":876,"o":"m 126 0 m 500 638 l 564 1010 l 876 1010 l 641 638 l 500 638 m 126 0 l 126 1010 l 379 1010 l 379 189 l 821 189 l 821 0 l 126 0 z "},"M":{"ha":884,"x_min":51,"x_max":833,"o":"m 364 316 l 244 644 l 271 0 l 51 0 l 51 1010 l 284 1010 l 446 542 l 606 1010 l 833 1010 l 833 0 l 612 0 l 639 636 l 523 316 l 364 316 z "},"N":{"ha":884,"x_min":63,"x_max":821,"o":"m 527 0 l 278 662 l 278 0 l 63 0 l 63 1010 l 337 1010 l 606 293 l 606 1010 l 821 1010 l 821 0 l 527 0 z "},"Ñ":{"ha":884,"x_min":63,"x_max":821,"o":"m 63 0 m 563 1149 q 468 1168 501 1149 q 415 1208 436 1187 q 378 1249 395 1231 q 336 1268 360 1268 q 299 1249 316 1268 q 284 1173 283 1231 l 284 1162 l 124 1162 l 124 1181 q 177 1356 124 1285 q 323 1427 230 1427 q 417 1408 384 1427 q 471 1367 449 1389 q 510 1326 492 1345 q 549 1307 528 1307 q 586 1325 569 1307 q 601 1402 602 1343 l 601 1413 l 761 1413 l 761 1394 q 708 1220 761 1290 q 563 1149 655 1149 m 527 0 l 278 662 l 278 0 l 63 0 l 63 1010 l 337 1010 l 606 293 l 606 1010 l 821 1010 l 821 0 l 527 0 z "},"Ń":{"ha":884,"x_min":63,"x_max":821,"o":"m 63 0 m 311 1136 l 444 1389 l 760 1389 l 476 1136 l 311 1136 m 527 0 l 278 662 l 278 0 l 63 0 l 63 1010 l 337 1010 l 606 293 l 606 1010 l 821 1010 l 821 0 l 527 0 z "},"Ņ":{"ha":884,"x_min":63,"x_max":821,"o":"m 63 0 m 235 -379 l 318 -126 l 634 -126 l 400 -379 l 235 -379 m 527 0 l 278 662 l 278 0 l 63 0 l 63 1010 l 337 1010 l 606 293 l 606 1010 l 821 1010 l 821 0 l 527 0 z "},"Ň":{"ha":884,"x_min":63,"x_max":821,"o":"m 63 0 m 347 1141 l 112 1342 l 189 1447 l 443 1314 l 693 1448 l 771 1342 l 539 1141 l 347 1141 m 527 0 l 278 662 l 278 0 l 63 0 l 63 1010 l 337 1010 l 606 293 l 606 1010 l 821 1010 l 821 0 l 527 0 z "},"O":{"ha":884,"x_min":63,"x_max":821,"o":"m 442 -13 q 160 73 256 -13 q 63 312 63 159 l 63 693 q 160 935 63 847 q 443 1023 258 1023 q 725 935 629 1023 q 821 693 821 847 l 821 312 q 724 73 821 159 q 442 -13 628 -13 m 442 177 q 539 213 510 177 q 568 337 568 250 l 568 668 q 539 794 568 755 q 442 833 510 833 q 345 794 374 833 q 316 668 316 755 l 316 337 q 345 213 316 250 q 442 177 374 177 z "},"Ò":{"ha":884,"x_min":63,"x_max":821,"o":"m 63 0 m 418 1136 l 134 1389 l 449 1389 l 583 1136 l 418 1136 m 442 -13 q 160 73 256 -13 q 63 312 63 159 l 63 693 q 160 935 63 847 q 443 1023 258 1023 q 725 935 629 1023 q 821 693 821 847 l 821 312 q 724 73 821 159 q 442 -13 628 -13 m 442 177 q 539 213 510 177 q 568 337 568 250 l 568 668 q 539 794 568 755 q 442 833 510 833 q 345 794 374 833 q 316 668 316 755 l 316 337 q 345 213 316 250 q 442 177 374 177 z "},"Ó":{"ha":884,"x_min":63,"x_max":821,"o":"m 63 0 m 311 1136 l 444 1389 l 760 1389 l 476 1136 l 311 1136 m 442 -13 q 160 73 256 -13 q 63 312 63 159 l 63 693 q 160 935 63 847 q 443 1023 258 1023 q 725 935 629 1023 q 821 693 821 847 l 821 312 q 724 73 821 159 q 442 -13 628 -13 m 442 177 q 539 213 510 177 q 568 337 568 250 l 568 668 q 539 794 568 755 q 442 833 510 833 q 345 794 374 833 q 316 668 316 755 l 316 337 q 345 213 316 250 q 442 177 374 177 z "},"Ô":{"ha":884,"x_min":63,"x_max":821,"o":"m 63 0 m 191 1116 l 112 1222 l 345 1423 l 537 1423 l 771 1222 l 694 1117 l 441 1250 l 191 1116 m 442 -13 q 160 73 256 -13 q 63 312 63 159 l 63 693 q 160 935 63 847 q 443 1023 258 1023 q 725 935 629 1023 q 821 693 821 847 l 821 312 q 724 73 821 159 q 442 -13 628 -13 m 442 177 q 539 213 510 177 q 568 337 568 250 l 568 668 q 539 794 568 755 q 442 833 510 833 q 345 794 374 833 q 316 668 316 755 l 316 337 q 345 213 316 250 q 442 177 374 177 z "},"Õ":{"ha":884,"x_min":63,"x_max":821,"o":"m 63 0 m 563 1149 q 468 1168 501 1149 q 415 1208 436 1187 q 378 1249 395 1231 q 336 1268 360 1268 q 299 1249 316 1268 q 284 1173 283 1231 l 284 1162 l 124 1162 l 124 1181 q 177 1356 124 1285 q 323 1427 230 1427 q 417 1408 384 1427 q 471 1367 449 1389 q 510 1326 492 1345 q 549 1307 528 1307 q 586 1325 569 1307 q 601 1402 602 1343 l 601 1413 l 761 1413 l 761 1394 q 708 1220 761 1290 q 563 1149 655 1149 m 442 -13 q 160 73 256 -13 q 63 312 63 159 l 63 693 q 160 935 63 847 q 443 1023 258 1023 q 725 935 629 1023 q 821 693 821 847 l 821 312 q 724 73 821 159 q 442 -13 628 -13 m 442 177 q 539 213 510 177 q 568 337 568 250 l 568 668 q 539 794 568 755 q 442 833 510 833 q 345 794 374 833 q 316 668 316 755 l 316 337 q 345 213 316 250 q 442 177 374 177 z "},"Ö":{"ha":884,"x_min":63,"x_max":821,"o":"m 63 0 m 278 1124 q 189 1145 223 1124 q 154 1220 154 1167 l 154 1239 q 189 1316 154 1293 q 278 1338 223 1338 q 367 1316 333 1338 q 402 1239 402 1293 l 402 1220 q 367 1145 402 1167 q 278 1124 332 1124 m 606 1124 q 517 1145 552 1124 q 482 1220 482 1167 l 482 1239 q 517 1316 482 1293 q 606 1338 552 1338 q 696 1316 662 1338 q 730 1239 730 1293 l 730 1220 q 695 1145 730 1167 q 606 1124 660 1124 m 442 -13 q 160 73 256 -13 q 63 312 63 159 l 63 693 q 160 935 63 847 q 443 1023 258 1023 q 725 935 629 1023 q 821 693 821 847 l 821 312 q 724 73 821 159 q 442 -13 628 -13 m 442 177 q 539 213 510 177 q 568 337 568 250 l 568 668 q 539 794 568 755 q 442 833 510 833 q 345 794 374 833 q 316 668 316 755 l 316 337 q 345 213 316 250 q 442 177 374 177 z "},"Ō":{"ha":884,"x_min":63,"x_max":821,"o":"m 63 0 m 158 1168 l 158 1357 l 726 1357 l 726 1168 l 158 1168 m 442 -13 q 160 73 256 -13 q 63 312 63 159 l 63 693 q 160 935 63 847 q 443 1023 258 1023 q 725 935 629 1023 q 821 693 821 847 l 821 312 q 724 73 821 159 q 442 -13 628 -13 m 442 177 q 539 213 510 177 q 568 337 568 250 l 568 668 q 539 794 568 755 q 442 833 510 833 q 345 794 374 833 q 316 668 316 755 l 316 337 q 345 213 316 250 q 442 177 374 177 z "},"Ŏ":{"ha":884,"x_min":63,"x_max":821,"o":"m 63 0 m 442 1128 q 189 1202 271 1128 q 105 1431 106 1277 l 307 1431 q 338 1311 308 1345 q 442 1278 369 1278 q 545 1311 515 1278 q 577 1431 576 1345 l 779 1431 q 695 1202 778 1277 q 442 1128 612 1128 m 442 -13 q 160 73 256 -13 q 63 312 63 159 l 63 693 q 160 935 63 847 q 443 1023 258 1023 q 725 935 629 1023 q 821 693 821 847 l 821 312 q 724 73 821 159 q 442 -13 628 -13 m 442 177 q 539 213 510 177 q 568 337 568 250 l 568 668 q 539 794 568 755 q 442 833 510 833 q 345 794 374 833 q 316 668 316 755 l 316 337 q 345 213 316 250 q 442 177 374 177 z "},"Ő":{"ha":884,"x_min":63,"x_max":821,"o":"m 63 0 m 513 1136 l 571 1389 l 811 1389 l 640 1136 l 513 1136 m 222 1136 l 280 1389 l 520 1389 l 350 1136 l 222 1136 m 442 -13 q 160 73 256 -13 q 63 312 63 159 l 63 693 q 160 935 63 847 q 443 1023 258 1023 q 725 935 629 1023 q 821 693 821 847 l 821 312 q 724 73 821 159 q 442 -13 628 -13 m 442 177 q 539 213 510 177 q 568 337 568 250 l 568 668 q 539 794 568 755 q 442 833 510 833 q 345 794 374 833 q 316 668 316 755 l 316 337 q 345 213 316 250 q 442 177 374 177 z "},"P":{"ha":884,"x_min":63,"x_max":821,"o":"m 63 0 l 63 1010 l 457 1010 q 723 941 625 1010 q 821 721 821 871 l 821 581 q 724 371 821 437 q 458 306 628 306 l 316 306 l 316 0 l 63 0 m 316 492 l 442 492 q 537 514 505 492 q 568 602 568 535 l 568 705 q 537 797 568 773 q 442 821 505 821 l 316 821 l 316 492 z "},"Q":{"ha":884,"x_min":63,"x_max":821,"o":"m 770 -266 q 427 -230 532 -301 q 327 35 323 -159 q 130 141 197 59 q 63 350 63 222 l 63 693 q 160 935 63 847 q 443 1023 258 1023 q 725 935 629 1023 q 821 693 821 847 l 821 350 q 744 129 821 213 q 518 29 667 45 q 573 -64 521 -43 q 745 -64 624 -86 l 770 -266 m 442 202 q 539 244 510 202 q 568 375 568 287 l 568 668 q 539 795 568 756 q 442 833 510 833 q 345 795 374 833 q 316 668 316 756 l 316 375 q 345 244 316 287 q 442 202 374 202 z "},"R":{"ha":884,"x_min":63,"x_max":845,"o":"m 316 543 l 442 543 q 540 565 513 543 q 568 648 568 587 l 568 716 q 540 797 568 774 q 442 821 513 821 l 316 821 l 316 543 m 316 0 l 63 0 l 63 1010 l 481 1010 q 729 938 650 1010 q 808 731 808 866 l 808 640 q 765 470 808 537 q 635 375 721 403 l 845 0 l 581 0 l 385 354 l 316 354 l 316 0 z "},"Ŕ":{"ha":884,"x_min":63,"x_max":845,"o":"m 63 0 m 304 1136 l 438 1389 l 754 1389 l 470 1136 l 304 1136 m 316 543 l 442 543 q 540 565 513 543 q 568 648 568 587 l 568 716 q 540 797 568 774 q 442 821 513 821 l 316 821 l 316 543 m 316 0 l 63 0 l 63 1010 l 481 1010 q 729 938 650 1010 q 808 731 808 866 l 808 640 q 765 470 808 537 q 635 375 721 403 l 845 0 l 581 0 l 385 354 l 316 354 l 316 0 z "},"Ŗ":{"ha":884,"x_min":63,"x_max":845,"o":"m 63 0 m 316 543 l 442 543 q 540 565 513 543 q 568 648 568 587 l 568 716 q 540 797 568 774 q 442 821 513 821 l 316 821 l 316 543 m 316 0 l 63 0 l 63 1010 l 481 1010 q 729 938 650 1010 q 808 731 808 866 l 808 640 q 765 470 808 537 q 635 375 721 403 l 845 0 l 581 0 l 385 354 l 316 354 l 316 0 m 203 -379 l 287 -126 l 602 -126 l 369 -379 l 203 -379 z "},"Ř":{"ha":884,"x_min":63,"x_max":845,"o":"m 63 0 m 328 1141 l 93 1342 l 170 1447 l 424 1314 l 674 1448 l 753 1342 l 520 1141 l 328 1141 m 316 543 l 442 543 q 540 565 513 543 q 568 648 568 587 l 568 716 q 540 797 568 774 q 442 821 513 821 l 316 821 l 316 543 m 316 0 l 63 0 l 63 1010 l 481 1010 q 729 938 650 1010 q 808 731 808 866 l 808 640 q 765 470 808 537 q 635 375 721 403 l 845 0 l 581 0 l 385 354 l 316 354 l 316 0 z "},"S":{"ha":884,"x_min":51,"x_max":827,"o":"m 431 -13 q 216 17 308 -13 q 51 90 124 47 l 107 278 q 259 205 183 234 q 434 177 336 177 q 542 205 509 177 q 574 279 574 232 q 533 359 574 337 q 389 403 491 380 q 146 510 216 442 q 76 707 76 578 q 167 931 76 840 q 446 1023 258 1023 q 629 991 537 1023 q 777 927 722 958 l 732 747 q 589 808 657 785 q 447 831 521 831 q 356 807 385 831 q 327 736 327 783 q 362 662 327 689 q 514 610 398 634 q 757 503 687 573 q 827 294 827 432 q 722 68 827 148 q 431 -13 617 -13 z "},"":{"ha":884,"x_min":51,"x_max":827,"o":"m 431 -13 q 216 17 308 -13 q 51 90 124 47 l 107 278 q 259 205 183 234 q 434 177 336 177 q 542 205 509 177 q 574 279 574 232 q 533 359 574 337 q 389 403 491 380 q 146 510 216 442 q 76 707 76 578 q 167 931 76 840 q 446 1023 258 1023 q 629 991 537 1023 q 777 927 722 958 l 732 747 q 589 808 657 785 q 447 831 521 831 q 356 807 385 831 q 327 736 327 783 q 362 662 327 689 q 514 610 398 634 q 757 503 687 573 q 827 294 827 432 q 722 68 827 148 q 431 -13 617 -13 z "},"Ś":{"ha":884,"x_min":51,"x_max":827,"o":"m 51 0 m 431 -13 q 216 17 308 -13 q 51 90 124 47 l 107 278 q 259 205 183 234 q 434 177 336 177 q 542 205 509 177 q 574 279 574 232 q 533 359 574 337 q 389 403 491 380 q 146 510 216 442 q 76 707 76 578 q 167 931 76 840 q 446 1023 258 1023 q 629 991 537 1023 q 777 927 722 958 l 732 747 q 589 808 657 785 q 447 831 521 831 q 356 807 385 831 q 327 736 327 783 q 362 662 327 689 q 514 610 398 634 q 757 503 687 573 q 827 294 827 432 q 722 68 827 148 q 431 -13 617 -13 m 270 1136 l 404 1389 l 720 1389 l 436 1136 l 270 1136 z "},"Ŝ":{"ha":884,"x_min":51,"x_max":827,"o":"m 51 0 m 188 1116 l 110 1222 l 342 1423 l 534 1423 l 769 1222 l 692 1117 l 438 1250 l 188 1116 m 431 -13 q 216 17 308 -13 q 51 90 124 47 l 107 278 q 259 205 183 234 q 434 177 336 177 q 542 205 509 177 q 574 279 574 232 q 533 359 574 337 q 389 403 491 380 q 146 510 216 442 q 76 707 76 578 q 167 931 76 840 q 446 1023 258 1023 q 629 991 537 1023 q 777 927 722 958 l 732 747 q 589 808 657 785 q 447 831 521 831 q 356 807 385 831 q 327 736 327 783 q 362 662 327 689 q 514 610 398 634 q 757 503 687 573 q 827 294 827 432 q 722 68 827 148 q 431 -13 617 -13 z "},"Ş":{"ha":884,"x_min":51,"x_max":827,"o":"m 51 0 m 431 -13 q 216 17 308 -13 q 51 90 124 47 l 107 278 q 259 205 183 234 q 434 177 336 177 q 542 205 509 177 q 574 279 574 232 q 533 359 574 337 q 389 403 491 380 q 146 510 216 442 q 76 707 76 578 q 167 931 76 840 q 446 1023 258 1023 q 629 991 537 1023 q 777 927 722 958 l 732 747 q 589 808 657 785 q 447 831 521 831 q 356 807 385 831 q 327 736 327 783 q 362 662 327 689 q 514 610 398 634 q 757 503 687 573 q 827 294 827 432 q 722 68 827 148 q 431 -13 617 -13 m 402 0 l 427 53 q 604 8 535 43 q 672 -111 672 -27 q 587 -246 672 -206 q 399 -285 503 -285 q 201 -246 278 -285 q 117 -114 124 -206 l 330 -101 q 345 -134 332 -125 q 389 -144 359 -144 q 440 -131 423 -144 q 457 -74 457 -117 q 446 -26 457 -43 q 402 0 434 -9 z "},"Š":{"ha":884,"x_min":51,"x_max":827,"o":"m 51 0 m 345 1141 l 110 1342 l 187 1447 l 441 1314 l 691 1448 l 769 1342 l 537 1141 l 345 1141 m 431 -13 q 216 17 308 -13 q 51 90 124 47 l 107 278 q 259 205 183 234 q 434 177 336 177 q 542 205 509 177 q 574 279 574 232 q 533 359 574 337 q 389 403 491 380 q 146 510 216 442 q 76 707 76 578 q 167 931 76 840 q 446 1023 258 1023 q 629 991 537 1023 q 777 927 722 958 l 732 747 q 589 808 657 785 q 447 831 521 831 q 356 807 385 831 q 327 736 327 783 q 362 662 327 689 q 514 610 398 634 q 757 503 687 573 q 827 294 827 432 q 722 68 827 148 q 431 -13 617 -13 z "},"Ș":{"ha":884,"x_min":51,"x_max":827,"o":"m 51 0 m 431 -13 q 216 17 308 -13 q 51 90 124 47 l 107 278 q 259 205 183 234 q 434 177 336 177 q 542 205 509 177 q 574 279 574 232 q 533 359 574 337 q 389 403 491 380 q 146 510 216 442 q 76 707 76 578 q 167 931 76 840 q 446 1023 258 1023 q 629 991 537 1023 q 777 927 722 958 l 732 747 q 589 808 657 785 q 447 831 521 831 q 356 807 385 831 q 327 736 327 783 q 362 662 327 689 q 514 610 398 634 q 757 503 687 573 q 827 294 827 432 q 722 68 827 148 q 431 -13 617 -13 m 210 -379 l 293 -126 l 609 -126 l 375 -379 l 210 -379 z "},"T":{"ha":884,"x_min":38,"x_max":846,"o":"m 316 0 l 316 821 l 38 821 l 38 1010 l 846 1010 l 846 821 l 568 821 l 568 0 l 316 0 z "},"Ţ":{"ha":884,"x_min":38,"x_max":846,"o":"m 38 0 m 316 0 l 316 821 l 38 821 l 38 1010 l 846 1010 l 846 821 l 568 821 l 568 0 l 316 0 m 391 0 l 417 53 q 593 8 525 43 q 662 -111 662 -27 q 577 -246 662 -206 q 389 -285 492 -285 q 191 -246 268 -285 q 107 -114 114 -206 l 319 -101 q 335 -134 322 -125 q 379 -144 348 -144 q 430 -131 413 -144 q 447 -74 447 -117 q 436 -26 447 -43 q 391 0 424 -9 z "},"Ť":{"ha":884,"x_min":38,"x_max":846,"o":"m 38 0 m 347 1141 l 112 1342 l 189 1447 l 443 1314 l 693 1448 l 771 1342 l 539 1141 l 347 1141 m 316 0 l 316 821 l 38 821 l 38 1010 l 846 1010 l 846 821 l 568 821 l 568 0 l 316 0 z "},"Ț":{"ha":884,"x_min":38,"x_max":846,"o":"m 38 0 m 316 0 l 316 821 l 38 821 l 38 1010 l 846 1010 l 846 821 l 568 821 l 568 0 l 316 0 m 222 -379 l 306 -126 l 621 -126 l 388 -379 l 222 -379 z "},"U":{"ha":884,"x_min":63,"x_max":821,"o":"m 442 -13 q 155 76 247 -13 q 63 350 63 164 l 63 1010 l 316 1010 l 316 362 q 345 225 316 261 q 442 189 374 189 q 539 225 510 189 q 568 362 568 261 l 568 1010 l 821 1010 l 821 350 q 729 76 821 164 q 442 -13 636 -13 z "},"Ù":{"ha":884,"x_min":63,"x_max":821,"o":"m 63 0 m 418 1136 l 134 1389 l 449 1389 l 583 1136 l 418 1136 m 442 -13 q 155 76 247 -13 q 63 350 63 164 l 63 1010 l 316 1010 l 316 362 q 345 225 316 261 q 442 189 374 189 q 539 225 510 189 q 568 362 568 261 l 568 1010 l 821 1010 l 821 350 q 729 76 821 164 q 442 -13 636 -13 z "},"Ú":{"ha":884,"x_min":63,"x_max":821,"o":"m 63 0 m 273 1136 l 407 1389 l 722 1389 l 438 1136 l 273 1136 m 442 -13 q 155 76 247 -13 q 63 350 63 164 l 63 1010 l 316 1010 l 316 362 q 345 225 316 261 q 442 189 374 189 q 539 225 510 189 q 568 362 568 261 l 568 1010 l 821 1010 l 821 350 q 729 76 821 164 q 442 -13 636 -13 z "},"Û":{"ha":884,"x_min":63,"x_max":821,"o":"m 63 0 m 191 1116 l 112 1222 l 345 1423 l 537 1423 l 771 1222 l 694 1117 l 441 1250 l 191 1116 m 442 -13 q 155 76 247 -13 q 63 350 63 164 l 63 1010 l 316 1010 l 316 362 q 345 225 316 261 q 442 189 374 189 q 539 225 510 189 q 568 362 568 261 l 568 1010 l 821 1010 l 821 350 q 729 76 821 164 q 442 -13 636 -13 z "},"Ü":{"ha":884,"x_min":63,"x_max":821,"o":"m 63 0 m 442 -13 q 155 76 247 -13 q 63 350 63 164 l 63 1010 l 316 1010 l 316 362 q 345 225 316 261 q 442 189 374 189 q 539 225 510 189 q 568 362 568 261 l 568 1010 l 821 1010 l 821 350 q 729 76 821 164 q 442 -13 636 -13 m 278 1124 q 189 1145 223 1124 q 154 1220 154 1167 l 154 1239 q 189 1316 154 1293 q 278 1338 223 1338 q 367 1316 333 1338 q 402 1239 402 1293 l 402 1220 q 367 1145 402 1167 q 278 1124 332 1124 m 606 1124 q 517 1145 552 1124 q 482 1220 482 1167 l 482 1239 q 517 1316 482 1293 q 606 1338 552 1338 q 696 1316 662 1338 q 730 1239 730 1293 l 730 1220 q 695 1145 730 1167 q 606 1124 660 1124 z "},"Ũ":{"ha":884,"x_min":63,"x_max":821,"o":"m 63 0 m 442 -13 q 155 76 247 -13 q 63 350 63 164 l 63 1010 l 316 1010 l 316 362 q 345 225 316 261 q 442 189 374 189 q 539 225 510 189 q 568 362 568 261 l 568 1010 l 821 1010 l 821 350 q 729 76 821 164 q 442 -13 636 -13 m 563 1149 q 468 1168 501 1149 q 415 1208 436 1187 q 378 1249 395 1231 q 336 1268 360 1268 q 299 1249 316 1268 q 284 1173 283 1231 l 284 1162 l 124 1162 l 124 1181 q 177 1356 124 1285 q 323 1427 230 1427 q 417 1408 384 1427 q 471 1367 449 1389 q 510 1326 492 1345 q 549 1307 528 1307 q 586 1325 569 1307 q 601 1402 602 1343 l 601 1413 l 761 1413 l 761 1394 q 708 1220 761 1290 q 563 1149 655 1149 z "},"Ū":{"ha":884,"x_min":63,"x_max":821,"o":"m 63 0 m 442 -13 q 155 76 247 -13 q 63 350 63 164 l 63 1010 l 316 1010 l 316 362 q 345 225 316 261 q 442 189 374 189 q 539 225 510 189 q 568 362 568 261 l 568 1010 l 821 1010 l 821 350 q 729 76 821 164 q 442 -13 636 -13 m 158 1168 l 158 1357 l 726 1357 l 726 1168 l 158 1168 z "},"Ŭ":{"ha":884,"x_min":63,"x_max":821,"o":"m 63 0 m 442 -13 q 155 76 247 -13 q 63 350 63 164 l 63 1010 l 316 1010 l 316 362 q 345 225 316 261 q 442 189 374 189 q 539 225 510 189 q 568 362 568 261 l 568 1010 l 821 1010 l 821 350 q 729 76 821 164 q 442 -13 636 -13 m 442 1128 q 189 1202 271 1128 q 105 1431 106 1277 l 307 1431 q 338 1311 308 1345 q 442 1278 369 1278 q 545 1311 515 1278 q 577 1431 576 1345 l 779 1431 q 695 1202 778 1277 q 442 1128 612 1128 z "},"Ů":{"ha":884,"x_min":63,"x_max":821,"o":"m 63 0 m 442 -13 q 155 76 247 -13 q 63 350 63 164 l 63 1010 l 316 1010 l 316 362 q 345 225 316 261 q 442 189 374 189 q 539 225 510 189 q 568 362 568 261 l 568 1010 l 821 1010 l 821 350 q 729 76 821 164 q 442 -13 636 -13 m 442 1105 q 250 1153 323 1105 q 177 1301 177 1201 l 177 1341 q 250 1491 177 1442 q 442 1540 323 1540 q 634 1491 562 1540 q 707 1341 707 1442 l 707 1301 q 634 1153 707 1201 q 442 1105 561 1105 m 442 1220 q 509 1238 486 1220 q 533 1301 533 1256 l 533 1341 q 509 1405 533 1384 q 442 1426 486 1426 q 374 1405 396 1426 q 351 1341 351 1384 l 351 1301 q 374 1238 351 1256 q 442 1220 396 1220 z "},"Ű":{"ha":884,"x_min":63,"x_max":823,"o":"m 63 0 m 525 1136 l 583 1389 l 823 1389 l 653 1136 l 525 1136 m 235 1136 l 293 1389 l 533 1389 l 362 1136 l 235 1136 m 442 -13 q 155 76 247 -13 q 63 350 63 164 l 63 1010 l 316 1010 l 316 362 q 345 225 316 261 q 442 189 374 189 q 539 225 510 189 q 568 362 568 261 l 568 1010 l 821 1010 l 821 350 q 729 76 821 164 q 442 -13 636 -13 z "},"Ų":{"ha":884,"x_min":63,"x_max":821,"o":"m 63 0 m 538 -283 q 371 -242 432 -283 q 309 -121 309 -202 q 374 20 309 -38 q 514 97 438 77 l 548 29 q 496 -21 505 3 q 486 -67 486 -45 q 508 -116 486 -100 q 581 -131 530 -131 q 634 -128 604 -131 q 701 -119 664 -125 l 701 -265 q 614 -278 655 -274 q 538 -283 573 -283 m 442 -13 q 155 76 247 -13 q 63 350 63 164 l 63 1010 l 316 1010 l 316 362 q 345 225 316 261 q 442 189 374 189 q 539 225 510 189 q 568 362 568 261 l 568 1010 l 821 1010 l 821 350 q 729 76 821 164 q 442 -13 636 -13 z "},"V":{"ha":884,"x_min":13,"x_max":872,"o":"m 610 0 l 275 0 l 13 1010 l 263 1010 l 442 181 l 633 1010 l 872 1010 l 610 0 z "},"W":{"ha":884,"x_min":11,"x_max":872,"o":"m 528 0 l 444 438 l 361 0 l 141 0 l 11 1010 l 225 1010 l 273 277 l 356 758 l 525 758 l 612 295 l 659 1010 l 872 1010 l 742 0 l 528 0 z "},"Ŵ":{"ha":884,"x_min":11,"x_max":872,"o":"m 11 0 m 191 1116 l 112 1222 l 345 1423 l 537 1423 l 771 1222 l 694 1117 l 441 1250 l 191 1116 m 528 0 l 444 438 l 361 0 l 141 0 l 11 1010 l 225 1010 l 273 277 l 356 758 l 525 758 l 612 295 l 659 1010 l 872 1010 l 742 0 l 528 0 z "},"Ẁ":{"ha":884,"x_min":11,"x_max":872,"o":"m 11 0 m 418 1136 l 134 1389 l 449 1389 l 583 1136 l 418 1136 m 528 0 l 444 438 l 361 0 l 141 0 l 11 1010 l 225 1010 l 273 277 l 356 758 l 525 758 l 612 295 l 659 1010 l 872 1010 l 742 0 l 528 0 z "},"Ẃ":{"ha":884,"x_min":11,"x_max":872,"o":"m 11 0 m 273 1136 l 407 1389 l 722 1389 l 438 1136 l 273 1136 m 528 0 l 444 438 l 361 0 l 141 0 l 11 1010 l 225 1010 l 273 277 l 356 758 l 525 758 l 612 295 l 659 1010 l 872 1010 l 742 0 l 528 0 z "},"Ẅ":{"ha":884,"x_min":11,"x_max":872,"o":"m 11 0 m 290 1124 q 201 1145 236 1124 q 167 1220 167 1167 l 167 1239 q 201 1316 167 1293 q 290 1338 236 1338 q 380 1316 346 1338 q 414 1239 414 1293 l 414 1220 q 379 1145 414 1167 q 290 1124 345 1124 m 619 1124 q 530 1145 564 1124 q 495 1220 495 1167 l 495 1239 q 530 1316 495 1293 q 619 1338 564 1338 q 708 1316 674 1338 q 742 1239 742 1293 l 742 1220 q 708 1145 742 1167 q 619 1124 673 1124 m 528 0 l 444 438 l 361 0 l 141 0 l 11 1010 l 225 1010 l 273 277 l 356 758 l 525 758 l 612 295 l 659 1010 l 872 1010 l 742 0 l 528 0 z "},"X":{"ha":884,"x_min":30,"x_max":854,"o":"m 605 0 l 436 314 l 271 0 l 30 0 l 326 520 l 62 1010 l 319 1010 l 466 731 l 612 1010 l 854 1010 l 576 521 l 850 0 l 605 0 z "},"Y":{"ha":884,"x_min":18,"x_max":865,"o":"m 568 0 l 316 0 l 316 379 l 18 1010 l 269 1010 l 441 593 l 615 1010 l 865 1010 l 568 379 l 568 0 z "},"Ý":{"ha":884,"x_min":18,"x_max":865,"o":"m 18 0 m 568 0 l 316 0 l 316 379 l 18 1010 l 269 1010 l 441 593 l 615 1010 l 865 1010 l 568 379 l 568 0 m 273 1136 l 407 1389 l 722 1389 l 438 1136 l 273 1136 z "},"Ŷ":{"ha":884,"x_min":18,"x_max":865,"o":"m 18 0 m 568 0 l 316 0 l 316 379 l 18 1010 l 269 1010 l 441 593 l 615 1010 l 865 1010 l 568 379 l 568 0 m 191 1116 l 112 1222 l 345 1423 l 537 1423 l 771 1222 l 694 1117 l 441 1250 l 191 1116 z "},"Ÿ":{"ha":884,"x_min":18,"x_max":865,"o":"m 18 0 m 568 0 l 316 0 l 316 379 l 18 1010 l 269 1010 l 441 593 l 615 1010 l 865 1010 l 568 379 l 568 0 m 278 1124 q 189 1145 223 1124 q 154 1220 154 1167 l 154 1239 q 189 1316 154 1293 q 278 1338 223 1338 q 367 1316 333 1338 q 402 1239 402 1293 l 402 1220 q 367 1145 402 1167 q 278 1124 332 1124 m 606 1124 q 517 1145 552 1124 q 482 1220 482 1167 l 482 1239 q 517 1316 482 1293 q 606 1338 552 1338 q 696 1316 662 1338 q 730 1239 730 1293 l 730 1220 q 695 1145 730 1167 q 606 1124 660 1124 z "},"Ỳ":{"ha":884,"x_min":18,"x_max":865,"o":"m 18 0 m 568 0 l 316 0 l 316 379 l 18 1010 l 269 1010 l 441 593 l 615 1010 l 865 1010 l 568 379 l 568 0 m 418 1136 l 134 1389 l 449 1389 l 583 1136 l 418 1136 z "},"Z":{"ha":884,"x_min":63,"x_max":821,"o":"m 821 0 l 63 0 l 63 189 l 558 821 l 63 821 l 63 1010 l 821 1010 l 821 821 l 331 189 l 821 189 l 821 0 z "},"Ź":{"ha":884,"x_min":63,"x_max":821,"o":"m 63 0 m 311 1136 l 444 1389 l 760 1389 l 476 1136 l 311 1136 m 821 0 l 63 0 l 63 189 l 558 821 l 63 821 l 63 1010 l 821 1010 l 821 821 l 331 189 l 821 189 l 821 0 z "},"Ż":{"ha":884,"x_min":63,"x_max":821,"o":"m 63 0 m 821 0 l 63 0 l 63 189 l 558 821 l 63 821 l 63 1010 l 821 1010 l 821 821 l 331 189 l 821 189 l 821 0 m 442 1124 q 325 1145 370 1124 q 280 1220 280 1167 l 280 1239 q 325 1316 280 1293 q 442 1338 370 1338 q 559 1316 514 1338 q 604 1239 604 1293 l 604 1220 q 558 1145 604 1167 q 442 1124 513 1124 z "},"Ž":{"ha":884,"x_min":63,"x_max":821,"o":"m 63 0 m 347 1141 l 112 1342 l 189 1447 l 443 1314 l 693 1448 l 771 1342 l 539 1141 l 347 1141 m 821 0 l 63 0 l 63 189 l 558 821 l 63 821 l 63 1010 l 821 1010 l 821 821 l 331 189 l 821 189 l 821 0 z "},"Æ":{"ha":884,"x_min":13,"x_max":859,"o":"m 390 833 l 287 404 l 417 404 l 417 833 l 390 833 m 417 227 l 244 227 l 189 0 l 13 0 l 269 1010 l 859 1010 l 859 833 l 631 833 l 631 631 l 833 631 l 833 455 l 631 455 l 631 177 l 859 177 l 859 0 l 417 0 l 417 227 z "},"Ǽ":{"ha":884,"x_min":13,"x_max":874,"o":"m 13 0 m 424 1136 l 558 1389 l 874 1389 l 590 1136 l 424 1136 m 390 833 l 287 404 l 417 404 l 417 833 l 390 833 m 417 227 l 244 227 l 189 0 l 13 0 l 269 1010 l 859 1010 l 859 833 l 631 833 l 631 631 l 833 631 l 833 455 l 631 455 l 631 177 l 859 177 l 859 0 l 417 0 l 417 227 z "},"Ð":{"ha":884,"x_min":0,"x_max":821,"o":"m 63 0 l 63 480 l 0 480 l 0 631 l 63 631 l 63 1010 l 443 1010 q 720 910 620 1010 q 821 643 821 809 l 821 362 q 720 98 821 197 q 442 0 620 0 l 63 0 m 316 189 l 417 189 q 535 232 503 189 q 568 388 568 275 l 568 617 q 535 777 568 732 q 417 821 503 821 l 316 821 l 316 631 l 442 631 l 442 480 l 316 480 l 316 189 z "},"Ø":{"ha":884,"x_min":63,"x_max":821,"o":"m 292 318 l 495 828 q 470 832 482 831 q 442 833 457 833 q 323 789 356 833 q 290 643 290 745 l 290 362 q 290 339 290 350 q 292 318 290 328 m 442 177 q 561 218 529 177 q 593 362 593 260 l 593 643 q 593 667 593 655 q 592 689 593 678 l 388 182 q 414 178 400 179 q 442 177 427 177 m 442 -13 q 382 -10 410 -13 q 327 -3 354 -8 l 278 -126 l 101 -126 l 177 64 q 92 178 121 109 q 63 337 63 247 l 63 668 q 160 929 63 835 q 443 1023 258 1023 q 502 1020 473 1023 q 556 1013 530 1018 l 606 1136 l 783 1136 l 707 946 q 792 830 764 900 q 821 668 821 759 l 821 337 q 724 80 821 172 q 442 -13 628 -13 z "},"Ǿ":{"ha":884,"x_min":63,"x_max":821,"o":"m 63 0 m 292 318 l 495 828 q 470 832 482 831 q 442 833 457 833 q 323 789 356 833 q 290 643 290 745 l 290 362 q 290 339 290 350 q 292 318 290 328 m 442 177 q 561 218 529 177 q 593 362 593 260 l 593 643 q 593 667 593 655 q 592 689 593 678 l 388 182 q 414 178 400 179 q 442 177 427 177 m 442 -13 q 382 -10 410 -13 q 327 -3 354 -8 l 278 -126 l 101 -126 l 177 64 q 92 178 121 109 q 63 337 63 247 l 63 668 q 160 929 63 835 q 443 1023 258 1023 q 502 1020 473 1023 q 556 1013 530 1018 l 606 1136 l 783 1136 l 707 946 q 792 830 764 900 q 821 668 821 759 l 821 337 q 724 80 821 172 q 442 -13 628 -13 m 311 1136 l 444 1389 l 760 1389 l 476 1136 l 311 1136 z "},"Þ":{"ha":884,"x_min":63,"x_max":821,"o":"m 63 0 l 63 1010 l 316 1010 l 316 859 l 457 859 q 727 783 634 859 q 821 567 821 708 l 821 427 q 727 225 821 295 q 458 154 634 154 l 316 154 l 316 0 l 63 0 m 316 341 l 429 341 q 535 364 503 341 q 568 437 568 386 l 568 567 q 535 645 568 621 q 429 669 503 669 l 316 669 l 316 341 z "},"Đ":{"ha":884,"x_min":0,"x_max":821,"o":"m 63 0 l 63 480 l 0 480 l 0 631 l 63 631 l 63 1010 l 443 1010 q 720 910 620 1010 q 821 643 821 809 l 821 362 q 720 98 821 197 q 442 0 620 0 l 63 0 m 316 189 l 417 189 q 535 232 503 189 q 568 388 568 275 l 568 617 q 535 777 568 732 q 417 821 503 821 l 316 821 l 316 631 l 442 631 l 442 480 l 316 480 l 316 189 z "},"Ħ":{"ha":884,"x_min":0,"x_max":884,"o":"m 328 530 l 556 530 l 556 694 l 328 694 l 328 530 m 328 341 l 328 0 l 76 0 l 76 694 l 0 694 l 0 846 l 76 846 l 76 1010 l 328 1010 l 328 846 l 556 846 l 556 1010 l 808 1010 l 808 846 l 884 846 l 884 694 l 808 694 l 808 0 l 556 0 l 556 341 l 328 341 z "},"Ĳ":{"ha":884,"x_min":51,"x_max":833,"o":"m 240 0 l 51 0 l 51 1010 l 240 1010 l 240 0 m 593 -13 q 394 68 461 -13 q 328 337 327 149 l 518 351 q 530 190 518 229 q 587 152 542 152 q 631 177 617 152 q 644 278 644 203 l 644 846 l 480 846 l 480 1010 l 833 1010 l 833 265 q 774 61 833 135 q 593 -13 715 -13 z "},"Ŀ":{"ha":884,"x_min":126,"x_max":907,"o":"m 126 0 m 745 480 q 628 501 673 480 q 583 576 583 523 l 583 595 q 628 672 583 649 q 745 694 673 694 q 862 672 817 694 q 907 595 907 649 l 907 576 q 861 501 907 523 q 745 480 816 480 m 126 0 l 126 1010 l 379 1010 l 379 189 l 821 189 l 821 0 l 126 0 z "},"Ł":{"ha":884,"x_min":38,"x_max":821,"o":"m 126 0 l 126 407 l 38 379 l 38 530 l 126 558 l 126 1010 l 379 1010 l 379 639 l 669 732 l 669 581 l 379 487 l 379 189 l 821 189 l 821 0 l 126 0 z "},"Ŋ":{"ha":884,"x_min":63,"x_max":821,"o":"m 503 -265 q 415 -257 460 -265 q 330 -236 371 -249 l 355 -77 q 417 -94 388 -87 q 470 -101 446 -101 q 542 -73 516 -101 q 568 19 568 -45 l 568 699 q 545 799 568 764 q 481 833 521 833 q 402 801 439 833 q 316 699 365 768 l 316 0 l 63 0 l 63 1010 l 316 1010 l 316 846 l 354 846 q 455 978 391 933 q 597 1023 518 1023 q 754 958 688 1023 q 821 769 821 894 l 821 -3 q 723 -203 821 -141 q 503 -265 626 -265 z "},"Œ":{"ha":884,"x_min":38,"x_max":859,"o":"m 352 0 q 121 100 205 0 q 38 367 38 201 l 38 648 q 121 912 38 813 q 354 1010 205 1010 l 859 1010 l 859 833 l 631 833 l 631 631 l 795 631 l 795 455 l 631 455 l 631 177 l 859 177 l 859 0 l 352 0 m 379 189 l 417 189 l 417 821 l 379 821 q 277 774 301 821 q 253 622 253 727 l 253 393 q 277 239 253 289 q 379 189 301 189 z "},"Ŧ":{"ha":884,"x_min":38,"x_max":846,"o":"m 316 0 l 316 366 l 114 366 l 114 518 l 316 518 l 316 821 l 38 821 l 38 1010 l 846 1010 l 846 821 l 568 821 l 568 518 l 770 518 l 770 366 l 568 366 l 568 0 l 316 0 z "},"Α":{"ha":884,"x_min":13,"x_max":872,"o":"m 13 0 m 540 417 l 448 828 l 345 417 l 540 417 m 635 0 l 583 227 l 297 227 l 240 0 l 13 0 l 288 1010 l 597 1010 l 872 0 l 635 0 z "},"Ά":{"ha":884,"x_min":-42,"x_max":872,"o":"m 0 0 m 540 417 l 448 828 l 345 417 l 540 417 m 635 0 l 583 227 l 297 227 l 240 0 l 13 0 l 288 1010 l 597 1010 l 872 0 l 635 0 m -42 884 l 16 1136 l 319 1136 l 111 884 l -42 884 z "},"Β":{"ha":884,"x_min":63,"x_max":821,"o":"m 63 0 m 63 0 l 63 1010 l 460 1010 q 711 952 630 1010 q 793 773 793 894 l 793 730 q 758 607 793 646 q 643 553 722 567 l 643 516 q 775 458 729 508 q 821 332 821 408 l 821 266 q 732 66 821 131 q 456 0 643 0 l 63 0 m 316 606 l 434 606 q 518 625 494 606 q 543 691 543 644 l 543 751 q 518 815 543 797 q 434 833 494 833 l 316 833 l 316 606 m 316 177 l 429 177 q 537 199 505 177 q 568 279 568 222 l 568 345 q 537 422 568 399 q 429 444 505 444 l 316 444 l 316 177 z "},"Γ":{"ha":884,"x_min":126,"x_max":846,"o":"m 126 0 l 126 1010 l 846 1010 l 846 821 l 379 821 l 379 0 l 126 0 z "},"Δ":{"ha":884,"x_min":38,"x_max":846,"o":"m 38 0 l 38 189 l 269 1010 l 629 1010 l 846 189 l 846 0 l 38 0 m 611 189 l 442 856 l 263 189 l 611 189 z "},"Ε":{"ha":884,"x_min":63,"x_max":821,"o":"m 63 0 m 63 0 l 63 1010 l 821 1010 l 821 821 l 316 821 l 316 631 l 758 631 l 758 442 l 316 442 l 316 189 l 821 189 l 821 0 l 63 0 z "},"Έ":{"ha":884,"x_min":-231,"x_max":821,"o":"m 0 0 m 63 0 l 63 1010 l 821 1010 l 821 821 l 316 821 l 316 631 l 758 631 l 758 442 l 316 442 l 316 189 l 821 189 l 821 0 l 63 0 m -231 884 l -173 1136 l 130 1136 l -78 884 l -231 884 z "},"Ζ":{"ha":884,"x_min":63,"x_max":821,"o":"m 63 0 m 821 0 l 63 0 l 63 189 l 558 821 l 63 821 l 63 1010 l 821 1010 l 821 821 l 331 189 l 821 189 l 821 0 z "},"Η":{"ha":884,"x_min":63,"x_max":821,"o":"m 63 0 m 63 0 l 63 1010 l 316 1010 l 316 657 l 568 657 l 568 1010 l 821 1010 l 821 0 l 568 0 l 568 467 l 316 467 l 316 0 l 63 0 z "},"Ή":{"ha":884,"x_min":-256,"x_max":821,"o":"m 0 0 m -256 884 l -198 1136 l 105 1136 l -104 884 l -256 884 m 63 0 l 63 1010 l 316 1010 l 316 657 l 568 657 l 568 1010 l 821 1010 l 821 0 l 568 0 l 568 467 l 316 467 l 316 0 l 63 0 z "},"Θ":{"ha":884,"x_min":63,"x_max":821,"o":"m 442 -13 q 162 78 260 -13 q 63 337 63 169 l 63 668 q 162 930 63 837 q 443 1023 261 1023 q 722 930 624 1023 q 821 668 821 837 l 821 337 q 722 78 821 169 q 442 -13 624 -13 m 442 177 q 564 220 523 177 q 606 362 606 263 l 606 643 q 565 788 606 742 q 442 833 524 833 q 319 788 360 833 q 278 643 278 742 l 278 362 q 319 220 278 263 q 442 177 361 177 m 341 429 l 341 593 l 543 593 l 543 429 l 341 429 z "},"Ι":{"ha":884,"x_min":63,"x_max":821,"o":"m 63 0 m 63 0 l 63 189 l 316 189 l 316 821 l 63 821 l 63 1010 l 821 1010 l 821 821 l 568 821 l 568 189 l 821 189 l 821 0 l 63 0 z "},"Ί":{"ha":884,"x_min":-256,"x_max":821,"o":"m 0 0 m -256 884 l -198 1136 l 105 1136 l -104 884 l -256 884 m 63 0 l 63 189 l 316 189 l 316 821 l 63 821 l 63 1010 l 821 1010 l 821 821 l 568 821 l 568 189 l 821 189 l 821 0 l 63 0 z "},"Ϊ":{"ha":884,"x_min":63,"x_max":821,"o":"m 63 0 m 63 0 l 63 189 l 316 189 l 316 821 l 63 821 l 63 1010 l 821 1010 l 821 821 l 568 821 l 568 189 l 821 189 l 821 0 l 63 0 m 278 1124 q 189 1145 223 1124 q 154 1220 154 1167 l 154 1239 q 189 1316 154 1293 q 278 1338 223 1338 q 367 1316 333 1338 q 402 1239 402 1293 l 402 1220 q 367 1145 402 1167 q 278 1124 332 1124 m 606 1124 q 517 1145 552 1124 q 482 1220 482 1167 l 482 1239 q 517 1316 482 1293 q 606 1338 552 1338 q 696 1316 662 1338 q 730 1239 730 1293 l 730 1220 q 695 1145 730 1167 q 606 1124 660 1124 z "},"Κ":{"ha":884,"x_min":63,"x_max":865,"o":"m 63 0 m 316 423 l 316 0 l 63 0 l 63 1010 l 316 1010 l 316 612 l 366 612 l 606 1010 l 865 1010 l 554 543 l 861 0 l 606 0 l 370 423 l 316 423 z "},"Λ":{"ha":884,"x_min":13,"x_max":872,"o":"m 635 0 l 448 828 l 240 0 l 13 0 l 288 1010 l 597 1010 l 872 0 l 635 0 z "},"Μ":{"ha":884,"x_min":51,"x_max":833,"o":"m 51 0 m 364 316 l 244 644 l 271 0 l 51 0 l 51 1010 l 284 1010 l 446 542 l 606 1010 l 833 1010 l 833 0 l 612 0 l 639 636 l 523 316 l 364 316 z "},"Ν":{"ha":884,"x_min":63,"x_max":821,"o":"m 63 0 m 527 0 l 278 662 l 278 0 l 63 0 l 63 1010 l 337 1010 l 606 293 l 606 1010 l 821 1010 l 821 0 l 527 0 z "},"Ξ":{"ha":884,"x_min":63,"x_max":821,"o":"m 63 821 l 63 1010 l 821 1010 l 821 821 l 63 821 m 95 442 l 95 631 l 789 631 l 789 442 l 95 442 m 63 0 l 63 189 l 821 189 l 821 0 l 63 0 z "},"Ο":{"ha":884,"x_min":63,"x_max":821,"o":"m 63 0 m 442 -13 q 160 73 256 -13 q 63 312 63 159 l 63 693 q 160 935 63 847 q 443 1023 258 1023 q 725 935 629 1023 q 821 693 821 847 l 821 312 q 724 73 821 159 q 442 -13 628 -13 m 442 177 q 539 213 510 177 q 568 337 568 250 l 568 668 q 539 794 568 755 q 442 833 510 833 q 345 794 374 833 q 316 668 316 755 l 316 337 q 345 213 316 250 q 442 177 374 177 z "},"Ό":{"ha":884,"x_min":-105,"x_max":821,"o":"m 0 0 m -105 884 l -47 1136 l 256 1136 l 48 884 l -105 884 m 442 -13 q 160 73 256 -13 q 63 312 63 159 l 63 693 q 160 935 63 847 q 443 1023 258 1023 q 725 935 629 1023 q 821 693 821 847 l 821 312 q 724 73 821 159 q 442 -13 628 -13 m 442 177 q 539 213 510 177 q 568 337 568 250 l 568 668 q 539 794 568 755 q 442 833 510 833 q 345 794 374 833 q 316 668 316 755 l 316 337 q 345 213 316 250 q 442 177 374 177 z "},"Π":{"ha":884,"x_min":63,"x_max":821,"o":"m 63 0 l 63 1010 l 821 1010 l 821 0 l 568 0 l 568 821 l 316 821 l 316 0 l 63 0 z "},"Ρ":{"ha":884,"x_min":63,"x_max":821,"o":"m 63 0 m 63 0 l 63 1010 l 457 1010 q 723 941 625 1010 q 821 721 821 871 l 821 581 q 724 371 821 437 q 458 306 628 306 l 316 306 l 316 0 l 63 0 m 316 492 l 442 492 q 537 514 505 492 q 568 602 568 535 l 568 705 q 537 797 568 773 q 442 821 505 821 l 316 821 l 316 492 z "},"Σ":{"ha":884,"x_min":88,"x_max":783,"o":"m 783 0 l 88 0 l 88 189 l 463 516 l 88 821 l 88 1010 l 783 1010 l 783 821 l 343 821 l 631 600 l 631 451 l 328 189 l 783 189 l 783 0 z "},"Τ":{"ha":884,"x_min":38,"x_max":846,"o":"m 38 0 m 316 0 l 316 821 l 38 821 l 38 1010 l 846 1010 l 846 821 l 568 821 l 568 0 l 316 0 z "},"Υ":{"ha":884,"x_min":18,"x_max":865,"o":"m 18 0 m 568 0 l 316 0 l 316 379 l 18 1010 l 269 1010 l 441 593 l 615 1010 l 865 1010 l 568 379 l 568 0 z "},"Ύ":{"ha":884,"x_min":-256,"x_max":865,"o":"m 0 0 m 568 0 l 316 0 l 316 379 l 18 1010 l 269 1010 l 441 593 l 615 1010 l 865 1010 l 568 379 l 568 0 m -256 884 l -198 1136 l 105 1136 l -104 884 l -256 884 z "},"Ϋ":{"ha":884,"x_min":18,"x_max":865,"o":"m 18 0 m 568 0 l 316 0 l 316 379 l 18 1010 l 269 1010 l 441 593 l 615 1010 l 865 1010 l 568 379 l 568 0 m 278 1124 q 189 1145 223 1124 q 154 1220 154 1167 l 154 1239 q 189 1316 154 1293 q 278 1338 223 1338 q 367 1316 333 1338 q 402 1239 402 1293 l 402 1220 q 367 1145 402 1167 q 278 1124 332 1124 m 606 1124 q 517 1145 552 1124 q 482 1220 482 1167 l 482 1239 q 517 1316 482 1293 q 606 1338 552 1338 q 696 1316 662 1338 q 730 1239 730 1293 l 730 1220 q 695 1145 730 1167 q 606 1124 660 1124 z "},"Φ":{"ha":884,"x_min":47,"x_max":837,"o":"m 47 0 m 551 114 l 542 114 l 542 -13 l 341 -13 l 341 114 l 332 114 q 121 201 196 114 q 47 451 47 289 l 47 554 q 122 807 47 717 q 335 896 197 896 l 341 896 l 341 1023 l 542 1023 l 542 896 l 551 896 q 762 807 687 896 q 837 554 837 717 l 837 451 q 762 201 837 289 q 551 114 687 114 m 563 720 l 535 720 l 535 290 l 563 290 q 617 333 602 290 q 631 451 631 376 l 631 554 q 617 674 631 628 q 563 720 602 720 m 327 290 l 347 290 l 347 720 l 327 720 q 268 674 284 720 q 251 554 251 628 l 251 451 q 268 333 251 376 q 327 290 284 290 z "},"Χ":{"ha":884,"x_min":30,"x_max":854,"o":"m 30 0 m 605 0 l 436 314 l 271 0 l 30 0 l 326 520 l 62 1010 l 319 1010 l 466 731 l 612 1010 l 854 1010 l 576 521 l 850 0 l 605 0 z "},"Ψ":{"ha":884,"x_min":48,"x_max":836,"o":"m 543 0 l 341 0 l 341 235 q 123 343 198 256 q 48 577 48 431 l 48 1010 l 253 1010 l 253 590 q 274 472 253 514 q 341 420 295 429 l 341 1010 l 543 1010 l 543 420 q 610 472 588 429 q 631 590 631 514 l 631 1010 l 836 1010 l 836 577 q 761 343 836 431 q 543 235 686 256 l 543 0 z "},"Ω":{"ha":884,"x_min":51,"x_max":833,"o":"m 404 0 l 51 0 l 51 152 l 189 152 l 189 265 q 86 368 122 303 q 51 519 51 433 l 51 668 q 152 932 51 841 q 442 1023 253 1023 q 732 932 631 1023 q 833 668 833 841 l 833 519 q 797 368 833 433 q 694 265 761 303 l 694 152 l 833 152 l 833 0 l 480 0 l 480 290 q 555 364 529 306 q 581 519 581 423 l 581 681 q 545 799 581 764 q 442 833 509 833 q 339 799 375 833 q 303 681 303 764 l 303 519 q 329 364 303 423 q 404 290 355 306 l 404 0 z "},"Ώ":{"ha":884,"x_min":-155,"x_max":833,"o":"m 0 0 m -155 884 l -97 1136 l 206 1136 l -3 884 l -155 884 m 404 0 l 51 0 l 51 152 l 189 152 l 189 265 q 86 368 122 303 q 51 519 51 433 l 51 668 q 152 932 51 841 q 442 1023 253 1023 q 732 932 631 1023 q 833 668 833 841 l 833 519 q 797 368 833 433 q 694 265 761 303 l 694 152 l 833 152 l 833 0 l 480 0 l 480 290 q 555 364 529 306 q 581 519 581 423 l 581 681 q 545 799 581 764 q 442 833 509 833 q 339 799 375 833 q 303 681 303 764 l 303 519 q 329 364 303 423 q 404 290 355 306 l 404 0 z "},"Ω":{"ha":884,"x_min":51,"x_max":833,"o":"m 51 0 m 404 0 l 51 0 l 51 152 l 189 152 l 189 265 q 86 368 122 303 q 51 519 51 433 l 51 668 q 152 932 51 841 q 442 1023 253 1023 q 732 932 631 1023 q 833 668 833 841 l 833 519 q 797 368 833 433 q 694 265 761 303 l 694 152 l 833 152 l 833 0 l 480 0 l 480 290 q 555 364 529 306 q 581 519 581 423 l 581 681 q 545 799 581 764 q 442 833 509 833 q 339 799 375 833 q 303 681 303 764 l 303 519 q 329 364 303 423 q 404 290 355 306 l 404 0 z "},"Ђ":{"ha":884,"x_min":13,"x_max":833,"o":"m 152 0 l 152 821 l 13 821 l 13 1010 l 593 1010 l 593 821 l 404 821 l 404 657 l 492 657 q 746 582 658 657 q 833 352 833 508 l 833 301 q 746 73 833 146 q 492 0 658 0 l 492 187 q 568 213 542 187 q 593 303 593 239 l 593 350 q 568 443 593 415 q 492 470 542 470 l 404 470 l 404 0 l 152 0 z "},"Є":{"ha":884,"x_min":63,"x_max":846,"o":"m 846 350 q 746 72 837 157 q 455 -13 655 -13 q 162 69 260 -13 q 63 312 63 150 l 63 693 q 162 940 63 857 q 456 1023 261 1023 q 745 942 653 1023 q 846 655 837 861 l 593 643 q 560 794 586 754 q 455 833 534 833 q 347 795 379 833 q 316 667 316 758 l 316 631 l 505 631 l 505 442 l 316 442 l 316 337 q 347 213 316 250 q 455 177 379 177 q 559 213 534 177 q 593 362 585 250 l 846 350 z "},"Ѕ":{"ha":884,"x_min":51,"x_max":827,"o":"m 51 0 m 431 -13 q 216 17 308 -13 q 51 90 124 47 l 107 278 q 259 205 183 234 q 434 177 336 177 q 542 205 509 177 q 574 279 574 232 q 533 359 574 337 q 389 403 491 380 q 146 510 216 442 q 76 707 76 578 q 167 931 76 840 q 446 1023 258 1023 q 629 991 537 1023 q 777 927 722 958 l 732 747 q 589 808 657 785 q 447 831 521 831 q 356 807 385 831 q 327 736 327 783 q 362 662 327 689 q 514 610 398 634 q 757 503 687 573 q 827 294 827 432 q 722 68 827 148 q 431 -13 617 -13 z "},"І":{"ha":884,"x_min":63,"x_max":821,"o":"m 63 0 m 63 0 l 63 189 l 316 189 l 316 821 l 63 821 l 63 1010 l 821 1010 l 821 821 l 568 821 l 568 189 l 821 189 l 821 0 l 63 0 z "},"Ї":{"ha":884,"x_min":63,"x_max":821,"o":"m 63 0 m 278 1124 q 189 1145 223 1124 q 154 1220 154 1167 l 154 1239 q 189 1316 154 1293 q 278 1338 223 1338 q 367 1316 333 1338 q 402 1239 402 1293 l 402 1220 q 367 1145 402 1167 q 278 1124 332 1124 m 606 1124 q 517 1145 552 1124 q 482 1220 482 1167 l 482 1239 q 517 1316 482 1293 q 606 1338 552 1338 q 696 1316 662 1338 q 730 1239 730 1293 l 730 1220 q 695 1145 730 1167 q 606 1124 660 1124 m 63 0 l 63 189 l 316 189 l 316 821 l 63 821 l 63 1010 l 821 1010 l 821 821 l 568 821 l 568 189 l 821 189 l 821 0 l 63 0 z "},"Ј":{"ha":884,"x_min":38,"x_max":795,"o":"m 38 0 m 428 -13 q 138 75 230 -13 q 38 362 47 163 l 290 376 q 328 215 299 254 q 426 177 356 177 q 515 211 487 177 q 543 341 543 245 l 543 821 l 253 821 l 253 1010 l 795 1010 l 795 328 q 707 78 795 169 q 428 -13 619 -13 z "},"Љ":{"ha":884,"x_min":-20,"x_max":837,"o":"m 266 169 q 217 39 265 83 q 73 -6 168 -6 q 27 -3 51 -6 q -20 5 4 0 l 5 183 q 22 180 14 182 q 39 179 30 178 q 67 193 56 179 q 80 242 78 206 l 88 1010 l 553 1010 l 553 705 l 626 705 q 781 645 725 705 q 837 481 837 586 l 837 241 q 780 64 837 128 q 625 0 723 0 l 364 0 l 364 846 l 273 846 l 266 169 m 553 164 l 585 164 q 633 188 617 164 q 648 266 648 212 l 648 447 q 633 520 648 497 q 585 543 617 543 l 553 543 l 553 164 z "},"Њ":{"ha":884,"x_min":48,"x_max":837,"o":"m 553 164 l 585 164 q 633 188 619 164 q 648 266 648 211 l 648 447 q 633 521 648 499 q 585 543 619 543 l 553 543 l 553 164 m 237 467 l 237 0 l 48 0 l 48 1010 l 237 1010 l 237 657 l 364 657 l 364 1010 l 553 1010 l 553 705 l 626 705 q 783 648 730 705 q 837 481 837 591 l 837 241 q 783 61 837 122 q 625 0 729 0 l 364 0 l 364 467 l 237 467 z "},"Ћ":{"ha":884,"x_min":13,"x_max":833,"o":"m 404 0 l 152 0 l 152 821 l 13 821 l 13 1010 l 606 1010 l 606 821 l 404 821 l 404 631 l 492 631 q 750 560 667 631 q 833 340 833 489 l 833 0 l 581 0 l 581 337 q 559 418 581 391 q 492 444 538 444 l 404 444 l 404 0 z "},"Џ":{"ha":884,"x_min":63,"x_max":821,"o":"m 316 -189 l 316 0 l 63 0 l 63 1010 l 316 1010 l 316 189 l 568 189 l 568 1010 l 821 1010 l 821 0 l 568 0 l 568 -189 l 316 -189 z "},"А":{"ha":884,"x_min":13,"x_max":872,"o":"m 13 0 m 540 417 l 448 828 l 345 417 l 540 417 m 635 0 l 583 227 l 297 227 l 240 0 l 13 0 l 288 1010 l 597 1010 l 872 0 l 635 0 z "},"Б":{"ha":884,"x_min":63,"x_max":838,"o":"m 63 0 l 63 1010 l 770 1010 l 770 821 l 316 821 l 316 644 l 485 644 q 747 571 657 644 q 838 364 838 499 l 838 295 q 747 76 838 153 q 486 0 657 0 l 63 0 m 316 189 l 460 189 q 558 219 530 189 q 586 304 586 249 l 586 345 q 558 428 586 399 q 460 457 530 457 l 316 457 l 316 189 z "},"В":{"ha":884,"x_min":63,"x_max":821,"o":"m 63 0 m 63 0 l 63 1010 l 460 1010 q 711 952 630 1010 q 793 773 793 894 l 793 730 q 758 607 793 646 q 643 553 722 567 l 643 516 q 775 458 729 508 q 821 332 821 408 l 821 266 q 732 66 821 131 q 456 0 643 0 l 63 0 m 316 606 l 434 606 q 518 625 494 606 q 543 691 543 644 l 543 751 q 518 815 543 797 q 434 833 494 833 l 316 833 l 316 606 m 316 177 l 429 177 q 537 199 505 177 q 568 279 568 222 l 568 345 q 537 422 568 399 q 429 444 505 444 l 316 444 l 316 177 z "},"Г":{"ha":884,"x_min":126,"x_max":846,"o":"m 126 0 m 126 0 l 126 1010 l 846 1010 l 846 821 l 379 821 l 379 0 l 126 0 z "},"Ѓ":{"ha":884,"x_min":126,"x_max":846,"o":"m 126 0 m 317 1136 l 451 1389 l 766 1389 l 482 1136 l 317 1136 m 126 0 l 126 1010 l 846 1010 l 846 821 l 379 821 l 379 0 l 126 0 z "},"Д":{"ha":884,"x_min":0,"x_max":859,"o":"m 327 213 l 327 189 l 530 189 l 530 821 l 380 821 l 376 385 q 363 280 375 326 q 327 213 351 235 m 227 0 l 227 -189 l 0 -189 l 0 189 l 100 189 q 136 251 124 207 q 150 389 149 294 l 158 1010 l 758 1010 l 758 189 l 859 189 l 859 -189 l 631 -189 l 631 0 l 227 0 z "},"Е":{"ha":884,"x_min":63,"x_max":821,"o":"m 63 0 m 63 0 l 63 1010 l 821 1010 l 821 821 l 316 821 l 316 631 l 758 631 l 758 442 l 316 442 l 316 189 l 821 189 l 821 0 l 63 0 z "},"Ѐ":{"ha":884,"x_min":63,"x_max":821,"o":"m 63 0 m 393 1136 l 109 1389 l 424 1389 l 558 1136 l 393 1136 m 63 0 l 63 1010 l 821 1010 l 821 821 l 316 821 l 316 631 l 758 631 l 758 442 l 316 442 l 316 189 l 821 189 l 821 0 l 63 0 z "},"Ё":{"ha":884,"x_min":63,"x_max":821,"o":"m 63 0 m 63 0 l 63 1010 l 821 1010 l 821 821 l 316 821 l 316 631 l 758 631 l 758 442 l 316 442 l 316 189 l 821 189 l 821 0 l 63 0 m 290 1124 q 201 1145 236 1124 q 167 1220 167 1167 l 167 1239 q 201 1316 167 1293 q 290 1338 236 1338 q 380 1316 346 1338 q 414 1239 414 1293 l 414 1220 q 379 1145 414 1167 q 290 1124 345 1124 m 619 1124 q 530 1145 564 1124 q 495 1220 495 1167 l 495 1239 q 530 1316 495 1293 q 619 1338 564 1338 q 708 1316 674 1338 q 742 1239 742 1293 l 742 1220 q 708 1145 742 1167 q 619 1124 673 1124 z "},"Ж":{"ha":884,"x_min":19,"x_max":865,"o":"m 299 436 l 215 0 l 23 0 l 155 576 l 19 1010 l 215 1010 l 308 600 l 354 600 l 354 1010 l 530 1010 l 530 600 l 576 600 l 669 1010 l 865 1010 l 737 568 l 861 0 l 669 0 l 585 436 l 530 436 l 530 0 l 354 0 l 354 436 l 299 436 z "},"З":{"ha":884,"x_min":51,"x_max":821,"o":"m 446 -13 q 154 62 249 -13 q 51 293 59 136 l 303 306 q 345 200 312 226 q 444 174 378 174 q 540 201 513 174 q 568 283 568 227 l 568 317 q 536 407 568 380 q 442 434 504 434 l 303 434 l 303 620 l 442 620 q 518 638 492 620 q 543 702 543 655 l 543 742 q 518 815 543 794 q 442 836 492 836 q 364 813 391 836 q 328 730 336 789 l 76 742 q 174 954 85 885 q 429 1023 263 1023 q 710 963 624 1023 q 795 769 795 904 l 795 746 q 746 614 795 667 q 610 551 697 562 l 610 514 q 765 448 708 505 q 821 298 821 390 l 821 277 q 732 56 821 124 q 446 -13 644 -13 z "},"И":{"ha":884,"x_min":63,"x_max":821,"o":"m 600 0 l 600 659 l 357 0 l 63 0 l 63 1010 l 284 1010 l 284 295 l 547 1010 l 821 1010 l 821 0 l 600 0 z "},"Ѝ":{"ha":884,"x_min":63,"x_max":821,"o":"m 63 0 m 393 1136 l 109 1389 l 424 1389 l 558 1136 l 393 1136 m 600 0 l 600 659 l 357 0 l 63 0 l 63 1010 l 284 1010 l 284 295 l 547 1010 l 821 1010 l 821 0 l 600 0 z "},"Й":{"ha":884,"x_min":63,"x_max":821,"o":"m 63 0 m 600 0 l 600 659 l 357 0 l 63 0 l 63 1010 l 284 1010 l 284 295 l 547 1010 l 821 1010 l 821 0 l 600 0 m 442 1128 q 209 1193 309 1128 q 111 1418 109 1258 l 326 1431 q 349 1313 324 1348 q 442 1278 374 1278 q 535 1313 510 1278 q 558 1431 559 1348 l 773 1418 q 675 1193 775 1258 q 442 1128 574 1128 z "},"К":{"ha":884,"x_min":63,"x_max":865,"o":"m 63 0 m 316 423 l 316 0 l 63 0 l 63 1010 l 316 1010 l 316 612 l 366 612 l 606 1010 l 865 1010 l 554 543 l 861 0 l 606 0 l 370 423 l 316 423 z "},"Ќ":{"ha":884,"x_min":63,"x_max":865,"o":"m 63 0 m 361 1136 l 495 1389 l 811 1389 l 527 1136 l 361 1136 m 316 423 l 316 0 l 63 0 l 63 1010 l 316 1010 l 316 612 l 366 612 l 606 1010 l 865 1010 l 554 543 l 861 0 l 606 0 l 370 423 l 316 423 z "},"Л":{"ha":884,"x_min":1,"x_max":821,"o":"m 568 0 l 568 821 l 410 821 l 408 299 q 338 62 407 141 q 136 -18 270 -18 q 71 -11 105 -18 q 1 5 37 -4 l 27 196 q 59 188 43 192 q 88 184 74 184 q 138 210 119 184 q 158 314 157 236 l 163 1010 l 821 1010 l 821 0 l 568 0 z "},"М":{"ha":884,"x_min":51,"x_max":833,"o":"m 51 0 m 364 316 l 244 644 l 271 0 l 51 0 l 51 1010 l 284 1010 l 446 542 l 606 1010 l 833 1010 l 833 0 l 612 0 l 639 636 l 523 316 l 364 316 z "},"Н":{"ha":884,"x_min":63,"x_max":821,"o":"m 63 0 m 63 0 l 63 1010 l 316 1010 l 316 657 l 568 657 l 568 1010 l 821 1010 l 821 0 l 568 0 l 568 467 l 316 467 l 316 0 l 63 0 z "},"О":{"ha":884,"x_min":63,"x_max":821,"o":"m 63 0 m 442 -13 q 160 73 256 -13 q 63 312 63 159 l 63 693 q 160 935 63 847 q 443 1023 258 1023 q 725 935 629 1023 q 821 693 821 847 l 821 312 q 724 73 821 159 q 442 -13 628 -13 m 442 177 q 539 213 510 177 q 568 337 568 250 l 568 668 q 539 794 568 755 q 442 833 510 833 q 345 794 374 833 q 316 668 316 755 l 316 337 q 345 213 316 250 q 442 177 374 177 z "},"П":{"ha":884,"x_min":63,"x_max":821,"o":"m 63 0 m 63 0 l 63 1010 l 821 1010 l 821 0 l 568 0 l 568 821 l 316 821 l 316 0 l 63 0 z "},"Р":{"ha":884,"x_min":63,"x_max":821,"o":"m 63 0 m 63 0 l 63 1010 l 457 1010 q 723 941 625 1010 q 821 721 821 871 l 821 581 q 724 371 821 437 q 458 306 628 306 l 316 306 l 316 0 l 63 0 m 316 492 l 442 492 q 537 514 505 492 q 568 602 568 535 l 568 705 q 537 797 568 773 q 442 821 505 821 l 316 821 l 316 492 z "},"С":{"ha":884,"x_min":63,"x_max":846,"o":"m 63 0 m 455 -13 q 161 69 259 -13 q 63 312 63 150 l 63 693 q 162 941 63 859 q 456 1023 260 1023 q 746 937 655 1023 q 846 655 837 851 l 593 643 q 559 797 586 760 q 455 833 532 833 q 348 795 380 833 q 316 667 316 756 l 316 337 q 348 214 316 251 q 455 177 380 177 q 557 213 530 177 q 593 362 585 249 l 846 350 q 746 71 837 155 q 455 -13 655 -13 z "},"Т":{"ha":884,"x_min":38,"x_max":846,"o":"m 38 0 m 316 0 l 316 821 l 38 821 l 38 1010 l 846 1010 l 846 821 l 568 821 l 568 0 l 316 0 z "},"У":{"ha":884,"x_min":30,"x_max":852,"o":"m 221 -9 q 129 -3 177 -9 q 35 11 82 3 l 57 201 q 140 187 102 192 q 208 182 178 182 q 304 204 266 182 q 362 292 341 226 l 370 316 l 274 316 l 30 1010 l 277 1010 l 439 519 l 605 1010 l 852 1010 l 580 244 q 445 54 533 116 q 221 -9 357 -9 z "},"Ў":{"ha":884,"x_min":30,"x_max":852,"o":"m 30 0 m 221 -9 q 129 -3 177 -9 q 35 11 82 3 l 57 201 q 140 187 102 192 q 208 182 178 182 q 304 204 266 182 q 362 292 341 226 l 370 316 l 274 316 l 30 1010 l 277 1010 l 439 519 l 605 1010 l 852 1010 l 580 244 q 445 54 533 116 q 221 -9 357 -9 m 442 1128 q 209 1193 309 1128 q 111 1418 109 1258 l 326 1431 q 349 1313 324 1348 q 442 1278 374 1278 q 535 1313 510 1278 q 558 1431 559 1348 l 773 1418 q 675 1193 775 1258 q 442 1128 574 1128 z "},"Ф":{"ha":884,"x_min":47,"x_max":837,"o":"m 551 114 l 542 114 l 542 -13 l 341 -13 l 341 114 l 332 114 q 121 201 196 114 q 47 451 47 289 l 47 554 q 122 807 47 717 q 335 896 197 896 l 341 896 l 341 1023 l 542 1023 l 542 896 l 551 896 q 762 807 687 896 q 837 554 837 717 l 837 451 q 762 201 837 289 q 551 114 687 114 m 563 720 l 535 720 l 535 290 l 563 290 q 617 333 602 290 q 631 451 631 376 l 631 554 q 617 674 631 628 q 563 720 602 720 m 327 290 l 347 290 l 347 720 l 327 720 q 268 674 284 720 q 251 554 251 628 l 251 451 q 268 333 251 376 q 327 290 284 290 z "},"Х":{"ha":884,"x_min":30,"x_max":854,"o":"m 30 0 m 605 0 l 436 314 l 271 0 l 30 0 l 326 520 l 62 1010 l 319 1010 l 466 731 l 612 1010 l 854 1010 l 576 521 l 850 0 l 605 0 z "},"Ц":{"ha":884,"x_min":63,"x_max":884,"o":"m 631 -189 l 631 0 l 63 0 l 63 1010 l 316 1010 l 316 189 l 530 189 l 530 1010 l 783 1010 l 783 189 l 884 189 l 884 -189 l 631 -189 z "},"Ч":{"ha":884,"x_min":57,"x_max":814,"o":"m 814 1010 l 814 0 l 562 0 l 562 316 l 436 316 q 150 396 244 316 q 57 645 57 477 l 57 1010 l 309 1010 l 309 648 q 340 539 309 574 q 436 503 371 503 l 562 503 l 562 1010 l 814 1010 z "},"Ш":{"ha":884,"x_min":47,"x_max":837,"o":"m 47 0 l 47 1010 l 253 1010 l 253 177 l 342 177 l 342 1010 l 540 1010 l 540 177 l 631 177 l 631 1010 l 837 1010 l 837 0 l 47 0 z "},"Щ":{"ha":884,"x_min":47,"x_max":890,"o":"m 890 -253 l 678 -253 l 678 0 l 47 0 l 47 1010 l 253 1010 l 253 177 l 342 177 l 342 1010 l 540 1010 l 540 177 l 631 177 l 631 1010 l 837 1010 l 837 177 l 890 177 l 890 -253 z "},"Ъ":{"ha":884,"x_min":0,"x_max":833,"o":"m 508 0 l 164 0 l 164 821 l 0 821 l 0 1010 l 410 1010 l 410 705 l 509 705 q 752 639 670 705 q 833 443 833 573 l 833 279 q 751 70 833 140 q 508 0 669 0 m 410 189 l 473 189 q 561 216 535 189 q 587 304 587 242 l 587 409 q 561 492 587 467 q 473 518 535 518 l 410 518 l 410 189 z "},"Ы":{"ha":884,"x_min":47,"x_max":837,"o":"m 47 0 l 47 1010 l 253 1010 l 253 705 l 282 705 q 486 643 418 705 q 554 456 554 581 l 554 266 q 486 66 554 133 q 280 0 418 0 l 47 0 m 631 0 l 631 1010 l 837 1010 l 837 0 l 631 0 m 253 177 l 278 177 q 338 203 321 177 q 356 292 356 230 l 356 422 q 338 505 356 480 q 278 530 321 530 l 253 530 l 253 177 z "},"Ь":{"ha":884,"x_min":63,"x_max":859,"o":"m 63 0 l 63 1010 l 316 1010 l 316 705 l 496 705 q 766 638 673 705 q 859 443 859 571 l 859 279 q 766 71 859 143 q 495 0 673 0 l 63 0 m 316 189 l 455 189 q 571 216 535 189 q 606 304 606 242 l 606 409 q 571 492 606 467 q 455 518 535 518 l 316 518 l 316 189 z "},"Э":{"ha":884,"x_min":38,"x_max":821,"o":"m 429 -13 q 139 73 231 -13 q 38 350 47 158 l 290 362 q 324 213 299 250 q 429 177 350 177 q 544 220 520 177 q 568 337 568 263 l 568 442 l 379 442 l 379 631 l 568 631 l 568 667 q 537 794 568 755 q 429 833 506 833 q 324 794 350 833 q 290 643 298 754 l 38 655 q 138 936 47 850 q 428 1023 230 1023 q 722 939 622 1023 q 821 693 821 856 l 821 312 q 722 69 821 152 q 429 -13 622 -13 z "},"Ю":{"ha":884,"x_min":47,"x_max":837,"o":"m 587 -13 q 403 60 466 -13 q 341 261 341 133 l 341 442 l 251 442 l 251 0 l 47 0 l 47 1010 l 251 1010 l 251 631 l 341 631 l 341 744 q 404 949 341 875 q 588 1023 467 1023 q 774 949 711 1023 q 837 744 837 875 l 837 261 q 774 60 837 133 q 587 -13 711 -13 m 587 177 q 623 199 615 177 q 631 261 631 222 l 631 744 q 623 809 631 784 q 587 833 615 833 q 551 809 559 833 q 543 744 543 784 l 543 261 q 551 199 543 222 q 587 177 559 177 z "},"Я":{"ha":884,"x_min":39,"x_max":821,"o":"m 442 543 l 568 543 l 568 821 l 442 821 q 343 798 371 821 q 316 715 316 775 l 316 649 q 343 566 316 588 q 442 543 371 543 m 568 354 l 489 354 l 303 0 l 39 0 l 241 379 q 118 476 160 410 q 76 640 76 542 l 76 731 q 160 938 76 866 q 403 1010 244 1010 l 821 1010 l 821 0 l 568 0 l 568 354 z "},"Ґ":{"ha":884,"x_min":126,"x_max":846,"o":"m 126 0 l 126 1010 l 593 1010 l 593 1199 l 846 1199 l 846 821 l 379 821 l 379 0 l 126 0 z "},"a":{"ha":884,"x_min":51,"x_max":859,"o":"m 357 139 q 433 149 396 139 q 505 176 470 159 l 505 299 l 354 299 q 296 282 314 299 q 278 213 278 265 q 297 158 278 177 q 357 139 316 139 m 290 -13 q 116 47 181 -13 q 51 208 51 106 q 126 371 51 316 q 335 426 202 426 l 505 426 l 505 511 q 477 583 505 564 q 395 601 449 601 q 311 579 338 601 q 273 497 284 557 l 69 529 q 171 717 97 664 q 404 770 245 770 q 661 706 577 770 q 745 513 745 643 l 745 240 q 775 180 745 191 q 859 176 804 169 l 859 6 q 688 8 753 -19 q 598 114 624 34 l 561 114 q 449 25 520 63 q 290 -13 378 -13 z "},"à":{"ha":884,"x_min":51,"x_max":859,"o":"m 51 0 m 357 139 q 433 149 396 139 q 505 176 470 159 l 505 299 l 354 299 q 296 282 314 299 q 278 213 278 265 q 297 158 278 177 q 357 139 316 139 m 290 -13 q 116 47 181 -13 q 51 208 51 106 q 126 371 51 316 q 335 426 202 426 l 505 426 l 505 511 q 477 583 505 564 q 395 601 449 601 q 311 579 338 601 q 273 497 284 557 l 69 529 q 171 717 97 664 q 404 770 245 770 q 661 706 577 770 q 745 513 745 643 l 745 240 q 775 180 745 191 q 859 176 804 169 l 859 6 q 688 8 753 -19 q 598 114 624 34 l 561 114 q 449 25 520 63 q 290 -13 378 -13 m 405 884 l 121 1136 l 437 1136 l 571 884 l 405 884 z "},"á":{"ha":884,"x_min":51,"x_max":859,"o":"m 51 0 m 357 139 q 433 149 396 139 q 505 176 470 159 l 505 299 l 354 299 q 296 282 314 299 q 278 213 278 265 q 297 158 278 177 q 357 139 316 139 m 290 -13 q 116 47 181 -13 q 51 208 51 106 q 126 371 51 316 q 335 426 202 426 l 505 426 l 505 511 q 477 583 505 564 q 395 601 449 601 q 311 579 338 601 q 273 497 284 557 l 69 529 q 171 717 97 664 q 404 770 245 770 q 661 706 577 770 q 745 513 745 643 l 745 240 q 775 180 745 191 q 859 176 804 169 l 859 6 q 688 8 753 -19 q 598 114 624 34 l 561 114 q 449 25 520 63 q 290 -13 378 -13 m 260 884 l 394 1136 l 710 1136 l 426 884 l 260 884 z "},"â":{"ha":884,"x_min":51,"x_max":859,"o":"m 51 0 m 357 139 q 433 149 396 139 q 505 176 470 159 l 505 299 l 354 299 q 296 282 314 299 q 278 213 278 265 q 297 158 278 177 q 357 139 316 139 m 290 -13 q 116 47 181 -13 q 51 208 51 106 q 126 371 51 316 q 335 426 202 426 l 505 426 l 505 511 q 477 583 505 564 q 395 601 449 601 q 311 579 338 601 q 273 497 284 557 l 69 529 q 171 717 97 664 q 404 770 245 770 q 661 706 577 770 q 745 513 745 643 l 745 240 q 775 180 745 191 q 859 176 804 169 l 859 6 q 688 8 753 -19 q 598 114 624 34 l 561 114 q 449 25 520 63 q 290 -13 378 -13 m 178 864 l 100 970 l 332 1170 l 524 1170 l 759 970 l 682 865 l 428 997 l 178 864 z "},"ã":{"ha":884,"x_min":51,"x_max":859,"o":"m 51 0 m 357 139 q 433 149 396 139 q 505 176 470 159 l 505 299 l 354 299 q 296 282 314 299 q 278 213 278 265 q 297 158 278 177 q 357 139 316 139 m 290 -13 q 116 47 181 -13 q 51 208 51 106 q 126 371 51 316 q 335 426 202 426 l 505 426 l 505 511 q 477 583 505 564 q 395 601 449 601 q 311 579 338 601 q 273 497 284 557 l 69 529 q 171 717 97 664 q 404 770 245 770 q 661 706 577 770 q 745 513 745 643 l 745 240 q 775 180 745 191 q 859 176 804 169 l 859 6 q 688 8 753 -19 q 598 114 624 34 l 561 114 q 449 25 520 63 q 290 -13 378 -13 m 551 896 q 456 915 489 896 q 403 956 423 934 q 365 997 383 979 q 323 1015 347 1015 q 287 997 303 1015 q 271 920 270 979 l 271 909 l 111 909 l 111 928 q 164 1104 111 1033 q 311 1174 217 1174 q 404 1155 371 1174 q 458 1115 437 1136 q 497 1073 480 1092 q 537 1054 515 1054 q 573 1073 557 1054 q 588 1149 590 1091 l 588 1160 l 749 1160 l 749 1141 q 696 967 749 1038 q 551 896 643 896 z "},"ä":{"ha":884,"x_min":51,"x_max":859,"o":"m 51 0 m 357 139 q 433 149 396 139 q 505 176 470 159 l 505 299 l 354 299 q 296 282 314 299 q 278 213 278 265 q 297 158 278 177 q 357 139 316 139 m 290 -13 q 116 47 181 -13 q 51 208 51 106 q 126 371 51 316 q 335 426 202 426 l 505 426 l 505 511 q 477 583 505 564 q 395 601 449 601 q 311 579 338 601 q 273 497 284 557 l 69 529 q 171 717 97 664 q 404 770 245 770 q 661 706 577 770 q 745 513 745 643 l 745 240 q 775 180 745 191 q 859 176 804 169 l 859 6 q 688 8 753 -19 q 598 114 624 34 l 561 114 q 449 25 520 63 q 290 -13 378 -13 m 265 871 q 176 893 211 871 q 141 967 141 914 l 141 986 q 176 1063 141 1040 q 265 1086 211 1086 q 355 1063 321 1086 q 389 986 389 1040 l 389 967 q 354 893 389 914 q 265 871 319 871 m 593 871 q 504 893 539 871 q 470 967 470 914 l 470 986 q 504 1063 470 1040 q 593 1086 539 1086 q 683 1063 649 1086 q 717 986 717 1040 l 717 967 q 682 893 717 914 q 593 871 648 871 z "},"å":{"ha":884,"x_min":51,"x_max":859,"o":"m 51 0 m 357 139 q 433 149 396 139 q 505 176 470 159 l 505 299 l 354 299 q 296 282 314 299 q 278 213 278 265 q 297 158 278 177 q 357 139 316 139 m 290 -13 q 116 47 181 -13 q 51 208 51 106 q 126 371 51 316 q 335 426 202 426 l 505 426 l 505 511 q 477 583 505 564 q 395 601 449 601 q 311 579 338 601 q 273 497 284 557 l 69 529 q 171 717 97 664 q 404 770 245 770 q 661 706 577 770 q 745 513 745 643 l 745 240 q 775 180 745 191 q 859 176 804 169 l 859 6 q 688 8 753 -19 q 598 114 624 34 l 561 114 q 449 25 520 63 q 290 -13 378 -13 m 417 852 q 225 900 298 852 q 152 1048 152 948 l 152 1088 q 225 1239 152 1189 q 417 1288 298 1288 q 609 1239 537 1288 q 682 1088 682 1189 l 682 1048 q 609 900 682 948 q 417 852 535 852 m 417 967 q 484 985 461 967 q 508 1048 508 1004 l 508 1088 q 484 1152 508 1131 q 417 1173 461 1173 q 348 1152 371 1173 q 326 1088 326 1131 l 326 1048 q 348 985 326 1004 q 417 967 371 967 z "},"ā":{"ha":884,"x_min":51,"x_max":859,"o":"m 51 0 m 357 139 q 433 149 396 139 q 505 176 470 159 l 505 299 l 354 299 q 296 282 314 299 q 278 213 278 265 q 297 158 278 177 q 357 139 316 139 m 290 -13 q 116 47 181 -13 q 51 208 51 106 q 126 371 51 316 q 335 426 202 426 l 505 426 l 505 511 q 477 583 505 564 q 395 601 449 601 q 311 579 338 601 q 273 497 284 557 l 69 529 q 171 717 97 664 q 404 770 245 770 q 661 706 577 770 q 745 513 745 643 l 745 240 q 775 180 745 191 q 859 176 804 169 l 859 6 q 688 8 753 -19 q 598 114 624 34 l 561 114 q 449 25 520 63 q 290 -13 378 -13 m 133 915 l 133 1105 l 701 1105 l 701 915 l 133 915 z "},"ă":{"ha":884,"x_min":51,"x_max":859,"o":"m 51 0 m 357 139 q 433 149 396 139 q 505 176 470 159 l 505 299 l 354 299 q 296 282 314 299 q 278 213 278 265 q 297 158 278 177 q 357 139 316 139 m 290 -13 q 116 47 181 -13 q 51 208 51 106 q 126 371 51 316 q 335 426 202 426 l 505 426 l 505 511 q 477 583 505 564 q 395 601 449 601 q 311 579 338 601 q 273 497 284 557 l 69 529 q 171 717 97 664 q 404 770 245 770 q 661 706 577 770 q 745 513 745 643 l 745 240 q 775 180 745 191 q 859 176 804 169 l 859 6 q 688 8 753 -19 q 598 114 624 34 l 561 114 q 449 25 520 63 q 290 -13 378 -13 m 417 875 q 164 949 246 875 q 80 1178 81 1024 l 282 1178 q 313 1059 283 1092 q 417 1025 343 1025 q 520 1059 490 1025 q 552 1178 551 1092 l 754 1178 q 670 949 753 1024 q 417 875 587 875 z "},"ą":{"ha":884,"x_min":51,"x_max":922,"o":"m 51 0 m 357 139 q 433 149 396 139 q 505 176 470 159 l 505 299 l 354 299 q 296 282 314 299 q 278 213 278 265 q 297 158 278 177 q 357 139 316 139 m 290 -13 q 116 47 181 -13 q 51 208 51 106 q 126 371 51 316 q 335 426 202 426 l 505 426 l 505 511 q 477 583 505 564 q 395 601 449 601 q 311 579 338 601 q 273 497 284 557 l 69 529 q 171 717 97 664 q 404 770 245 770 q 661 706 577 770 q 745 513 745 643 l 745 240 q 775 180 745 191 q 859 176 804 169 l 859 6 q 688 8 753 -19 q 598 114 624 34 l 561 114 q 449 25 520 63 q 290 -13 378 -13 m 759 -283 q 592 -242 653 -283 q 530 -121 530 -202 q 595 20 530 -38 q 735 97 659 77 l 769 29 q 717 -21 726 3 q 707 -67 707 -45 q 729 -116 707 -100 q 802 -131 751 -131 q 855 -128 824 -131 q 922 -119 885 -125 l 922 -265 q 835 -278 876 -274 q 759 -283 794 -283 z "},"ǻ":{"ha":884,"x_min":51,"x_max":859,"o":"m 51 0 m 357 139 q 433 149 396 139 q 505 176 470 159 l 505 299 l 354 299 q 296 282 314 299 q 278 213 278 265 q 297 158 278 177 q 357 139 316 139 m 290 -13 q 116 47 181 -13 q 51 208 51 106 q 126 371 51 316 q 335 426 202 426 l 505 426 l 505 511 q 477 583 505 564 q 395 601 449 601 q 311 579 338 601 q 273 497 284 557 l 69 529 q 171 717 97 664 q 404 770 245 770 q 661 706 577 770 q 745 513 745 643 l 745 240 q 775 180 745 191 q 859 176 804 169 l 859 6 q 688 8 753 -19 q 598 114 624 34 l 561 114 q 449 25 520 63 q 290 -13 378 -13 m 417 852 q 225 900 298 852 q 152 1048 152 948 l 152 1088 q 225 1239 152 1189 q 417 1288 298 1288 q 609 1239 537 1288 q 682 1088 682 1189 l 682 1048 q 609 900 682 948 q 417 852 535 852 m 417 967 q 484 985 461 967 q 508 1048 508 1004 l 508 1088 q 484 1152 508 1131 q 417 1173 461 1173 q 348 1152 371 1173 q 326 1088 326 1131 l 326 1048 q 348 985 326 1004 q 417 967 371 967 m 311 1263 l 444 1515 l 760 1515 l 476 1263 l 311 1263 z "},"b":{"ha":884,"x_min":76,"x_max":808,"o":"m 433 -8 q 251 17 342 -8 q 76 88 159 42 l 76 1010 l 328 1010 l 328 619 l 366 619 q 455 731 395 692 q 595 770 514 770 q 750 701 692 770 q 808 518 808 633 l 808 277 q 712 65 808 138 q 433 -8 616 -8 m 447 168 q 528 193 500 168 q 556 278 556 217 l 556 468 q 531 554 556 527 q 467 581 506 581 q 398 565 432 581 q 328 518 365 549 l 328 199 q 388 176 360 183 q 447 168 415 168 z "},"":{"ha":884,"x_min":76,"x_max":808,"o":"m 433 -8 q 251 17 342 -8 q 76 88 159 42 l 76 1010 l 328 1010 l 328 619 l 366 619 q 455 731 395 692 q 595 770 514 770 q 750 701 692 770 q 808 518 808 633 l 808 277 q 712 65 808 138 q 433 -8 616 -8 m 447 168 q 528 193 500 168 q 556 278 556 217 l 556 468 q 531 554 556 527 q 467 581 506 581 q 398 565 432 581 q 328 518 365 549 l 328 199 q 388 176 360 183 q 447 168 415 168 z "},"c":{"ha":884,"x_min":76,"x_max":809,"o":"m 453 -13 q 173 64 270 -13 q 76 287 76 141 l 76 476 q 174 693 76 616 q 452 770 271 770 q 708 695 626 770 q 809 485 790 620 l 566 465 q 533 564 559 537 q 444 592 506 592 q 354 563 380 592 q 328 458 328 533 l 328 299 q 355 194 328 223 q 447 164 381 164 q 535 187 509 164 q 566 268 561 210 l 809 247 q 726 55 801 122 q 453 -13 652 -13 z "},"ç":{"ha":884,"x_min":76,"x_max":809,"o":"m 76 0 m 453 -13 q 173 64 270 -13 q 76 287 76 141 l 76 476 q 174 693 76 616 q 452 770 271 770 q 708 695 626 770 q 809 485 790 620 l 566 465 q 533 564 559 537 q 444 592 506 592 q 354 563 380 592 q 328 458 328 533 l 328 299 q 355 194 328 223 q 447 164 381 164 q 535 187 509 164 q 566 268 561 210 l 809 247 q 726 55 801 122 q 453 -13 652 -13 m 462 0 l 487 53 q 664 8 596 43 q 732 -111 732 -27 q 648 -246 732 -206 q 460 -285 563 -285 q 261 -246 338 -285 q 178 -114 184 -206 l 390 -101 q 406 -134 393 -125 q 449 -144 419 -144 q 501 -131 484 -144 q 518 -74 518 -117 q 506 -26 518 -43 q 462 0 495 -9 z "},"ć":{"ha":884,"x_min":76,"x_max":809,"o":"m 76 0 m 453 -13 q 173 64 270 -13 q 76 287 76 141 l 76 476 q 174 693 76 616 q 452 770 271 770 q 708 695 626 770 q 809 485 790 620 l 566 465 q 533 564 559 537 q 444 592 506 592 q 354 563 380 592 q 328 458 328 533 l 328 299 q 355 194 328 223 q 447 164 381 164 q 535 187 509 164 q 566 268 561 210 l 809 247 q 726 55 801 122 q 453 -13 652 -13 m 331 884 l 465 1136 l 780 1136 l 496 884 l 331 884 z "},"ĉ":{"ha":884,"x_min":76,"x_max":809,"o":"m 76 0 m 198 864 l 120 970 l 352 1170 l 544 1170 l 779 970 l 702 865 l 448 997 l 198 864 m 453 -13 q 173 64 270 -13 q 76 287 76 141 l 76 476 q 174 693 76 616 q 452 770 271 770 q 708 695 626 770 q 809 485 790 620 l 566 465 q 533 564 559 537 q 444 592 506 592 q 354 563 380 592 q 328 458 328 533 l 328 299 q 355 194 328 223 q 447 164 381 164 q 535 187 509 164 q 566 268 561 210 l 809 247 q 726 55 801 122 q 453 -13 652 -13 z "},"ċ":{"ha":884,"x_min":76,"x_max":809,"o":"m 76 0 m 453 -13 q 173 64 270 -13 q 76 287 76 141 l 76 476 q 174 693 76 616 q 452 770 271 770 q 708 695 626 770 q 809 485 790 620 l 566 465 q 533 564 559 537 q 444 592 506 592 q 354 563 380 592 q 328 458 328 533 l 328 299 q 355 194 328 223 q 447 164 381 164 q 535 187 509 164 q 566 268 561 210 l 809 247 q 726 55 801 122 q 453 -13 652 -13 m 449 871 q 333 893 378 871 q 288 967 288 914 l 288 986 q 333 1063 288 1040 q 449 1086 378 1086 q 566 1063 521 1086 q 611 986 611 1040 l 611 967 q 566 893 611 914 q 449 871 520 871 z "},"č":{"ha":884,"x_min":76,"x_max":809,"o":"m 76 0 m 355 889 l 120 1090 l 197 1194 l 451 1062 l 701 1196 l 779 1090 l 547 889 l 355 889 m 453 -13 q 173 64 270 -13 q 76 287 76 141 l 76 476 q 174 693 76 616 q 452 770 271 770 q 708 695 626 770 q 809 485 790 620 l 566 465 q 533 564 559 537 q 444 592 506 592 q 354 563 380 592 q 328 458 328 533 l 328 299 q 355 194 328 223 q 447 164 381 164 q 535 187 509 164 q 566 268 561 210 l 809 247 q 726 55 801 122 q 453 -13 652 -13 z "},"d":{"ha":884,"x_min":76,"x_max":808,"o":"m 417 177 q 485 193 452 177 q 556 240 519 208 l 556 558 q 499 581 529 572 q 437 590 468 590 q 355 563 383 590 q 328 480 328 535 l 328 289 q 353 204 328 231 q 417 177 378 177 m 518 139 q 429 27 489 67 q 289 -13 369 -13 q 130 62 184 -13 q 76 240 76 138 l 76 481 q 159 689 76 614 q 389 765 242 765 q 478 758 436 765 q 556 736 520 750 l 556 1010 l 808 1010 l 808 0 l 556 0 l 556 139 l 518 139 z "},"ď":{"ha":884,"x_min":76,"x_max":1255,"o":"m 76 0 m 879 890 l 943 1263 l 1255 1263 l 1020 890 l 879 890 m 417 177 q 485 193 452 177 q 556 240 519 208 l 556 558 q 499 581 529 572 q 437 590 468 590 q 355 563 383 590 q 328 480 328 535 l 328 289 q 353 204 328 231 q 417 177 378 177 m 518 139 q 429 27 489 67 q 289 -13 369 -13 q 130 62 184 -13 q 76 240 76 138 l 76 481 q 159 689 76 614 q 389 765 242 765 q 478 758 436 765 q 556 736 520 750 l 556 1010 l 808 1010 l 808 0 l 556 0 l 556 139 l 518 139 z "},"e":{"ha":884,"x_min":76,"x_max":826,"o":"m 826 179 q 694 28 775 69 q 447 -13 614 -13 q 183 59 290 -13 q 76 278 76 131 l 76 479 q 173 693 76 615 q 443 770 270 770 q 711 693 615 770 q 808 476 808 615 l 808 328 l 328 328 l 328 260 q 357 176 328 207 q 455 145 385 145 q 549 162 509 145 q 619 234 588 179 l 826 179 m 328 504 l 328 455 l 556 455 l 556 492 q 533 591 556 563 q 442 619 510 619 q 351 593 374 619 q 328 504 328 567 z "},"è":{"ha":884,"x_min":76,"x_max":826,"o":"m 76 0 m 424 884 l 140 1136 l 456 1136 l 590 884 l 424 884 m 826 179 q 694 28 775 69 q 447 -13 614 -13 q 183 59 290 -13 q 76 278 76 131 l 76 479 q 173 693 76 615 q 443 770 270 770 q 711 693 615 770 q 808 476 808 615 l 808 328 l 328 328 l 328 260 q 357 176 328 207 q 455 145 385 145 q 549 162 509 145 q 619 234 588 179 l 826 179 m 328 504 l 328 455 l 556 455 l 556 492 q 533 591 556 563 q 442 619 510 619 q 351 593 374 619 q 328 504 328 567 z "},"é":{"ha":884,"x_min":76,"x_max":826,"o":"m 76 0 m 304 884 l 438 1136 l 754 1136 l 470 884 l 304 884 m 826 179 q 694 28 775 69 q 447 -13 614 -13 q 183 59 290 -13 q 76 278 76 131 l 76 479 q 173 693 76 615 q 443 770 270 770 q 711 693 615 770 q 808 476 808 615 l 808 328 l 328 328 l 328 260 q 357 176 328 207 q 455 145 385 145 q 549 162 509 145 q 619 234 588 179 l 826 179 m 328 504 l 328 455 l 556 455 l 556 492 q 533 591 556 563 q 442 619 510 619 q 351 593 374 619 q 328 504 328 567 z "},"ê":{"ha":884,"x_min":76,"x_max":826,"o":"m 76 0 m 197 864 l 119 970 l 351 1170 l 543 1170 l 778 970 l 701 865 l 447 997 l 197 864 m 826 179 q 694 28 775 69 q 447 -13 614 -13 q 183 59 290 -13 q 76 278 76 131 l 76 479 q 173 693 76 615 q 443 770 270 770 q 711 693 615 770 q 808 476 808 615 l 808 328 l 328 328 l 328 260 q 357 176 328 207 q 455 145 385 145 q 549 162 509 145 q 619 234 588 179 l 826 179 m 328 504 l 328 455 l 556 455 l 556 492 q 533 591 556 563 q 442 619 510 619 q 351 593 374 619 q 328 504 328 567 z "},"ë":{"ha":884,"x_min":76,"x_max":826,"o":"m 76 0 m 826 179 q 694 28 775 69 q 447 -13 614 -13 q 183 59 290 -13 q 76 278 76 131 l 76 479 q 173 693 76 615 q 443 770 270 770 q 711 693 615 770 q 808 476 808 615 l 808 328 l 328 328 l 328 260 q 357 176 328 207 q 455 145 385 145 q 549 162 509 145 q 619 234 588 179 l 826 179 m 328 504 l 328 455 l 556 455 l 556 492 q 533 591 556 563 q 442 619 510 619 q 351 593 374 619 q 328 504 328 567 m 284 871 q 195 893 230 871 q 160 967 160 914 l 160 986 q 195 1063 160 1040 q 284 1086 230 1086 q 374 1063 340 1086 q 408 986 408 1040 l 408 967 q 373 893 408 914 q 284 871 338 871 m 612 871 q 523 893 558 871 q 489 967 489 914 l 489 986 q 523 1063 489 1040 q 612 1086 558 1086 q 702 1063 668 1086 q 736 986 736 1040 l 736 967 q 701 893 736 914 q 612 871 667 871 z "},"ē":{"ha":884,"x_min":76,"x_max":826,"o":"m 76 0 m 826 179 q 694 28 775 69 q 447 -13 614 -13 q 183 59 290 -13 q 76 278 76 131 l 76 479 q 173 693 76 615 q 443 770 270 770 q 711 693 615 770 q 808 476 808 615 l 808 328 l 328 328 l 328 260 q 357 176 328 207 q 455 145 385 145 q 549 162 509 145 q 619 234 588 179 l 826 179 m 328 504 l 328 455 l 556 455 l 556 492 q 533 591 556 563 q 442 619 510 619 q 351 593 374 619 q 328 504 328 567 m 164 915 l 164 1105 l 732 1105 l 732 915 l 164 915 z "},"ĕ":{"ha":884,"x_min":76,"x_max":826,"o":"m 76 0 m 826 179 q 694 28 775 69 q 447 -13 614 -13 q 183 59 290 -13 q 76 278 76 131 l 76 479 q 173 693 76 615 q 443 770 270 770 q 711 693 615 770 q 808 476 808 615 l 808 328 l 328 328 l 328 260 q 357 176 328 207 q 455 145 385 145 q 549 162 509 145 q 619 234 588 179 l 826 179 m 328 504 l 328 455 l 556 455 l 556 492 q 533 591 556 563 q 442 619 510 619 q 351 593 374 619 q 328 504 328 567 m 436 875 q 182 949 265 875 q 98 1178 100 1024 l 301 1178 q 332 1059 302 1092 q 436 1025 362 1025 q 539 1059 509 1025 q 571 1178 569 1092 l 773 1178 q 689 949 771 1024 q 436 875 606 875 z "},"ė":{"ha":884,"x_min":76,"x_max":826,"o":"m 76 0 m 448 871 q 331 893 376 871 q 287 967 287 914 l 287 986 q 331 1063 287 1040 q 448 1086 376 1086 q 565 1063 520 1086 q 610 986 610 1040 l 610 967 q 564 893 610 914 q 448 871 519 871 m 826 179 q 694 28 775 69 q 447 -13 614 -13 q 183 59 290 -13 q 76 278 76 131 l 76 479 q 173 693 76 615 q 443 770 270 770 q 711 693 615 770 q 808 476 808 615 l 808 328 l 328 328 l 328 260 q 357 176 328 207 q 455 145 385 145 q 549 162 509 145 q 619 234 588 179 l 826 179 m 328 504 l 328 455 l 556 455 l 556 492 q 533 591 556 563 q 442 619 510 619 q 351 593 374 619 q 328 504 328 567 z "},"ę":{"ha":884,"x_min":76,"x_max":826,"o":"m 76 0 m 628 -283 q 460 -242 521 -283 q 399 -121 399 -202 q 463 20 399 -38 q 604 97 528 77 l 638 29 q 585 -21 595 3 q 576 -67 576 -45 q 598 -116 576 -100 q 670 -131 620 -131 q 723 -128 693 -131 q 790 -119 754 -125 l 790 -265 q 704 -278 745 -274 q 628 -283 663 -283 m 826 179 q 694 28 775 69 q 447 -13 614 -13 q 183 59 290 -13 q 76 278 76 131 l 76 479 q 173 693 76 615 q 443 770 270 770 q 711 693 615 770 q 808 476 808 615 l 808 328 l 328 328 l 328 260 q 357 176 328 207 q 455 145 385 145 q 549 162 509 145 q 619 234 588 179 l 826 179 m 328 504 l 328 455 l 556 455 l 556 492 q 533 591 556 563 q 442 619 510 619 q 351 593 374 619 q 328 504 328 567 z "},"ě":{"ha":884,"x_min":76,"x_max":826,"o":"m 76 0 m 354 889 l 119 1090 l 196 1194 l 449 1062 l 699 1196 l 778 1090 l 545 889 l 354 889 m 826 179 q 694 28 775 69 q 447 -13 614 -13 q 183 59 290 -13 q 76 278 76 131 l 76 479 q 173 693 76 615 q 443 770 270 770 q 711 693 615 770 q 808 476 808 615 l 808 328 l 328 328 l 328 260 q 357 176 328 207 q 455 145 385 145 q 549 162 509 145 q 619 234 588 179 l 826 179 m 328 504 l 328 455 l 556 455 l 556 492 q 533 591 556 563 q 442 619 510 619 q 351 593 374 619 q 328 504 328 567 z "},"f":{"ha":884,"x_min":76,"x_max":819,"o":"m 278 0 l 278 581 l 76 581 l 76 758 l 278 758 l 278 797 q 366 989 278 918 q 609 1059 455 1059 q 715 1053 662 1059 q 819 1030 769 1047 l 794 871 q 713 890 751 884 q 641 895 674 895 q 559 864 587 895 q 530 775 530 833 l 530 758 l 808 758 l 808 581 l 530 581 l 530 0 l 278 0 z "},"g":{"ha":884,"x_min":38,"x_max":846,"o":"m 846 -33 q 767 -201 846 -136 q 553 -265 688 -265 l 336 -265 q 112 -213 186 -265 q 38 -88 38 -160 q 78 15 38 -24 q 177 59 119 53 l 177 85 q 98 129 130 100 q 66 218 66 158 q 116 333 66 289 q 239 385 167 376 l 239 410 q 137 463 173 427 q 101 557 101 500 l 101 559 q 186 707 101 657 q 393 758 271 758 l 846 758 l 846 619 l 639 641 l 639 616 q 716 569 686 604 q 746 490 746 534 l 746 485 q 660 342 746 391 q 449 292 574 292 l 338 292 q 273 278 297 292 q 249 232 249 264 q 273 187 249 201 q 338 173 297 173 l 561 173 q 769 122 692 173 q 846 -33 846 71 m 423 405 q 496 427 473 405 q 518 484 518 448 l 518 547 q 496 600 518 578 q 423 621 473 621 q 350 600 372 621 q 328 547 328 578 l 328 484 q 350 427 328 448 q 423 405 371 405 m 338 -126 l 551 -126 q 617 -115 591 -126 q 644 -62 644 -104 q 617 -9 644 -20 q 551 1 591 1 l 275 1 l 275 -57 q 291 -108 275 -90 q 338 -126 307 -126 z "},"ĝ":{"ha":884,"x_min":38,"x_max":846,"o":"m 38 0 m 203 864 l 125 970 l 357 1170 l 549 1170 l 784 970 l 707 865 l 453 997 l 203 864 m 846 -33 q 767 -201 846 -136 q 553 -265 688 -265 l 336 -265 q 112 -213 186 -265 q 38 -88 38 -160 q 78 15 38 -24 q 177 59 119 53 l 177 85 q 98 129 130 100 q 66 218 66 158 q 116 333 66 289 q 239 385 167 376 l 239 410 q 137 463 173 427 q 101 557 101 500 l 101 559 q 186 707 101 657 q 393 758 271 758 l 846 758 l 846 619 l 639 641 l 639 616 q 716 569 686 604 q 746 490 746 534 l 746 485 q 660 342 746 391 q 449 292 574 292 l 338 292 q 273 278 297 292 q 249 232 249 264 q 273 187 249 201 q 338 173 297 173 l 561 173 q 769 122 692 173 q 846 -33 846 71 m 423 405 q 496 427 473 405 q 518 484 518 448 l 518 547 q 496 600 518 578 q 423 621 473 621 q 350 600 372 621 q 328 547 328 578 l 328 484 q 350 427 328 448 q 423 405 371 405 m 338 -126 l 551 -126 q 617 -115 591 -126 q 644 -62 644 -104 q 617 -9 644 -20 q 551 1 591 1 l 275 1 l 275 -57 q 291 -108 275 -90 q 338 -126 307 -126 z "},"ğ":{"ha":884,"x_min":38,"x_max":846,"o":"m 38 0 m 442 875 q 189 949 271 875 q 105 1178 106 1024 l 307 1178 q 338 1059 308 1092 q 442 1025 369 1025 q 545 1059 515 1025 q 577 1178 576 1092 l 779 1178 q 695 949 778 1024 q 442 875 612 875 m 846 -33 q 767 -201 846 -136 q 553 -265 688 -265 l 336 -265 q 112 -213 186 -265 q 38 -88 38 -160 q 78 15 38 -24 q 177 59 119 53 l 177 85 q 98 129 130 100 q 66 218 66 158 q 116 333 66 289 q 239 385 167 376 l 239 410 q 137 463 173 427 q 101 557 101 500 l 101 559 q 186 707 101 657 q 393 758 271 758 l 846 758 l 846 619 l 639 641 l 639 616 q 716 569 686 604 q 746 490 746 534 l 746 485 q 660 342 746 391 q 449 292 574 292 l 338 292 q 273 278 297 292 q 249 232 249 264 q 273 187 249 201 q 338 173 297 173 l 561 173 q 769 122 692 173 q 846 -33 846 71 m 423 405 q 496 427 473 405 q 518 484 518 448 l 518 547 q 496 600 518 578 q 423 621 473 621 q 350 600 372 621 q 328 547 328 578 l 328 484 q 350 427 328 448 q 423 405 371 405 m 338 -126 l 551 -126 q 617 -115 591 -126 q 644 -62 644 -104 q 617 -9 644 -20 q 551 1 591 1 l 275 1 l 275 -57 q 291 -108 275 -90 q 338 -126 307 -126 z "},"ġ":{"ha":884,"x_min":38,"x_max":846,"o":"m 38 0 m 442 871 q 325 893 370 871 q 280 967 280 914 l 280 986 q 325 1063 280 1040 q 442 1086 370 1086 q 559 1063 514 1086 q 604 986 604 1040 l 604 967 q 558 893 604 914 q 442 871 513 871 m 846 -33 q 767 -201 846 -136 q 553 -265 688 -265 l 336 -265 q 112 -213 186 -265 q 38 -88 38 -160 q 78 15 38 -24 q 177 59 119 53 l 177 85 q 98 129 130 100 q 66 218 66 158 q 116 333 66 289 q 239 385 167 376 l 239 410 q 137 463 173 427 q 101 557 101 500 l 101 559 q 186 707 101 657 q 393 758 271 758 l 846 758 l 846 619 l 639 641 l 639 616 q 716 569 686 604 q 746 490 746 534 l 746 485 q 660 342 746 391 q 449 292 574 292 l 338 292 q 273 278 297 292 q 249 232 249 264 q 273 187 249 201 q 338 173 297 173 l 561 173 q 769 122 692 173 q 846 -33 846 71 m 423 405 q 496 427 473 405 q 518 484 518 448 l 518 547 q 496 600 518 578 q 423 621 473 621 q 350 600 372 621 q 328 547 328 578 l 328 484 q 350 427 328 448 q 423 405 371 405 m 338 -126 l 551 -126 q 617 -115 591 -126 q 644 -62 644 -104 q 617 -9 644 -20 q 551 1 591 1 l 275 1 l 275 -57 q 291 -108 275 -90 q 338 -126 307 -126 z "},"ģ":{"ha":884,"x_min":38,"x_max":846,"o":"m 38 0 m 846 -33 q 767 -201 846 -136 q 553 -265 688 -265 l 336 -265 q 112 -213 186 -265 q 38 -88 38 -160 q 78 15 38 -24 q 177 59 119 53 l 177 85 q 98 129 130 100 q 66 218 66 158 q 116 333 66 289 q 239 385 167 376 l 239 410 q 137 463 173 427 q 101 557 101 500 l 101 559 q 186 707 101 657 q 393 758 271 758 l 846 758 l 846 619 l 639 641 l 639 616 q 716 569 686 604 q 746 490 746 534 l 746 485 q 660 342 746 391 q 449 292 574 292 l 338 292 q 273 278 297 292 q 249 232 249 264 q 273 187 249 201 q 338 173 297 173 l 561 173 q 769 122 692 173 q 846 -33 846 71 m 423 405 q 496 427 473 405 q 518 484 518 448 l 518 547 q 496 600 518 578 q 423 621 473 621 q 350 600 372 621 q 328 547 328 578 l 328 484 q 350 427 328 448 q 423 405 371 405 m 338 -126 l 551 -126 q 617 -115 591 -126 q 644 -62 644 -104 q 617 -9 644 -20 q 551 1 591 1 l 275 1 l 275 -57 q 291 -108 275 -90 q 338 -126 307 -126 m 273 884 l 506 1136 l 672 1136 l 588 884 l 273 884 z "},"h":{"ha":884,"x_min":76,"x_max":808,"o":"m 76 0 l 76 1010 l 328 1010 l 328 619 l 366 619 q 458 730 398 691 q 597 770 519 770 q 751 708 693 770 q 808 542 808 645 l 808 0 l 556 0 l 556 472 q 536 553 556 525 q 481 581 516 581 q 403 551 442 581 q 328 472 364 521 l 328 0 l 76 0 z "},"ĥ":{"ha":884,"x_min":-128,"x_max":808,"o":"m 0 0 m 76 0 l 76 1010 l 328 1010 l 328 619 l 366 619 q 458 730 398 691 q 597 770 519 770 q 751 708 693 770 q 808 542 808 645 l 808 0 l 556 0 l 556 472 q 536 553 556 525 q 481 581 516 581 q 403 551 442 581 q 328 472 364 521 l 328 0 l 76 0 m -49 1116 l -128 1222 l 105 1423 l 297 1423 l 532 1222 l 455 1117 l 201 1250 l -49 1116 z "},"i":{"ha":884,"x_min":88,"x_max":795,"o":"m 88 0 m 88 0 l 88 177 l 316 177 l 316 581 l 88 581 l 88 758 l 568 758 l 568 177 l 795 177 l 795 0 l 88 0 m 456 871 q 339 893 384 871 q 294 967 294 914 l 294 986 q 339 1063 294 1040 q 456 1086 384 1086 q 573 1063 528 1086 q 617 986 617 1040 l 617 967 q 572 893 617 914 q 456 871 527 871 z "},"ì":{"ha":884,"x_min":88,"x_max":795,"o":"m 88 0 m 443 884 l 159 1136 l 475 1136 l 609 884 l 443 884 m 88 0 l 88 177 l 316 177 l 316 581 l 88 581 l 88 758 l 568 758 l 568 177 l 795 177 l 795 0 l 88 0 z "},"í":{"ha":884,"x_min":88,"x_max":795,"o":"m 88 0 m 273 884 l 407 1136 l 722 1136 l 438 884 l 273 884 m 88 0 l 88 177 l 316 177 l 316 581 l 88 581 l 88 758 l 568 758 l 568 177 l 795 177 l 795 0 l 88 0 z "},"î":{"ha":884,"x_min":88,"x_max":795,"o":"m 88 0 m 191 864 l 112 970 l 345 1170 l 537 1170 l 771 970 l 694 865 l 441 997 l 191 864 m 88 0 l 88 177 l 316 177 l 316 581 l 88 581 l 88 758 l 568 758 l 568 177 l 795 177 l 795 0 l 88 0 z "},"ï":{"ha":884,"x_min":88,"x_max":795,"o":"m 88 0 m 88 0 l 88 177 l 316 177 l 316 581 l 88 581 l 88 758 l 568 758 l 568 177 l 795 177 l 795 0 l 88 0 m 278 871 q 189 893 223 871 q 154 967 154 914 l 154 986 q 189 1063 154 1040 q 278 1086 223 1086 q 367 1063 333 1086 q 402 986 402 1040 l 402 967 q 367 893 402 914 q 278 871 332 871 m 606 871 q 517 893 552 871 q 482 967 482 914 l 482 986 q 517 1063 482 1040 q 606 1086 552 1086 q 696 1063 662 1086 q 730 986 730 1040 l 730 967 q 695 893 730 914 q 606 871 660 871 z "},"ĩ":{"ha":884,"x_min":88,"x_max":795,"o":"m 88 0 m 88 0 l 88 177 l 316 177 l 316 581 l 88 581 l 88 758 l 568 758 l 568 177 l 795 177 l 795 0 l 88 0 m 563 896 q 468 915 501 896 q 415 956 436 934 q 378 997 395 979 q 336 1015 360 1015 q 299 997 316 1015 q 284 920 283 979 l 284 909 l 124 909 l 124 928 q 177 1104 124 1033 q 323 1174 230 1174 q 417 1155 384 1174 q 471 1115 449 1136 q 510 1073 492 1092 q 549 1054 528 1054 q 586 1073 569 1054 q 601 1149 602 1091 l 601 1160 l 761 1160 l 761 1141 q 708 967 761 1038 q 563 896 655 896 z "},"ī":{"ha":884,"x_min":88,"x_max":795,"o":"m 88 0 m 88 0 l 88 177 l 316 177 l 316 581 l 88 581 l 88 758 l 568 758 l 568 177 l 795 177 l 795 0 l 88 0 m 158 915 l 158 1105 l 726 1105 l 726 915 l 158 915 z "},"ĭ":{"ha":884,"x_min":88,"x_max":795,"o":"m 88 0 m 88 0 l 88 177 l 316 177 l 316 581 l 88 581 l 88 758 l 568 758 l 568 177 l 795 177 l 795 0 l 88 0 m 442 875 q 189 949 271 875 q 105 1178 106 1024 l 307 1178 q 338 1059 308 1092 q 442 1025 369 1025 q 545 1059 515 1025 q 577 1178 576 1092 l 779 1178 q 695 949 778 1024 q 442 875 612 875 z "},"į":{"ha":884,"x_min":88,"x_max":795,"o":"m 88 0 m 456 871 q 339 893 384 871 q 294 967 294 914 l 294 986 q 339 1063 294 1040 q 456 1086 384 1086 q 573 1063 528 1086 q 617 986 617 1040 l 617 967 q 572 893 617 914 q 456 871 527 871 m 88 0 l 88 177 l 316 177 l 316 581 l 88 581 l 88 758 l 568 758 l 568 177 l 795 177 l 795 0 l 88 0 m 525 -283 q 358 -242 419 -283 q 297 -121 297 -202 q 361 20 297 -38 q 501 97 426 77 l 535 29 q 483 -21 492 3 q 473 -67 473 -45 q 496 -116 473 -100 q 568 -131 518 -131 q 621 -128 591 -131 q 688 -119 652 -125 l 688 -265 q 602 -278 643 -274 q 525 -283 561 -283 z "},"j":{"ha":884,"x_min":64,"x_max":705,"o":"m 64 0 m 301 -265 q 181 -259 241 -265 q 64 -236 120 -254 l 90 -77 q 184 -97 140 -92 q 268 -101 229 -101 q 386 -73 343 -101 q 429 19 429 -45 l 429 581 l 115 581 l 115 758 l 682 758 l 682 -3 q 580 -195 682 -125 q 301 -265 479 -265 m 543 871 q 426 893 471 871 q 381 967 381 914 l 381 986 q 426 1063 381 1040 q 543 1086 471 1086 q 660 1063 615 1086 q 705 986 705 1040 l 705 967 q 659 893 705 914 q 543 871 614 871 z "},"ĵ":{"ha":884,"x_min":64,"x_max":841,"o":"m 64 0 m 301 -265 q 181 -259 241 -265 q 64 -236 120 -254 l 90 -77 q 184 -97 140 -92 q 268 -101 229 -101 q 386 -73 343 -101 q 429 19 429 -45 l 429 581 l 115 581 l 115 758 l 682 758 l 682 -3 q 580 -195 682 -125 q 301 -265 479 -265 m 260 864 l 182 970 l 414 1170 l 606 1170 l 841 970 l 764 865 l 510 997 l 260 864 z "},"k":{"ha":884,"x_min":88,"x_max":840,"o":"m 341 309 l 341 0 l 88 0 l 88 1010 l 341 1010 l 341 473 l 388 473 l 581 758 l 840 758 l 597 417 l 836 0 l 568 0 l 388 309 l 341 309 z "},"ķ":{"ha":884,"x_min":88,"x_max":840,"o":"m 88 0 m 341 309 l 341 0 l 88 0 l 88 1010 l 341 1010 l 341 473 l 388 473 l 581 758 l 840 758 l 597 417 l 836 0 l 568 0 l 388 309 l 341 309 m 264 -379 l 347 -126 l 663 -126 l 429 -379 l 264 -379 z "},"l":{"ha":884,"x_min":101,"x_max":821,"o":"m 101 0 l 101 177 l 341 177 l 341 833 l 101 833 l 101 1010 l 593 1010 l 593 177 l 821 177 l 821 0 l 101 0 z "},"ĺ":{"ha":884,"x_min":101,"x_max":821,"o":"m 101 0 m 266 1136 l 400 1389 l 716 1389 l 432 1136 l 266 1136 m 101 0 l 101 177 l 341 177 l 341 833 l 101 833 l 101 1010 l 593 1010 l 593 177 l 821 177 l 821 0 l 101 0 z "},"ļ":{"ha":884,"x_min":101,"x_max":821,"o":"m 101 0 m 101 0 l 101 177 l 341 177 l 341 833 l 101 833 l 101 1010 l 593 1010 l 593 177 l 821 177 l 821 0 l 101 0 m 216 -379 l 299 -126 l 615 -126 l 381 -379 l 216 -379 z "},"ľ":{"ha":884,"x_min":101,"x_max":1066,"o":"m 101 0 m 689 890 l 754 1263 l 1066 1263 l 831 890 l 689 890 m 101 0 l 101 177 l 341 177 l 341 833 l 101 833 l 101 1010 l 593 1010 l 593 177 l 821 177 l 821 0 l 101 0 z "},"m":{"ha":884,"x_min":47,"x_max":837,"o":"m 251 535 l 251 0 l 47 0 l 47 758 l 249 758 l 249 657 l 288 657 q 344 737 312 710 q 418 764 376 764 q 491 737 458 764 q 535 657 523 711 l 571 657 q 630 737 592 710 q 720 764 668 764 q 806 717 774 764 q 837 592 837 670 l 837 0 l 633 0 l 633 548 q 625 591 633 576 q 605 606 617 606 q 571 588 588 606 q 542 535 554 569 l 542 0 l 342 0 l 342 548 q 335 591 342 576 q 314 606 327 606 q 281 588 298 606 q 251 535 264 569 z "},"n":{"ha":884,"x_min":76,"x_max":808,"o":"m 76 0 l 76 758 l 328 758 l 328 619 l 366 619 q 461 730 396 691 q 610 770 525 770 q 756 710 705 770 q 808 542 808 650 l 808 0 l 556 0 l 556 497 q 536 559 556 538 q 481 581 516 581 q 400 560 442 581 q 328 497 359 539 l 328 0 l 76 0 z "},"ñ":{"ha":884,"x_min":76,"x_max":808,"o":"m 76 0 m 588 896 q 494 915 527 896 q 441 956 461 934 q 403 997 420 979 q 361 1015 385 1015 q 324 997 341 1015 q 309 920 308 979 l 309 909 l 149 909 l 149 928 q 202 1104 149 1033 q 348 1174 255 1174 q 442 1155 409 1174 q 496 1115 475 1136 q 535 1073 518 1092 q 574 1054 553 1054 q 611 1073 595 1054 q 626 1149 628 1091 l 626 1160 l 787 1160 l 787 1141 q 734 967 787 1038 q 588 896 681 896 m 76 0 l 76 758 l 328 758 l 328 619 l 366 619 q 461 730 396 691 q 610 770 525 770 q 756 710 705 770 q 808 542 808 650 l 808 0 l 556 0 l 556 497 q 536 559 556 538 q 481 581 516 581 q 400 560 442 581 q 328 497 359 539 l 328 0 l 76 0 z "},"ń":{"ha":884,"x_min":76,"x_max":808,"o":"m 76 0 m 298 884 l 432 1136 l 747 1136 l 463 884 l 298 884 m 76 0 l 76 758 l 328 758 l 328 619 l 366 619 q 461 730 396 691 q 610 770 525 770 q 756 710 705 770 q 808 542 808 650 l 808 0 l 556 0 l 556 497 q 536 559 556 538 q 481 581 516 581 q 400 560 442 581 q 328 497 359 539 l 328 0 l 76 0 z "},"ņ":{"ha":884,"x_min":76,"x_max":808,"o":"m 76 0 m 235 -379 l 318 -126 l 634 -126 l 400 -379 l 235 -379 m 76 0 l 76 758 l 328 758 l 328 619 l 366 619 q 461 730 396 691 q 610 770 525 770 q 756 710 705 770 q 808 542 808 650 l 808 0 l 556 0 l 556 497 q 536 559 556 538 q 481 581 516 581 q 400 560 442 581 q 328 497 359 539 l 328 0 l 76 0 z "},"ň":{"ha":884,"x_min":76,"x_max":808,"o":"m 76 0 m 372 889 l 138 1090 l 215 1194 l 468 1062 l 718 1196 l 797 1090 l 564 889 l 372 889 m 76 0 l 76 758 l 328 758 l 328 619 l 366 619 q 461 730 396 691 q 610 770 525 770 q 756 710 705 770 q 808 542 808 650 l 808 0 l 556 0 l 556 497 q 536 559 556 538 q 481 581 516 581 q 400 560 442 581 q 328 497 359 539 l 328 0 l 76 0 z "},"o":{"ha":884,"x_min":76,"x_max":808,"o":"m 442 -13 q 173 63 270 -13 q 76 274 76 139 l 76 479 q 173 693 76 615 q 443 770 270 770 q 711 691 615 770 q 808 472 808 611 l 808 268 q 711 62 808 136 q 442 -13 614 -13 m 442 164 q 529 193 503 164 q 556 287 556 222 l 556 467 q 529 564 556 534 q 442 593 503 593 q 355 564 381 593 q 328 470 328 534 l 328 293 q 355 194 328 225 q 442 164 381 164 z "},"ò":{"ha":884,"x_min":76,"x_max":808,"o":"m 76 0 m 418 884 l 134 1136 l 449 1136 l 583 884 l 418 884 m 442 -13 q 173 63 270 -13 q 76 274 76 139 l 76 479 q 173 693 76 615 q 443 770 270 770 q 711 691 615 770 q 808 472 808 611 l 808 268 q 711 62 808 136 q 442 -13 614 -13 m 442 164 q 529 193 503 164 q 556 287 556 222 l 556 467 q 529 564 556 534 q 442 593 503 593 q 355 564 381 593 q 328 470 328 534 l 328 293 q 355 194 328 225 q 442 164 381 164 z "},"ó":{"ha":884,"x_min":76,"x_max":808,"o":"m 76 0 m 273 884 l 407 1136 l 722 1136 l 438 884 l 273 884 m 442 -13 q 173 63 270 -13 q 76 274 76 139 l 76 479 q 173 693 76 615 q 443 770 270 770 q 711 691 615 770 q 808 472 808 611 l 808 268 q 711 62 808 136 q 442 -13 614 -13 m 442 164 q 529 193 503 164 q 556 287 556 222 l 556 467 q 529 564 556 534 q 442 593 503 593 q 355 564 381 593 q 328 470 328 534 l 328 293 q 355 194 328 225 q 442 164 381 164 z "},"ô":{"ha":884,"x_min":76,"x_max":808,"o":"m 76 0 m 191 864 l 112 970 l 345 1170 l 537 1170 l 771 970 l 694 865 l 441 997 l 191 864 m 442 -13 q 173 63 270 -13 q 76 274 76 139 l 76 479 q 173 693 76 615 q 443 770 270 770 q 711 691 615 770 q 808 472 808 611 l 808 268 q 711 62 808 136 q 442 -13 614 -13 m 442 164 q 529 193 503 164 q 556 287 556 222 l 556 467 q 529 564 556 534 q 442 593 503 593 q 355 564 381 593 q 328 470 328 534 l 328 293 q 355 194 328 225 q 442 164 381 164 z "},"õ":{"ha":884,"x_min":76,"x_max":808,"o":"m 76 0 m 563 896 q 468 915 501 896 q 415 956 436 934 q 378 997 395 979 q 336 1015 360 1015 q 299 997 316 1015 q 284 920 283 979 l 284 909 l 124 909 l 124 928 q 177 1104 124 1033 q 323 1174 230 1174 q 417 1155 384 1174 q 471 1115 449 1136 q 510 1073 492 1092 q 549 1054 528 1054 q 586 1073 569 1054 q 601 1149 602 1091 l 601 1160 l 761 1160 l 761 1141 q 708 967 761 1038 q 563 896 655 896 m 442 -13 q 173 63 270 -13 q 76 274 76 139 l 76 479 q 173 693 76 615 q 443 770 270 770 q 711 691 615 770 q 808 472 808 611 l 808 268 q 711 62 808 136 q 442 -13 614 -13 m 442 164 q 529 193 503 164 q 556 287 556 222 l 556 467 q 529 564 556 534 q 442 593 503 593 q 355 564 381 593 q 328 470 328 534 l 328 293 q 355 194 328 225 q 442 164 381 164 z "},"ö":{"ha":884,"x_min":76,"x_max":808,"o":"m 76 0 m 278 871 q 189 893 223 871 q 154 967 154 914 l 154 986 q 189 1063 154 1040 q 278 1086 223 1086 q 367 1063 333 1086 q 402 986 402 1040 l 402 967 q 367 893 402 914 q 278 871 332 871 m 606 871 q 517 893 552 871 q 482 967 482 914 l 482 986 q 517 1063 482 1040 q 606 1086 552 1086 q 696 1063 662 1086 q 730 986 730 1040 l 730 967 q 695 893 730 914 q 606 871 660 871 m 442 -13 q 173 63 270 -13 q 76 274 76 139 l 76 479 q 173 693 76 615 q 443 770 270 770 q 711 691 615 770 q 808 472 808 611 l 808 268 q 711 62 808 136 q 442 -13 614 -13 m 442 164 q 529 193 503 164 q 556 287 556 222 l 556 467 q 529 564 556 534 q 442 593 503 593 q 355 564 381 593 q 328 470 328 534 l 328 293 q 355 194 328 225 q 442 164 381 164 z "},"ō":{"ha":884,"x_min":76,"x_max":808,"o":"m 76 0 m 158 915 l 158 1105 l 726 1105 l 726 915 l 158 915 m 442 -13 q 173 63 270 -13 q 76 274 76 139 l 76 479 q 173 693 76 615 q 443 770 270 770 q 711 691 615 770 q 808 472 808 611 l 808 268 q 711 62 808 136 q 442 -13 614 -13 m 442 164 q 529 193 503 164 q 556 287 556 222 l 556 467 q 529 564 556 534 q 442 593 503 593 q 355 564 381 593 q 328 470 328 534 l 328 293 q 355 194 328 225 q 442 164 381 164 z "},"ŏ":{"ha":884,"x_min":76,"x_max":808,"o":"m 76 0 m 455 875 q 201 949 284 875 q 117 1178 119 1024 l 319 1178 q 351 1059 321 1092 q 455 1025 381 1025 q 558 1059 528 1025 q 590 1178 588 1092 l 792 1178 q 708 949 790 1024 q 455 875 625 875 m 442 -13 q 173 63 270 -13 q 76 274 76 139 l 76 479 q 173 693 76 615 q 443 770 270 770 q 711 691 615 770 q 808 472 808 611 l 808 268 q 711 62 808 136 q 442 -13 614 -13 m 442 164 q 529 193 503 164 q 556 287 556 222 l 556 467 q 529 564 556 534 q 442 593 503 593 q 355 564 381 593 q 328 470 328 534 l 328 293 q 355 194 328 225 q 442 164 381 164 z "},"ő":{"ha":884,"x_min":76,"x_max":808,"o":"m 76 0 m 500 884 l 558 1136 l 798 1136 l 628 884 l 500 884 m 210 884 l 268 1136 l 508 1136 l 337 884 l 210 884 m 442 -13 q 173 63 270 -13 q 76 274 76 139 l 76 479 q 173 693 76 615 q 443 770 270 770 q 711 691 615 770 q 808 472 808 611 l 808 268 q 711 62 808 136 q 442 -13 614 -13 m 442 164 q 529 193 503 164 q 556 287 556 222 l 556 467 q 529 564 556 534 q 442 593 503 593 q 355 564 381 593 q 328 470 328 534 l 328 293 q 355 194 328 225 q 442 164 381 164 z "},"p":{"ha":884,"x_min":76,"x_max":808,"o":"m 447 168 q 528 193 500 168 q 556 278 556 218 l 556 468 q 531 554 556 527 q 467 581 506 581 q 398 565 432 581 q 328 518 365 549 l 328 201 q 386 176 360 184 q 447 168 412 168 m 495 -8 q 408 0 452 -8 q 328 21 364 8 l 328 -253 l 76 -253 l 76 758 l 328 758 l 328 619 l 366 619 q 455 729 394 688 q 595 770 516 770 q 751 702 693 770 q 808 518 808 634 l 808 277 q 723 69 808 145 q 495 -8 639 -8 z "},"q":{"ha":884,"x_min":76,"x_max":808,"o":"m 556 -253 l 556 139 l 518 139 q 439 34 494 81 q 289 -13 384 -13 q 130 62 184 -13 q 76 240 76 138 l 76 481 q 173 691 76 617 q 451 765 270 765 q 644 746 538 765 q 808 694 750 727 l 808 -253 l 556 -253 m 417 177 q 485 193 452 177 q 556 240 519 208 l 556 558 q 504 580 533 571 q 437 590 476 590 q 356 565 384 590 q 328 480 328 540 l 328 289 q 353 204 328 231 q 417 177 378 177 z "},"r":{"ha":884,"x_min":101,"x_max":821,"o":"m 101 0 l 101 758 l 354 758 l 354 619 l 391 619 q 480 734 419 698 q 622 770 540 770 q 771 714 721 770 q 821 556 821 658 l 821 414 l 593 414 l 593 484 q 574 554 593 528 q 504 581 554 581 q 420 561 461 581 q 354 492 380 542 l 354 0 l 101 0 z "},"ŕ":{"ha":884,"x_min":101,"x_max":821,"o":"m 101 0 m 304 884 l 438 1136 l 754 1136 l 470 884 l 304 884 m 101 0 l 101 758 l 354 758 l 354 619 l 391 619 q 480 734 419 698 q 622 770 540 770 q 771 714 721 770 q 821 556 821 658 l 821 414 l 593 414 l 593 484 q 574 554 593 528 q 504 581 554 581 q 420 561 461 581 q 354 492 380 542 l 354 0 l 101 0 z "},"ŗ":{"ha":884,"x_min":39,"x_max":821,"o":"m 39 0 m 101 0 l 101 758 l 354 758 l 354 619 l 391 619 q 480 734 419 698 q 622 770 540 770 q 771 714 721 770 q 821 556 821 658 l 821 414 l 593 414 l 593 484 q 574 554 593 528 q 504 581 554 581 q 420 561 461 581 q 354 492 380 542 l 354 0 l 101 0 m 39 -379 l 122 -126 l 438 -126 l 205 -379 l 39 -379 z "},"ř":{"ha":884,"x_min":101,"x_max":821,"o":"m 101 0 m 379 889 l 144 1090 l 221 1194 l 475 1062 l 725 1196 l 803 1090 l 571 889 l 379 889 m 101 0 l 101 758 l 354 758 l 354 619 l 391 619 q 480 734 419 698 q 622 770 540 770 q 771 714 721 770 q 821 556 821 658 l 821 414 l 593 414 l 593 484 q 574 554 593 528 q 504 581 554 581 q 420 561 461 581 q 354 492 380 542 l 354 0 l 101 0 z "},"s":{"ha":884,"x_min":76,"x_max":802,"o":"m 443 -8 q 246 18 345 -8 q 76 90 146 44 l 133 240 q 295 170 208 193 q 449 146 381 146 q 528 164 505 146 q 551 215 551 181 q 524 272 551 254 q 436 297 497 290 q 188 360 274 313 q 101 518 101 407 q 190 702 101 634 q 433 770 279 770 q 597 748 510 770 q 751 687 683 726 l 707 545 q 568 599 635 582 q 443 616 501 616 q 374 599 395 616 q 352 551 352 582 q 391 495 352 510 q 510 470 429 480 q 731 398 660 451 q 802 244 802 346 q 710 60 802 128 q 443 -8 617 -8 z "},"":{"ha":884,"x_min":76,"x_max":802,"o":"m 443 -8 q 246 18 345 -8 q 76 90 146 44 l 133 240 q 295 170 208 193 q 449 146 381 146 q 528 164 505 146 q 551 215 551 181 q 524 272 551 254 q 436 297 497 290 q 188 360 274 313 q 101 518 101 407 q 190 702 101 634 q 433 770 279 770 q 597 748 510 770 q 751 687 683 726 l 707 545 q 568 599 635 582 q 443 616 501 616 q 374 599 395 616 q 352 551 352 582 q 391 495 352 510 q 510 470 429 480 q 731 398 660 451 q 802 244 802 346 q 710 60 802 128 q 443 -8 617 -8 z "},"ś":{"ha":884,"x_min":76,"x_max":802,"o":"m 76 0 m 443 -8 q 246 18 345 -8 q 76 90 146 44 l 133 240 q 295 170 208 193 q 449 146 381 146 q 528 164 505 146 q 551 215 551 181 q 524 272 551 254 q 436 297 497 290 q 188 360 274 313 q 101 518 101 407 q 190 702 101 634 q 433 770 279 770 q 597 748 510 770 q 751 687 683 726 l 707 545 q 568 599 635 582 q 443 616 501 616 q 374 599 395 616 q 352 551 352 582 q 391 495 352 510 q 510 470 429 480 q 731 398 660 451 q 802 244 802 346 q 710 60 802 128 q 443 -8 617 -8 m 283 884 l 417 1136 l 732 1136 l 448 884 l 283 884 z "},"ŝ":{"ha":884,"x_min":76,"x_max":802,"o":"m 76 0 m 188 864 l 110 970 l 342 1170 l 534 1170 l 769 970 l 692 865 l 438 997 l 188 864 m 443 -8 q 246 18 345 -8 q 76 90 146 44 l 133 240 q 295 170 208 193 q 449 146 381 146 q 528 164 505 146 q 551 215 551 181 q 524 272 551 254 q 436 297 497 290 q 188 360 274 313 q 101 518 101 407 q 190 702 101 634 q 433 770 279 770 q 597 748 510 770 q 751 687 683 726 l 707 545 q 568 599 635 582 q 443 616 501 616 q 374 599 395 616 q 352 551 352 582 q 391 495 352 510 q 510 470 429 480 q 731 398 660 451 q 802 244 802 346 q 710 60 802 128 q 443 -8 617 -8 z "},"ş":{"ha":884,"x_min":76,"x_max":802,"o":"m 76 0 m 443 -8 q 246 18 345 -8 q 76 90 146 44 l 133 240 q 295 170 208 193 q 449 146 381 146 q 528 164 505 146 q 551 215 551 181 q 524 272 551 254 q 436 297 497 290 q 188 360 274 313 q 101 518 101 407 q 190 702 101 634 q 433 770 279 770 q 597 748 510 770 q 751 687 683 726 l 707 545 q 568 599 635 582 q 443 616 501 616 q 374 599 395 616 q 352 551 352 582 q 391 495 352 510 q 510 470 429 480 q 731 398 660 451 q 802 244 802 346 q 710 60 802 128 q 443 -8 617 -8 m 389 0 l 414 53 q 591 8 523 43 q 659 -111 659 -27 q 574 -246 659 -206 q 386 -285 490 -285 q 188 -246 265 -285 q 105 -114 111 -206 l 317 -101 q 333 -134 319 -125 q 376 -144 346 -144 q 427 -131 410 -144 q 444 -74 444 -117 q 433 -26 444 -43 q 389 0 422 -9 z "},"š":{"ha":884,"x_min":76,"x_max":802,"o":"m 76 0 m 345 889 l 110 1090 l 187 1194 l 441 1062 l 691 1196 l 769 1090 l 537 889 l 345 889 m 443 -8 q 246 18 345 -8 q 76 90 146 44 l 133 240 q 295 170 208 193 q 449 146 381 146 q 528 164 505 146 q 551 215 551 181 q 524 272 551 254 q 436 297 497 290 q 188 360 274 313 q 101 518 101 407 q 190 702 101 634 q 433 770 279 770 q 597 748 510 770 q 751 687 683 726 l 707 545 q 568 599 635 582 q 443 616 501 616 q 374 599 395 616 q 352 551 352 582 q 391 495 352 510 q 510 470 429 480 q 731 398 660 451 q 802 244 802 346 q 710 60 802 128 q 443 -8 617 -8 z "},"ș":{"ha":884,"x_min":76,"x_max":802,"o":"m 76 0 m 443 -8 q 246 18 345 -8 q 76 90 146 44 l 133 240 q 295 170 208 193 q 449 146 381 146 q 528 164 505 146 q 551 215 551 181 q 524 272 551 254 q 436 297 497 290 q 188 360 274 313 q 101 518 101 407 q 190 702 101 634 q 433 770 279 770 q 597 748 510 770 q 751 687 683 726 l 707 545 q 568 599 635 582 q 443 616 501 616 q 374 599 395 616 q 352 551 352 582 q 391 495 352 510 q 510 470 429 480 q 731 398 660 451 q 802 244 802 346 q 710 60 802 128 q 443 -8 617 -8 m 222 -379 l 306 -126 l 621 -126 l 388 -379 l 222 -379 z "},"t":{"ha":884,"x_min":76,"x_max":794,"o":"m 581 -14 q 338 58 423 -14 q 253 263 253 130 l 253 581 l 76 581 l 76 758 l 253 758 l 253 1010 l 505 1010 l 505 758 l 783 758 l 783 581 l 505 581 l 505 298 q 536 195 505 226 q 620 164 567 164 q 688 169 649 164 q 769 189 727 173 l 794 18 q 711 -4 769 6 q 581 -14 653 -14 z "},"ţ":{"ha":884,"x_min":76,"x_max":794,"o":"m 76 0 m 581 -14 q 338 58 423 -14 q 253 263 253 130 l 253 581 l 76 581 l 76 758 l 253 758 l 253 1010 l 505 1010 l 505 758 l 783 758 l 783 581 l 505 581 l 505 298 q 536 195 505 226 q 620 164 567 164 q 688 169 649 164 q 769 189 727 173 l 794 18 q 711 -4 769 6 q 581 -14 653 -14 m 458 0 l 484 53 q 660 8 592 43 q 729 -111 729 -27 q 644 -246 729 -206 q 456 -285 559 -285 q 258 -246 335 -285 q 174 -114 181 -206 l 386 -101 q 402 -134 389 -125 q 446 -144 415 -144 q 497 -131 480 -144 q 514 -74 514 -117 q 503 -26 514 -43 q 458 0 491 -9 z "},"ť":{"ha":884,"x_min":76,"x_max":1003,"o":"m 76 0 m 626 890 l 691 1263 l 1003 1263 l 768 890 l 626 890 m 581 -14 q 338 58 423 -14 q 253 263 253 130 l 253 581 l 76 581 l 76 758 l 253 758 l 253 1010 l 505 1010 l 505 758 l 783 758 l 783 581 l 505 581 l 505 298 q 536 195 505 226 q 620 164 567 164 q 688 169 649 164 q 769 189 727 173 l 794 18 q 711 -4 769 6 q 581 -14 653 -14 z "},"ț":{"ha":884,"x_min":76,"x_max":794,"o":"m 76 0 m 581 -14 q 338 58 423 -14 q 253 263 253 130 l 253 581 l 76 581 l 76 758 l 253 758 l 253 1010 l 505 1010 l 505 758 l 783 758 l 783 581 l 505 581 l 505 298 q 536 195 505 226 q 620 164 567 164 q 688 169 649 164 q 769 189 727 173 l 794 18 q 711 -4 769 6 q 581 -14 653 -14 m 273 -379 l 356 -126 l 672 -126 l 438 -379 l 273 -379 z "},"u":{"ha":884,"x_min":76,"x_max":808,"o":"m 287 -13 q 138 45 199 -13 q 76 216 76 102 l 76 758 l 328 758 l 328 285 q 348 205 328 232 q 403 177 367 177 q 481 206 442 177 q 556 285 520 236 l 556 758 l 808 758 l 808 0 l 556 0 l 556 139 l 518 139 q 416 22 484 57 q 287 -13 348 -13 z "},"ù":{"ha":884,"x_min":76,"x_max":808,"o":"m 76 0 m 431 884 l 146 1136 l 462 1136 l 596 884 l 431 884 m 287 -13 q 138 45 199 -13 q 76 216 76 102 l 76 758 l 328 758 l 328 285 q 348 205 328 232 q 403 177 367 177 q 481 206 442 177 q 556 285 520 236 l 556 758 l 808 758 l 808 0 l 556 0 l 556 139 l 518 139 q 416 22 484 57 q 287 -13 348 -13 z "},"ú":{"ha":884,"x_min":76,"x_max":808,"o":"m 76 0 m 336 884 l 470 1136 l 785 1136 l 501 884 l 336 884 m 287 -13 q 138 45 199 -13 q 76 216 76 102 l 76 758 l 328 758 l 328 285 q 348 205 328 232 q 403 177 367 177 q 481 206 442 177 q 556 285 520 236 l 556 758 l 808 758 l 808 0 l 556 0 l 556 139 l 518 139 q 416 22 484 57 q 287 -13 348 -13 z "},"û":{"ha":884,"x_min":76,"x_max":808,"o":"m 76 0 m 203 864 l 125 970 l 357 1170 l 549 1170 l 784 970 l 707 865 l 453 997 l 203 864 m 287 -13 q 138 45 199 -13 q 76 216 76 102 l 76 758 l 328 758 l 328 285 q 348 205 328 232 q 403 177 367 177 q 481 206 442 177 q 556 285 520 236 l 556 758 l 808 758 l 808 0 l 556 0 l 556 139 l 518 139 q 416 22 484 57 q 287 -13 348 -13 z "},"ü":{"ha":884,"x_min":76,"x_max":808,"o":"m 76 0 m 287 -13 q 138 45 199 -13 q 76 216 76 102 l 76 758 l 328 758 l 328 285 q 348 205 328 232 q 403 177 367 177 q 481 206 442 177 q 556 285 520 236 l 556 758 l 808 758 l 808 0 l 556 0 l 556 139 l 518 139 q 416 22 484 57 q 287 -13 348 -13 m 290 871 q 201 893 236 871 q 167 967 167 914 l 167 986 q 201 1063 167 1040 q 290 1086 236 1086 q 380 1063 346 1086 q 414 986 414 1040 l 414 967 q 379 893 414 914 q 290 871 345 871 m 619 871 q 530 893 564 871 q 495 967 495 914 l 495 986 q 530 1063 495 1040 q 619 1086 564 1086 q 708 1063 674 1086 q 742 986 742 1040 l 742 967 q 708 893 742 914 q 619 871 673 871 z "},"ũ":{"ha":884,"x_min":76,"x_max":808,"o":"m 76 0 m 287 -13 q 138 45 199 -13 q 76 216 76 102 l 76 758 l 328 758 l 328 285 q 348 205 328 232 q 403 177 367 177 q 481 206 442 177 q 556 285 520 236 l 556 758 l 808 758 l 808 0 l 556 0 l 556 139 l 518 139 q 416 22 484 57 q 287 -13 348 -13 m 563 896 q 468 915 501 896 q 415 956 436 934 q 378 997 395 979 q 336 1015 360 1015 q 299 997 316 1015 q 284 920 283 979 l 284 909 l 124 909 l 124 928 q 177 1104 124 1033 q 323 1174 230 1174 q 417 1155 384 1174 q 471 1115 449 1136 q 510 1073 492 1092 q 549 1054 528 1054 q 586 1073 569 1054 q 601 1149 602 1091 l 601 1160 l 761 1160 l 761 1141 q 708 967 761 1038 q 563 896 655 896 z "},"ū":{"ha":884,"x_min":76,"x_max":808,"o":"m 76 0 m 287 -13 q 138 45 199 -13 q 76 216 76 102 l 76 758 l 328 758 l 328 285 q 348 205 328 232 q 403 177 367 177 q 481 206 442 177 q 556 285 520 236 l 556 758 l 808 758 l 808 0 l 556 0 l 556 139 l 518 139 q 416 22 484 57 q 287 -13 348 -13 m 158 915 l 158 1105 l 726 1105 l 726 915 l 158 915 z "},"ŭ":{"ha":884,"x_min":76,"x_max":808,"o":"m 76 0 m 287 -13 q 138 45 199 -13 q 76 216 76 102 l 76 758 l 328 758 l 328 285 q 348 205 328 232 q 403 177 367 177 q 481 206 442 177 q 556 285 520 236 l 556 758 l 808 758 l 808 0 l 556 0 l 556 139 l 518 139 q 416 22 484 57 q 287 -13 348 -13 m 455 875 q 201 949 284 875 q 117 1178 119 1024 l 319 1178 q 351 1059 321 1092 q 455 1025 381 1025 q 558 1059 528 1025 q 590 1178 588 1092 l 792 1178 q 708 949 790 1024 q 455 875 625 875 z "},"ů":{"ha":884,"x_min":76,"x_max":808,"o":"m 76 0 m 287 -13 q 138 45 199 -13 q 76 216 76 102 l 76 758 l 328 758 l 328 285 q 348 205 328 232 q 403 177 367 177 q 481 206 442 177 q 556 285 520 236 l 556 758 l 808 758 l 808 0 l 556 0 l 556 139 l 518 139 q 416 22 484 57 q 287 -13 348 -13 m 455 852 q 263 900 336 852 q 189 1048 189 948 l 189 1088 q 263 1239 189 1189 q 455 1288 336 1288 q 647 1239 574 1288 q 720 1088 720 1189 l 720 1048 q 646 900 720 948 q 455 852 573 852 m 455 967 q 522 985 499 967 q 545 1048 545 1004 l 545 1088 q 522 1152 545 1131 q 455 1173 499 1173 q 386 1152 409 1173 q 364 1088 364 1131 l 364 1048 q 386 985 364 1004 q 455 967 409 967 z "},"ű":{"ha":884,"x_min":76,"x_max":808,"o":"m 76 0 m 500 884 l 558 1136 l 798 1136 l 628 884 l 500 884 m 210 884 l 268 1136 l 508 1136 l 337 884 l 210 884 m 287 -13 q 138 45 199 -13 q 76 216 76 102 l 76 758 l 328 758 l 328 285 q 348 205 328 232 q 403 177 367 177 q 481 206 442 177 q 556 285 520 236 l 556 758 l 808 758 l 808 0 l 556 0 l 556 139 l 518 139 q 416 22 484 57 q 287 -13 348 -13 z "},"ų":{"ha":884,"x_min":76,"x_max":878,"o":"m 76 0 m 715 -283 q 547 -242 609 -283 q 486 -121 486 -202 q 551 20 486 -38 q 691 97 615 77 l 725 29 q 672 -21 682 3 q 663 -67 663 -45 q 685 -116 663 -100 q 758 -131 707 -131 q 811 -128 780 -131 q 878 -119 841 -125 l 878 -265 q 791 -278 832 -274 q 715 -283 750 -283 m 287 -13 q 138 45 199 -13 q 76 216 76 102 l 76 758 l 328 758 l 328 285 q 348 205 328 232 q 403 177 367 177 q 481 206 442 177 q 556 285 520 236 l 556 758 l 808 758 l 808 0 l 556 0 l 556 139 l 518 139 q 416 22 484 57 q 287 -13 348 -13 z "},"v":{"ha":884,"x_min":56,"x_max":827,"o":"m 609 0 l 274 0 l 56 758 l 293 758 l 447 196 l 600 758 l 827 758 l 609 0 z "},"w":{"ha":884,"x_min":11,"x_max":872,"o":"m 540 0 l 442 361 l 348 0 l 129 0 l 11 758 l 225 758 l 285 265 l 367 619 l 511 619 l 601 275 l 659 758 l 872 758 l 755 0 l 540 0 z "},"":{"ha":884,"x_min":11,"x_max":872,"o":"m 540 0 l 442 361 l 348 0 l 129 0 l 11 758 l 225 758 l 285 265 l 367 619 l 511 619 l 601 275 l 659 758 l 872 758 l 755 0 l 540 0 z "},"ŵ":{"ha":884,"x_min":11,"x_max":872,"o":"m 11 0 m 203 864 l 125 970 l 357 1170 l 549 1170 l 784 970 l 707 865 l 453 997 l 203 864 m 540 0 l 442 361 l 348 0 l 129 0 l 11 758 l 225 758 l 285 265 l 367 619 l 511 619 l 601 275 l 659 758 l 872 758 l 755 0 l 540 0 z "},"ẁ":{"ha":884,"x_min":11,"x_max":872,"o":"m 11 0 m 418 884 l 134 1136 l 449 1136 l 583 884 l 418 884 m 540 0 l 442 361 l 348 0 l 129 0 l 11 758 l 225 758 l 285 265 l 367 619 l 511 619 l 601 275 l 659 758 l 872 758 l 755 0 l 540 0 z "},"ẃ":{"ha":884,"x_min":11,"x_max":872,"o":"m 11 0 m 336 884 l 470 1136 l 785 1136 l 501 884 l 336 884 m 540 0 l 442 361 l 348 0 l 129 0 l 11 758 l 225 758 l 285 265 l 367 619 l 511 619 l 601 275 l 659 758 l 872 758 l 755 0 l 540 0 z "},"ẅ":{"ha":884,"x_min":11,"x_max":872,"o":"m 11 0 m 290 871 q 201 893 236 871 q 167 967 167 914 l 167 986 q 201 1063 167 1040 q 290 1086 236 1086 q 380 1063 346 1086 q 414 986 414 1040 l 414 967 q 379 893 414 914 q 290 871 345 871 m 619 871 q 530 893 564 871 q 495 967 495 914 l 495 986 q 530 1063 495 1040 q 619 1086 564 1086 q 708 1063 674 1086 q 742 986 742 1040 l 742 967 q 708 893 742 914 q 619 871 673 871 m 540 0 l 442 361 l 348 0 l 129 0 l 11 758 l 225 758 l 285 265 l 367 619 l 511 619 l 601 275 l 659 758 l 872 758 l 755 0 l 540 0 z "},"x":{"ha":884,"x_min":45,"x_max":836,"o":"m 582 0 l 431 223 l 294 0 l 45 0 l 319 386 l 67 758 l 318 758 l 451 563 l 564 758 l 813 758 l 566 395 l 836 0 l 582 0 z "},"y":{"ha":884,"x_min":30,"x_max":852,"o":"m 246 -268 q 154 -264 203 -268 q 47 -253 105 -260 l 59 -76 q 156 -90 114 -85 q 230 -96 198 -96 q 336 -68 303 -96 q 394 43 370 -40 l 396 51 l 236 51 l 30 758 l 287 758 l 439 197 l 606 758 l 852 758 l 619 20 q 486 -205 568 -141 q 246 -268 404 -268 z "},"":{"ha":884,"x_min":30,"x_max":852,"o":"m 246 -268 q 154 -264 203 -268 q 47 -253 105 -260 l 59 -76 q 156 -90 114 -85 q 230 -96 198 -96 q 336 -68 303 -96 q 394 43 370 -40 l 396 51 l 236 51 l 30 758 l 287 758 l 439 197 l 606 758 l 852 758 l 619 20 q 486 -205 568 -141 q 246 -268 404 -268 z "},"ý":{"ha":884,"x_min":30,"x_max":852,"o":"m 30 0 m 246 -268 q 154 -264 203 -268 q 47 -253 105 -260 l 59 -76 q 156 -90 114 -85 q 230 -96 198 -96 q 336 -68 303 -96 q 394 43 370 -40 l 396 51 l 236 51 l 30 758 l 287 758 l 439 197 l 606 758 l 852 758 l 619 20 q 486 -205 568 -141 q 246 -268 404 -268 m 273 884 l 407 1136 l 722 1136 l 438 884 l 273 884 z "},"ÿ":{"ha":884,"x_min":30,"x_max":852,"o":"m 30 0 m 246 -268 q 154 -264 203 -268 q 47 -253 105 -260 l 59 -76 q 156 -90 114 -85 q 230 -96 198 -96 q 336 -68 303 -96 q 394 43 370 -40 l 396 51 l 236 51 l 30 758 l 287 758 l 439 197 l 606 758 l 852 758 l 619 20 q 486 -205 568 -141 q 246 -268 404 -268 m 278 871 q 189 893 223 871 q 154 967 154 914 l 154 986 q 189 1063 154 1040 q 278 1086 223 1086 q 367 1063 333 1086 q 402 986 402 1040 l 402 967 q 367 893 402 914 q 278 871 332 871 m 606 871 q 517 893 552 871 q 482 967 482 914 l 482 986 q 517 1063 482 1040 q 606 1086 552 1086 q 696 1063 662 1086 q 730 986 730 1040 l 730 967 q 695 893 730 914 q 606 871 660 871 z "},"ŷ":{"ha":884,"x_min":30,"x_max":852,"o":"m 30 0 m 246 -268 q 154 -264 203 -268 q 47 -253 105 -260 l 59 -76 q 156 -90 114 -85 q 230 -96 198 -96 q 336 -68 303 -96 q 394 43 370 -40 l 396 51 l 236 51 l 30 758 l 287 758 l 439 197 l 606 758 l 852 758 l 619 20 q 486 -205 568 -141 q 246 -268 404 -268 m 191 864 l 112 970 l 345 1170 l 537 1170 l 771 970 l 694 865 l 441 997 l 191 864 z "},"ỳ":{"ha":884,"x_min":30,"x_max":852,"o":"m 30 0 m 246 -268 q 154 -264 203 -268 q 47 -253 105 -260 l 59 -76 q 156 -90 114 -85 q 230 -96 198 -96 q 336 -68 303 -96 q 394 43 370 -40 l 396 51 l 236 51 l 30 758 l 287 758 l 439 197 l 606 758 l 852 758 l 619 20 q 486 -205 568 -141 q 246 -268 404 -268 m 418 884 l 134 1136 l 449 1136 l 583 884 l 418 884 z "},"z":{"ha":884,"x_min":88,"x_max":795,"o":"m 795 0 l 88 0 l 88 177 l 530 581 l 88 581 l 88 758 l 795 758 l 795 581 l 354 177 l 795 177 l 795 0 z "},"ź":{"ha":884,"x_min":88,"x_max":795,"o":"m 88 0 m 336 884 l 470 1136 l 785 1136 l 501 884 l 336 884 m 795 0 l 88 0 l 88 177 l 530 581 l 88 581 l 88 758 l 795 758 l 795 581 l 354 177 l 795 177 l 795 0 z "},"ż":{"ha":884,"x_min":88,"x_max":795,"o":"m 88 0 m 429 871 q 313 893 357 871 q 268 967 268 914 l 268 986 q 313 1063 268 1040 q 429 1086 357 1086 q 546 1063 501 1086 q 591 986 591 1040 l 591 967 q 545 893 591 914 q 429 871 500 871 m 795 0 l 88 0 l 88 177 l 530 581 l 88 581 l 88 758 l 795 758 l 795 581 l 354 177 l 795 177 l 795 0 z "},"ž":{"ha":884,"x_min":88,"x_max":795,"o":"m 88 0 m 347 889 l 112 1090 l 189 1194 l 443 1062 l 693 1196 l 771 1090 l 539 889 l 347 889 m 795 0 l 88 0 l 88 177 l 530 581 l 88 581 l 88 758 l 795 758 l 795 581 l 354 177 l 795 177 l 795 0 z "},"ª":{"ha":884,"x_min":81,"x_max":854,"o":"m 364 486 q 441 494 403 486 q 510 518 479 503 l 510 622 l 360 622 q 304 608 322 622 q 285 549 285 593 q 304 502 285 518 q 364 486 322 486 m 317 357 q 158 400 235 357 q 81 535 81 442 q 151 682 81 634 q 343 730 221 730 l 510 730 l 510 782 q 484 859 510 840 q 407 879 457 879 q 334 860 360 879 q 292 790 308 842 l 97 818 q 194 977 121 931 q 414 1023 268 1023 q 644 970 563 1023 q 725 783 725 917 l 725 593 q 758 523 725 535 q 854 518 792 510 l 854 374 q 700 368 766 354 q 600 455 634 383 l 568 455 q 467 385 537 413 q 317 357 398 357 z "},"º":{"ha":884,"x_min":120,"x_max":764,"o":"m 442 357 q 213 417 307 357 q 120 601 120 476 l 120 775 q 213 961 120 900 q 443 1023 307 1023 q 671 961 578 1023 q 764 775 764 900 l 764 601 q 671 417 764 476 q 442 357 578 357 m 442 508 q 526 533 503 508 q 549 617 549 559 l 549 770 q 526 846 549 819 q 442 872 503 872 q 358 845 381 872 q 335 768 335 818 l 335 617 q 358 533 335 559 q 442 508 381 508 z "},"ß":{"ha":884,"x_min":51,"x_max":846,"o":"m 578 -8 q 452 13 520 -8 q 338 69 384 33 l 390 210 q 475 155 434 173 q 557 136 515 136 q 612 152 592 136 q 633 198 633 168 q 610 241 633 226 q 491 292 587 256 q 384 367 419 319 q 348 484 348 415 q 396 629 348 572 q 533 703 443 686 q 494 816 530 783 q 410 848 458 848 q 328 814 365 848 q 290 698 290 779 l 290 0 l 51 0 l 51 717 q 144 942 51 864 q 412 1020 237 1020 q 665 928 569 1020 q 761 692 761 836 l 761 596 q 602 578 641 597 q 562 527 562 558 q 590 476 562 495 q 705 422 619 457 q 812 343 778 391 q 846 223 846 295 q 771 56 846 120 q 578 -8 696 -8 z "},"æ":{"ha":884,"x_min":25,"x_max":859,"o":"m 857 192 q 770 40 831 92 q 617 -13 708 -13 q 509 16 556 -13 q 437 101 463 44 l 396 101 q 335 18 380 48 q 227 -13 289 -13 q 79 43 133 -13 q 25 197 25 98 q 88 369 25 313 q 259 426 150 426 l 366 426 l 366 499 q 351 579 366 557 q 303 601 336 601 q 257 579 271 601 q 222 497 242 557 l 44 529 q 130 712 72 654 q 284 770 188 770 q 386 747 343 770 q 451 670 428 725 q 532 746 482 721 q 639 770 581 770 q 796 698 734 770 q 859 476 859 626 l 859 328 l 556 328 l 556 260 q 568 176 556 207 q 612 145 581 145 q 656 165 638 145 q 684 225 674 184 l 857 192 m 556 504 l 556 455 l 682 455 l 682 501 q 667 592 682 566 q 621 619 653 619 q 573 593 590 619 q 556 504 556 567 m 366 176 l 366 299 l 303 299 q 246 280 265 299 q 227 213 227 261 q 241 158 227 177 q 282 139 254 139 q 324 149 304 139 q 366 176 343 159 z "},"ǽ":{"ha":884,"x_min":25,"x_max":859,"o":"m 25 0 m 386 884 l 520 1136 l 836 1136 l 552 884 l 386 884 m 857 192 q 770 40 831 92 q 617 -13 708 -13 q 509 16 556 -13 q 437 101 463 44 l 396 101 q 335 18 380 48 q 227 -13 289 -13 q 79 43 133 -13 q 25 197 25 98 q 88 369 25 313 q 259 426 150 426 l 366 426 l 366 499 q 351 579 366 557 q 303 601 336 601 q 257 579 271 601 q 222 497 242 557 l 44 529 q 130 712 72 654 q 284 770 188 770 q 386 747 343 770 q 451 670 428 725 q 532 746 482 721 q 639 770 581 770 q 796 698 734 770 q 859 476 859 626 l 859 328 l 556 328 l 556 260 q 568 176 556 207 q 612 145 581 145 q 656 165 638 145 q 684 225 674 184 l 857 192 m 556 504 l 556 455 l 682 455 l 682 501 q 667 592 682 566 q 621 619 653 619 q 573 593 590 619 q 556 504 556 567 m 366 176 l 366 299 l 303 299 q 246 280 265 299 q 227 213 227 261 q 241 158 227 177 q 282 139 254 139 q 324 149 304 139 q 366 176 343 159 z "},"ð":{"ha":884,"x_min":63,"x_max":821,"o":"m 442 -13 q 168 62 273 -13 q 63 290 63 136 l 63 356 q 143 557 63 482 q 351 631 223 631 q 481 604 431 631 q 552 538 532 576 l 578 538 q 540 670 571 616 q 456 760 510 723 l 253 669 l 253 795 l 318 824 q 241 849 283 837 q 150 874 198 861 l 309 1037 q 450 992 385 1016 q 567 937 515 967 l 758 1023 l 758 896 l 674 859 q 785 690 750 788 q 821 463 821 592 l 821 298 q 716 62 821 136 q 442 -13 611 -13 m 443 164 q 540 191 511 164 q 568 275 568 218 l 568 355 q 540 429 568 405 q 443 453 511 453 q 347 429 375 453 q 318 355 318 405 l 318 275 q 347 191 318 218 q 443 164 375 164 z "},"ø":{"ha":884,"x_min":63,"x_max":821,"o":"m 290 293 q 294 246 290 266 q 306 208 298 225 l 503 600 q 474 604 490 602 q 442 606 458 606 q 324 570 357 606 q 290 470 290 534 l 290 293 m 442 152 q 560 184 527 152 q 593 293 593 217 l 593 473 q 590 515 593 496 q 577 549 586 534 l 381 157 q 410 153 394 154 q 442 152 426 152 m 442 -13 q 384 -10 414 -13 q 327 -3 354 -8 l 265 -126 l 114 -126 l 197 42 q 99 139 135 77 q 63 274 63 201 l 63 479 q 165 692 63 614 q 443 770 266 770 q 500 768 470 770 q 557 760 530 765 l 619 884 l 770 884 l 686 716 q 785 617 749 681 q 821 479 821 553 l 821 274 q 720 64 821 140 q 442 -13 619 -13 z "},"ǿ":{"ha":884,"x_min":63,"x_max":821,"o":"m 63 0 m 290 293 q 294 246 290 266 q 306 208 298 225 l 503 600 q 474 604 490 602 q 442 606 458 606 q 324 570 357 606 q 290 470 290 534 l 290 293 m 442 152 q 560 184 527 152 q 593 293 593 217 l 593 473 q 590 515 593 496 q 577 549 586 534 l 381 157 q 410 153 394 154 q 442 152 426 152 m 442 -13 q 384 -10 414 -13 q 327 -3 354 -8 l 265 -126 l 114 -126 l 197 42 q 99 139 135 77 q 63 274 63 201 l 63 479 q 165 692 63 614 q 443 770 266 770 q 500 768 470 770 q 557 760 530 765 l 619 884 l 770 884 l 686 716 q 785 617 749 681 q 821 479 821 553 l 821 274 q 720 64 821 140 q 442 -13 619 -13 m 336 884 l 470 1136 l 785 1136 l 501 884 l 336 884 z "},"þ":{"ha":884,"x_min":76,"x_max":808,"o":"m 447 168 q 528 193 500 168 q 556 278 556 218 l 556 468 q 531 554 556 527 q 467 581 506 581 q 398 565 432 581 q 328 518 365 549 l 328 201 q 386 176 360 184 q 447 168 412 168 m 495 -8 q 406 0 448 -8 q 328 21 364 8 l 328 -253 l 76 -253 l 76 1010 l 328 1010 l 328 619 l 366 619 q 454 730 394 691 q 595 770 514 770 q 749 701 691 770 q 808 518 808 631 l 808 277 q 723 69 808 146 q 495 -8 639 -8 z "},"đ":{"ha":884,"x_min":76,"x_max":934,"o":"m 417 177 q 485 193 452 177 q 556 240 519 210 l 556 467 q 491 492 523 484 q 424 501 460 501 q 355 476 381 501 q 328 391 328 451 l 328 289 q 353 204 328 231 q 417 177 378 177 m 518 139 q 439 34 494 81 q 289 -13 384 -13 q 130 62 184 -13 q 76 240 76 138 l 76 393 q 160 600 76 523 q 389 677 245 677 q 478 669 436 677 q 556 648 520 662 l 556 758 l 354 758 l 354 884 l 556 884 l 556 1010 l 808 1010 l 808 884 l 934 884 l 934 758 l 808 758 l 808 0 l 556 0 l 556 139 l 518 139 z "},"ħ":{"ha":884,"x_min":-51,"x_max":808,"o":"m 328 384 l 328 0 l 76 0 l 76 758 l -51 758 l -51 884 l 76 884 l 76 1010 l 328 1010 l 328 884 l 530 884 l 530 758 l 328 758 l 328 530 l 366 530 q 458 641 396 601 q 597 682 520 682 q 749 617 689 682 q 808 453 808 553 l 808 0 l 556 0 l 556 384 q 536 465 556 437 q 481 492 516 492 q 403 463 442 492 q 328 384 364 433 z "},"ı":{"ha":884,"x_min":88,"x_max":795,"o":"m 88 0 l 88 177 l 316 177 l 316 581 l 88 581 l 88 758 l 568 758 l 568 177 l 795 177 l 795 0 l 88 0 z "},"ĳ":{"ha":884,"x_min":29,"x_max":830,"o":"m 178 871 q 71 893 112 871 q 29 967 29 914 l 29 986 q 71 1063 29 1040 q 178 1086 112 1086 q 286 1063 245 1086 q 327 986 327 1040 l 327 967 q 285 893 327 914 q 178 871 242 871 m 681 871 q 573 893 615 871 q 532 967 532 914 l 532 986 q 573 1063 532 1040 q 681 1086 615 1086 q 789 1063 747 1086 q 830 986 830 1040 l 830 967 q 787 893 830 914 q 681 871 745 871 m 303 0 l 76 0 l 76 758 l 303 758 l 303 0 m 489 -265 q 388 -258 438 -265 q 290 -236 337 -251 l 316 -77 q 391 -95 356 -90 q 456 -101 426 -101 q 547 -73 514 -101 q 580 19 580 -45 l 580 581 l 417 581 l 417 758 l 807 758 l 807 -3 q 722 -195 807 -125 q 489 -265 636 -265 z "},"ĸ":{"ha":884,"x_min":88,"x_max":840,"o":"m 88 0 m 341 309 l 341 0 l 88 0 l 88 758 l 341 758 l 341 473 l 388 473 l 581 758 l 840 758 l 597 417 l 836 0 l 568 0 l 388 309 l 341 309 z "},"ŀ":{"ha":884,"x_min":101,"x_max":1052,"o":"m 101 0 m 890 417 q 773 438 818 417 q 729 513 729 460 l 729 532 q 773 609 729 586 q 890 631 818 631 q 1007 609 962 631 q 1052 532 1052 586 l 1052 513 q 1006 438 1052 460 q 890 417 961 417 m 101 0 l 101 177 l 341 177 l 341 833 l 101 833 l 101 1010 l 593 1010 l 593 177 l 821 177 l 821 0 l 101 0 z "},"ł":{"ha":884,"x_min":101,"x_max":821,"o":"m 101 0 l 101 177 l 341 177 l 341 407 l 139 354 l 139 505 l 341 558 l 341 833 l 101 833 l 101 1010 l 593 1010 l 593 626 l 707 657 l 707 505 l 593 475 l 593 177 l 821 177 l 821 0 l 101 0 z "},"ŉ":{"ha":884,"x_min":-43,"x_max":808,"o":"m 0 0 m -43 884 l 91 1136 l 407 1136 l 122 884 l -43 884 m 76 0 l 76 758 l 328 758 l 328 619 l 366 619 q 461 730 396 691 q 610 770 525 770 q 756 710 705 770 q 808 542 808 650 l 808 0 l 556 0 l 556 497 q 536 559 556 538 q 481 581 516 581 q 400 560 442 581 q 328 497 359 539 l 328 0 l 76 0 z "},"ŋ":{"ha":884,"x_min":76,"x_max":808,"o":"m 503 -265 q 415 -257 460 -265 q 330 -236 371 -249 l 355 -77 q 417 -94 388 -87 q 470 -101 446 -101 q 533 -73 510 -101 q 556 19 556 -45 l 556 497 q 536 559 556 538 q 481 581 516 581 q 400 560 442 581 q 328 497 359 539 l 328 0 l 76 0 l 76 758 l 328 758 l 328 619 l 366 619 q 470 735 402 699 q 607 770 539 770 q 754 713 699 770 q 808 542 808 655 l 808 -3 q 715 -203 808 -141 q 503 -265 621 -265 z "},"œ":{"ha":884,"x_min":47,"x_max":848,"o":"m 848 192 q 769 31 827 74 q 616 -13 711 -13 q 510 9 558 -13 q 432 74 462 32 q 364 9 407 30 q 271 -13 322 -13 q 111 45 176 -13 q 47 223 47 102 l 47 529 q 112 711 47 652 q 273 770 177 770 q 364 749 323 770 q 432 683 405 727 q 508 749 461 727 q 612 770 556 770 q 773 711 708 770 q 837 527 837 652 l 837 328 l 542 328 l 542 210 q 554 163 542 181 q 598 145 567 145 q 654 159 629 145 q 684 225 679 173 l 848 192 m 542 554 l 542 455 l 631 455 l 631 543 q 622 602 631 586 q 586 619 614 619 q 551 604 559 619 q 542 554 542 590 m 297 164 q 331 182 321 164 q 341 242 341 201 l 341 524 q 331 575 341 557 q 297 593 321 593 q 263 574 273 593 q 253 520 253 556 l 253 242 q 263 182 253 201 q 297 164 273 164 z "},"ŧ":{"ha":884,"x_min":76,"x_max":794,"o":"m 581 -14 q 338 58 423 -14 q 253 263 253 130 l 253 316 l 101 316 l 101 467 l 253 467 l 253 581 l 76 581 l 76 758 l 253 758 l 253 1010 l 505 1010 l 505 758 l 783 758 l 783 581 l 505 581 l 505 467 l 758 467 l 758 316 l 505 316 l 505 298 q 536 195 505 226 q 620 164 567 164 q 688 169 649 164 q 769 189 727 173 l 794 18 q 711 -4 769 6 q 581 -14 653 -14 z "},"ſ":{"ha":884,"x_min":164,"x_max":832,"o":"m 316 0 l 316 581 l 164 581 l 164 758 l 316 758 l 316 797 q 403 990 316 920 q 646 1059 490 1059 q 741 1052 693 1059 q 832 1030 788 1044 l 807 871 q 739 889 770 883 q 679 895 707 895 q 598 867 628 895 q 568 775 568 840 l 568 0 l 316 0 z "},"ȷ":{"ha":884,"x_min":64,"x_max":682,"o":"m 301 -265 q 181 -259 241 -265 q 64 -236 120 -254 l 90 -77 q 184 -97 140 -92 q 268 -101 229 -101 q 386 -73 343 -101 q 429 19 429 -45 l 429 581 l 115 581 l 115 758 l 682 758 l 682 -3 q 580 -195 682 -125 q 301 -265 479 -265 z "},"":{"ha":884,"x_min":64,"x_max":682,"o":"m 301 -265 q 181 -259 241 -265 q 64 -236 120 -254 l 90 -77 q 184 -97 140 -92 q 268 -101 229 -101 q 386 -73 343 -101 q 429 19 429 -45 l 429 581 l 115 581 l 115 758 l 682 758 l 682 -3 q 580 -195 682 -125 q 301 -265 479 -265 z "},"α":{"ha":884,"x_min":76,"x_max":846,"o":"m 404 178 q 456 195 431 178 q 505 241 481 212 l 505 520 q 454 566 479 548 q 399 583 429 583 q 348 556 369 583 q 328 471 328 529 l 328 280 q 349 200 328 222 q 404 178 370 178 m 593 165 l 556 165 q 455 34 520 80 q 302 -11 389 -11 q 137 57 198 -11 q 76 241 76 125 l 76 492 q 133 693 76 614 q 277 773 189 773 q 390 736 343 773 q 467 621 436 699 l 505 621 l 505 758 l 758 758 l 758 265 q 777 189 758 207 q 846 176 795 170 l 846 6 q 679 18 739 -19 q 593 165 620 56 z "},"ά":{"ha":884,"x_min":76,"x_max":846,"o":"m 76 0 m 404 178 q 456 195 431 178 q 505 241 481 212 l 505 520 q 454 566 479 548 q 399 583 429 583 q 348 556 369 583 q 328 471 328 529 l 328 280 q 349 200 328 222 q 404 178 370 178 m 593 165 l 556 165 q 455 34 520 80 q 302 -11 389 -11 q 137 57 198 -11 q 76 241 76 125 l 76 492 q 133 693 76 614 q 277 773 189 773 q 390 736 343 773 q 467 621 436 699 l 505 621 l 505 758 l 758 758 l 758 265 q 777 189 758 207 q 846 176 795 170 l 846 6 q 679 18 739 -19 q 593 165 620 56 m 412 884 l 470 1136 l 773 1136 l 564 884 l 412 884 z "},"β":{"ha":884,"x_min":76,"x_max":808,"o":"m 442 174 q 518 201 482 174 q 553 304 553 229 l 553 332 q 521 441 553 412 q 429 470 489 470 l 391 470 l 391 606 l 422 606 q 494 628 471 606 q 518 703 518 650 l 518 726 q 494 810 518 787 q 422 833 471 833 q 348 802 369 833 q 328 702 328 770 l 328 210 q 381 184 354 193 q 442 174 408 174 m 495 -13 q 407 -6 448 -13 q 328 13 365 0 l 328 -253 l 76 -253 l 76 723 q 166 944 76 866 q 422 1023 256 1023 q 675 956 582 1023 q 768 774 768 889 l 768 754 q 717 631 768 678 q 567 566 667 583 l 567 529 q 744 460 681 518 q 808 303 808 402 l 808 264 q 725 61 808 135 q 495 -13 641 -13 z "},"γ":{"ha":884,"x_min":30,"x_max":852,"o":"m 593 -253 l 290 -253 l 316 25 l 30 758 l 283 758 l 442 213 l 600 758 l 852 758 l 568 25 l 593 -253 z "},"δ":{"ha":884,"x_min":76,"x_max":808,"o":"m 442 -13 q 171 62 266 -13 q 76 274 76 136 l 76 390 q 116 513 76 462 q 242 601 155 564 q 143 675 172 635 q 114 777 114 715 q 196 954 114 898 q 438 1010 278 1010 l 697 1010 l 697 833 l 438 833 q 378 822 399 833 q 357 777 357 811 q 389 732 357 751 q 528 677 420 713 q 745 561 682 624 q 808 378 808 499 l 808 274 q 713 62 808 136 q 442 -13 617 -13 m 442 164 q 527 190 499 164 q 556 274 556 216 l 556 378 q 527 472 556 441 q 403 539 497 504 q 348 484 369 519 q 328 390 328 448 l 328 274 q 357 190 328 216 q 442 164 386 164 z "},"ε":{"ha":884,"x_min":76,"x_max":831,"o":"m 458 -13 q 170 39 264 -13 q 76 196 76 90 l 76 221 q 125 322 76 279 q 273 371 174 365 l 273 399 q 145 440 192 404 q 98 538 98 476 l 98 568 q 195 723 98 677 q 458 770 292 770 q 713 711 628 770 q 808 518 798 652 l 582 508 q 551 596 576 569 q 458 622 525 622 q 374 605 398 622 q 351 549 351 588 l 351 532 q 376 469 351 485 q 461 453 402 453 l 532 453 l 532 327 l 461 327 q 350 306 372 327 q 328 246 328 285 l 328 234 q 352 171 328 194 q 458 148 375 148 q 577 178 557 148 q 605 264 597 208 l 831 255 q 746 55 821 122 q 458 -13 672 -13 z "},"έ":{"ha":884,"x_min":76,"x_max":831,"o":"m 76 0 m 458 -13 q 170 39 264 -13 q 76 196 76 90 l 76 221 q 125 322 76 279 q 273 371 174 365 l 273 399 q 145 440 192 404 q 98 538 98 476 l 98 568 q 195 723 98 677 q 458 770 292 770 q 713 711 628 770 q 808 518 798 652 l 582 508 q 551 596 576 569 q 458 622 525 622 q 374 605 398 622 q 351 549 351 588 l 351 532 q 376 469 351 485 q 461 453 402 453 l 532 453 l 532 327 l 461 327 q 350 306 372 327 q 328 246 328 285 l 328 234 q 352 171 328 194 q 458 148 375 148 q 577 178 557 148 q 605 264 597 208 l 831 255 q 746 55 821 122 q 458 -13 672 -13 m 348 884 l 407 1136 l 710 1136 l 501 884 l 348 884 z "},"ζ":{"ha":884,"x_min":-10,"x_max":808,"o":"m 505 -253 l 328 -253 l 328 -88 l 499 -88 q 563 -75 539 -88 q 587 -19 587 -62 q 563 42 587 27 q 499 57 539 57 l 417 57 q 160 123 245 57 q 76 324 76 189 q 122 504 76 437 q 265 673 168 571 l 364 783 l 357 802 q 147 815 240 766 q -10 995 54 864 l 115 1082 q 268 952 182 980 q 500 956 354 924 l 754 1051 l 784 828 l 554 798 l 439 624 q 357 489 386 544 q 328 350 328 433 q 350 253 328 285 q 417 221 372 221 l 535 221 q 736 164 664 221 q 808 -9 808 107 q 726 -192 808 -131 q 505 -253 644 -253 z "},"η":{"ha":884,"x_min":76,"x_max":808,"o":"m 556 -253 l 556 497 q 536 559 556 538 q 481 581 516 581 q 400 560 442 581 q 328 497 359 539 l 328 0 l 76 0 l 76 758 l 328 758 l 328 619 l 366 619 q 461 730 396 691 q 610 770 525 770 q 756 710 705 770 q 808 542 808 650 l 808 -253 l 556 -253 z "},"ή":{"ha":884,"x_min":76,"x_max":808,"o":"m 76 0 m 424 884 l 482 1136 l 785 1136 l 577 884 l 424 884 m 556 -253 l 556 497 q 536 559 556 538 q 481 581 516 581 q 400 560 442 581 q 328 497 359 539 l 328 0 l 76 0 l 76 758 l 328 758 l 328 619 l 366 619 q 461 730 396 691 q 610 770 525 770 q 756 710 705 770 q 808 542 808 650 l 808 -253 l 556 -253 z "},"θ":{"ha":884,"x_min":76,"x_max":808,"o":"m 442 -13 q 174 65 273 -13 q 76 274 76 143 l 76 731 q 175 944 76 866 q 443 1023 274 1023 q 710 944 611 1023 q 808 731 808 866 l 808 274 q 710 65 808 143 q 442 -13 611 -13 m 316 722 l 316 587 l 568 587 l 568 726 q 540 815 568 784 q 442 846 513 846 q 343 814 371 846 q 316 722 316 782 m 442 164 q 540 194 513 164 q 568 293 568 225 l 568 436 l 316 436 l 316 293 q 343 194 316 225 q 442 164 371 164 z "},"ι":{"ha":884,"x_min":88,"x_max":819,"o":"m 88 0 m 612 -10 q 378 64 466 -10 q 290 251 290 138 l 290 581 l 88 581 l 88 758 l 543 758 l 543 302 q 574 207 543 237 q 658 177 605 177 q 726 185 696 177 q 782 202 756 193 l 819 30 q 711 0 763 10 q 612 -10 659 -10 z "},"ΐ":{"ha":884,"x_min":34,"x_max":824,"o":"m 34 0 m 317 884 l 375 1136 l 590 1136 l 457 884 l 317 884 m 145 871 q 65 893 96 871 q 34 967 34 914 l 34 986 q 65 1063 34 1040 q 145 1086 96 1086 q 226 1063 196 1086 q 256 986 256 1040 l 256 967 q 225 893 256 914 q 145 871 193 871 m 713 871 q 633 893 664 871 q 602 967 602 914 l 602 986 q 633 1063 602 1040 q 713 1086 664 1086 q 794 1063 764 1086 q 824 986 824 1040 l 824 967 q 793 893 824 914 q 713 871 761 871 m 612 -10 q 378 64 466 -10 q 290 251 290 138 l 290 581 l 88 581 l 88 758 l 543 758 l 543 302 q 574 207 543 237 q 658 177 605 177 q 726 185 696 177 q 782 202 756 193 l 819 30 q 711 0 763 10 q 612 -10 659 -10 z "},"ί":{"ha":884,"x_min":88,"x_max":819,"o":"m 88 0 m 330 884 l 388 1136 l 691 1136 l 482 884 l 330 884 m 612 -10 q 378 64 466 -10 q 290 251 290 138 l 290 581 l 88 581 l 88 758 l 543 758 l 543 302 q 574 207 543 237 q 658 177 605 177 q 726 185 696 177 q 782 202 756 193 l 819 30 q 711 0 763 10 q 612 -10 659 -10 z "},"ϊ":{"ha":884,"x_min":88,"x_max":819,"o":"m 88 0 m 612 -10 q 378 64 466 -10 q 290 251 290 138 l 290 581 l 88 581 l 88 758 l 543 758 l 543 302 q 574 207 543 237 q 658 177 605 177 q 726 185 696 177 q 782 202 756 193 l 819 30 q 711 0 763 10 q 612 -10 659 -10 m 271 871 q 182 893 217 871 q 148 967 148 914 l 148 986 q 182 1063 148 1040 q 271 1086 217 1086 q 361 1063 327 1086 q 395 986 395 1040 l 395 967 q 360 893 395 914 q 271 871 326 871 m 600 871 q 511 893 545 871 q 476 967 476 914 l 476 986 q 511 1063 476 1040 q 600 1086 545 1086 q 689 1063 655 1086 q 723 986 723 1040 l 723 967 q 689 893 723 914 q 600 871 654 871 z "},"κ":{"ha":884,"x_min":88,"x_max":840,"o":"m 341 309 l 341 0 l 88 0 l 88 758 l 341 758 l 341 473 l 388 473 l 581 758 l 840 758 l 597 417 l 836 0 l 568 0 l 388 309 l 341 309 z "},"λ":{"ha":884,"x_min":30,"x_max":852,"o":"m 600 0 l 433 561 l 280 0 l 30 0 l 212 644 l 409 644 l 399 677 q 328 805 371 770 q 199 840 285 840 q 152 838 178 840 q 97 833 126 837 l 72 1010 q 150 1016 112 1014 q 222 1018 188 1018 q 479 959 391 1018 q 612 755 567 900 l 852 0 l 600 0 z "},"μ":{"ha":884,"x_min":76,"x_max":846,"o":"m 341 25 l 354 -253 l 76 -253 l 88 25 l 88 758 l 341 758 l 341 285 q 362 207 341 231 q 414 183 384 183 q 470 198 447 183 q 518 240 494 212 l 518 758 l 770 758 l 770 265 q 785 189 770 207 q 846 176 801 170 l 846 6 q 709 7 759 -14 q 624 101 659 28 l 586 101 q 537 21 569 56 q 447 -13 505 -13 q 384 0 409 -13 q 341 38 359 13 l 341 25 z "},"ν":{"ha":884,"x_min":30,"x_max":852,"o":"m 571 0 l 312 0 l 30 758 l 283 758 l 468 223 q 560 497 527 351 q 602 758 593 644 l 852 758 q 751 354 828 544 q 571 0 674 163 z "},"ξ":{"ha":884,"x_min":3,"x_max":808,"o":"m 808 -9 q 729 -191 808 -130 q 492 -253 650 -253 l 341 -253 l 341 -88 l 486 -88 q 560 -75 533 -88 q 587 -19 587 -62 q 560 42 587 27 q 486 57 533 57 l 391 57 q 169 117 249 57 q 88 287 88 178 l 88 308 q 144 435 88 380 q 312 499 199 490 l 312 528 q 202 564 240 528 q 164 646 164 600 q 205 734 164 699 q 318 778 245 769 l 318 807 q 122 852 199 802 q 3 995 44 902 l 128 1082 q 273 955 193 984 q 487 956 354 927 l 754 1051 l 784 828 l 506 793 l 470 773 q 430 730 443 758 q 417 664 417 703 q 434 609 417 625 q 479 593 452 593 l 694 593 l 694 429 l 468 429 q 371 400 400 429 q 341 327 341 370 l 341 306 q 371 244 341 268 q 467 221 402 221 l 523 221 q 737 164 665 221 q 808 -9 808 106 z "},"ο":{"ha":884,"x_min":76,"x_max":808,"o":"m 76 0 m 442 -13 q 173 63 270 -13 q 76 274 76 139 l 76 479 q 173 693 76 615 q 443 770 270 770 q 711 691 615 770 q 808 472 808 611 l 808 268 q 711 62 808 136 q 442 -13 614 -13 m 442 164 q 529 193 503 164 q 556 287 556 222 l 556 467 q 529 564 556 534 q 442 593 503 593 q 355 564 381 593 q 328 470 328 534 l 328 293 q 355 194 328 225 q 442 164 381 164 z "},"ό":{"ha":884,"x_min":76,"x_max":808,"o":"m 76 0 m 323 884 l 381 1136 l 684 1136 l 476 884 l 323 884 m 442 -13 q 173 63 270 -13 q 76 274 76 139 l 76 479 q 173 693 76 615 q 443 770 270 770 q 711 691 615 770 q 808 472 808 611 l 808 268 q 711 62 808 136 q 442 -13 614 -13 m 442 164 q 529 193 503 164 q 556 287 556 222 l 556 467 q 529 564 556 534 q 442 593 503 593 q 355 564 381 593 q 328 470 328 534 l 328 293 q 355 194 328 225 q 442 164 381 164 z "},"π":{"ha":884,"x_min":13,"x_max":846,"o":"m 821 758 l 821 581 l 720 581 l 720 265 q 747 187 720 207 q 846 176 775 167 l 846 6 q 583 28 674 -28 q 492 225 492 85 l 492 581 l 328 581 l 328 0 l 101 0 l 101 581 l 13 581 l 13 758 l 821 758 z "},"ρ":{"ha":884,"x_min":76,"x_max":808,"o":"m 467 177 q 533 206 510 177 q 556 289 556 235 l 556 480 q 528 565 556 540 q 447 590 500 590 q 359 565 389 590 q 328 480 328 540 l 328 240 q 402 193 366 208 q 467 177 437 177 m 76 -253 l 76 481 q 166 693 76 621 q 433 765 256 765 q 713 693 619 765 q 808 481 808 621 l 808 253 q 739 60 808 133 q 557 -13 670 -13 q 431 27 481 -13 q 366 139 381 67 l 328 139 l 328 -253 l 76 -253 z "},"ς":{"ha":884,"x_min":76,"x_max":808,"o":"m 316 -253 l 316 -76 l 486 -76 q 551 -64 527 -76 q 574 -13 574 -52 q 551 43 574 29 q 486 57 527 57 l 375 57 q 155 136 235 57 q 76 356 76 216 l 76 476 q 174 693 76 615 q 446 770 273 770 q 697 695 616 770 q 797 485 778 620 l 553 465 q 523 565 547 538 q 438 592 499 592 q 352 562 375 592 q 328 458 328 532 l 328 369 q 352 265 328 295 q 441 234 376 234 l 561 234 q 743 172 678 234 q 808 0 808 110 q 715 -186 808 -119 q 455 -253 621 -253 l 316 -253 z "},"σ":{"ha":884,"x_min":76,"x_max":884,"o":"m 417 164 q 486 191 467 164 q 505 280 505 218 l 505 486 q 486 566 505 538 q 417 593 467 593 q 348 565 367 593 q 328 482 328 537 l 328 280 q 348 191 328 218 q 417 164 367 164 m 417 -13 q 167 64 258 -13 q 76 274 76 140 l 76 479 q 167 683 76 609 q 418 758 259 758 l 884 758 l 884 568 l 712 578 q 746 504 735 545 q 758 415 758 462 l 758 274 q 667 64 758 140 q 417 -13 576 -13 z "},"τ":{"ha":884,"x_min":63,"x_max":833,"o":"m 720 6 q 422 25 528 -33 q 316 225 316 82 l 316 568 l 63 568 l 63 758 l 833 758 l 833 568 l 568 568 l 568 265 q 602 185 568 205 q 720 176 635 165 l 720 6 z "},"υ":{"ha":884,"x_min":76,"x_max":808,"o":"m 443 -13 q 173 74 270 -13 q 76 317 76 162 l 76 758 l 328 758 l 328 326 q 355 212 328 247 q 442 177 383 177 q 528 211 501 177 q 556 322 556 246 l 556 758 l 808 758 l 808 317 q 712 74 808 162 q 443 -13 616 -13 z "},"ΰ":{"ha":884,"x_min":47,"x_max":837,"o":"m 47 0 m 443 -13 q 173 74 270 -13 q 76 317 76 162 l 76 758 l 328 758 l 328 326 q 355 212 328 247 q 442 177 383 177 q 528 211 501 177 q 556 322 556 246 l 556 758 l 808 758 l 808 317 q 712 74 808 162 q 443 -13 616 -13 m 330 884 l 388 1136 l 602 1136 l 470 884 l 330 884 m 158 871 q 78 893 109 871 q 47 967 47 914 l 47 986 q 78 1063 47 1040 q 158 1086 109 1086 q 239 1063 208 1086 q 269 986 269 1040 l 269 967 q 237 893 269 914 q 158 871 206 871 m 726 871 q 646 893 677 871 q 615 967 615 914 l 615 986 q 646 1063 615 1040 q 726 1086 677 1086 q 807 1063 777 1086 q 837 986 837 1040 l 837 967 q 806 893 837 914 q 726 871 774 871 z "},"ϋ":{"ha":884,"x_min":76,"x_max":808,"o":"m 76 0 m 443 -13 q 173 74 270 -13 q 76 317 76 162 l 76 758 l 328 758 l 328 326 q 355 212 328 247 q 442 177 383 177 q 528 211 501 177 q 556 322 556 246 l 556 758 l 808 758 l 808 317 q 712 74 808 162 q 443 -13 616 -13 m 278 871 q 189 893 223 871 q 154 967 154 914 l 154 986 q 189 1063 154 1040 q 278 1086 223 1086 q 367 1063 333 1086 q 402 986 402 1040 l 402 967 q 367 893 402 914 q 278 871 332 871 m 606 871 q 517 893 552 871 q 482 967 482 914 l 482 986 q 517 1063 482 1040 q 606 1086 552 1086 q 696 1063 662 1086 q 730 986 730 1040 l 730 967 q 695 893 730 914 q 606 871 660 871 z "},"ύ":{"ha":884,"x_min":76,"x_max":808,"o":"m 76 0 m 443 -13 q 173 74 270 -13 q 76 317 76 162 l 76 758 l 328 758 l 328 326 q 355 212 328 247 q 442 177 383 177 q 528 211 501 177 q 556 322 556 246 l 556 758 l 808 758 l 808 317 q 712 74 808 162 q 443 -13 616 -13 m 311 884 l 369 1136 l 672 1136 l 463 884 l 311 884 z "},"φ":{"ha":884,"x_min":47,"x_max":837,"o":"m 543 -253 l 341 -253 l 341 -3 q 124 134 202 25 q 47 413 47 244 l 47 466 q 58 637 47 558 q 100 766 69 716 l 298 726 q 263 614 275 682 q 251 466 251 545 l 251 413 q 277 244 251 301 q 366 172 303 188 l 366 758 l 485 758 q 743 660 649 758 q 837 390 837 562 l 837 350 q 759 113 837 206 q 543 -4 682 20 l 543 -253 m 518 581 l 518 169 q 626 221 595 179 q 658 350 658 263 l 658 390 q 622 535 658 489 q 518 581 586 581 z "},"χ":{"ha":884,"x_min":45,"x_max":838,"o":"m 557 -253 l 428 14 l 294 -253 l 45 -253 l 314 247 l 67 758 l 318 758 l 451 485 l 590 758 l 838 758 l 564 253 l 811 -253 l 557 -253 z "},"ψ":{"ha":884,"x_min":47,"x_max":837,"o":"m 543 -253 l 341 -253 l 341 -19 q 121 89 196 3 q 47 324 47 176 l 47 758 l 253 758 l 253 362 q 276 228 253 277 q 354 163 299 179 l 354 758 l 530 758 l 530 163 q 608 228 585 179 q 631 362 631 277 l 631 758 l 837 758 l 837 324 q 763 89 837 176 q 543 -19 688 3 l 543 -253 z "},"ω":{"ha":884,"x_min":47,"x_max":837,"o":"m 234 -13 q 98 73 150 -13 q 47 324 47 159 l 47 491 q 59 643 47 578 q 100 779 71 708 l 299 739 q 263 592 274 648 q 253 491 253 535 l 253 324 q 265 214 253 251 q 297 177 277 177 q 340 199 326 177 q 354 274 354 222 l 354 556 l 530 556 l 530 274 q 545 199 530 222 q 587 177 559 177 q 621 214 610 177 q 631 324 631 251 l 631 491 q 621 592 631 535 q 585 739 610 648 l 784 779 q 825 643 813 708 q 837 491 837 578 l 837 324 q 785 73 837 159 q 641 -13 732 -13 q 532 23 581 -13 q 458 158 482 59 l 420 158 q 352 23 407 59 q 234 -13 298 -13 z "},"ώ":{"ha":884,"x_min":47,"x_max":837,"o":"m 47 0 m 330 884 l 388 1136 l 691 1136 l 482 884 l 330 884 m 234 -13 q 98 73 150 -13 q 47 324 47 159 l 47 491 q 59 643 47 578 q 100 779 71 708 l 299 739 q 263 592 274 648 q 253 491 253 535 l 253 324 q 265 214 253 251 q 297 177 277 177 q 340 199 326 177 q 354 274 354 222 l 354 556 l 530 556 l 530 274 q 545 199 530 222 q 587 177 559 177 q 621 214 610 177 q 631 324 631 251 l 631 491 q 621 592 631 535 q 585 739 610 648 l 784 779 q 825 643 813 708 q 837 491 837 578 l 837 324 q 785 73 837 159 q 641 -13 732 -13 q 532 23 581 -13 q 458 158 482 59 l 420 158 q 352 23 407 59 q 234 -13 298 -13 z "},"а":{"ha":884,"x_min":51,"x_max":859,"o":"m 51 0 m 357 139 q 433 149 396 139 q 505 176 470 159 l 505 299 l 354 299 q 296 282 314 299 q 278 213 278 265 q 297 158 278 177 q 357 139 316 139 m 290 -13 q 116 47 181 -13 q 51 208 51 106 q 126 371 51 316 q 335 426 202 426 l 505 426 l 505 511 q 477 583 505 564 q 395 601 449 601 q 311 579 338 601 q 273 497 284 557 l 69 529 q 171 717 97 664 q 404 770 245 770 q 661 706 577 770 q 745 513 745 643 l 745 240 q 775 180 745 191 q 859 176 804 169 l 859 6 q 688 8 753 -19 q 598 114 624 34 l 561 114 q 449 25 520 63 q 290 -13 378 -13 z "},"б":{"ha":884,"x_min":76,"x_max":808,"o":"m 442 -13 q 169 73 261 -13 q 76 323 76 158 l 76 544 q 164 876 76 765 q 439 1004 251 987 l 741 1030 l 760 835 l 479 808 q 359 758 398 799 q 318 633 321 716 l 316 551 l 345 551 q 430 648 378 615 q 563 682 482 682 q 737 614 667 682 q 808 432 808 545 l 808 290 q 715 64 808 141 q 442 -13 622 -13 m 441 164 q 528 192 503 164 q 553 275 553 220 l 553 405 q 528 480 553 456 q 441 504 503 504 q 354 480 379 504 q 328 405 328 456 l 328 275 q 354 192 328 220 q 441 164 379 164 z "},"в":{"ha":884,"x_min":76,"x_max":831,"o":"m 76 0 l 76 758 l 448 758 q 711 715 615 758 q 808 574 808 673 l 808 544 q 761 442 808 480 q 634 399 715 404 l 634 371 q 782 320 732 365 q 831 215 831 275 l 831 189 q 746 49 831 98 q 448 0 660 0 l 76 0 m 316 453 l 458 453 q 543 467 518 453 q 568 523 568 481 l 568 540 q 545 594 568 578 q 461 610 521 610 l 316 610 l 316 453 m 316 160 l 461 160 q 563 182 534 160 q 591 240 591 203 l 591 253 q 564 308 591 289 q 458 327 538 327 l 316 327 l 316 160 z "},"г":{"ha":884,"x_min":126,"x_max":783,"o":"m 126 0 l 126 758 l 783 758 l 783 568 l 379 568 l 379 0 l 126 0 z "},"ѓ":{"ha":884,"x_min":126,"x_max":783,"o":"m 126 0 m 279 884 l 413 1136 l 729 1136 l 444 884 l 279 884 m 126 0 l 126 758 l 783 758 l 783 568 l 379 568 l 379 0 l 126 0 z "},"д":{"ha":884,"x_min":25,"x_max":859,"o":"m 327 217 l 327 189 l 530 189 l 530 568 l 383 568 l 379 385 q 364 290 378 330 q 327 217 350 251 m 253 0 l 253 -189 l 25 -189 l 25 189 l 106 189 q 142 251 130 207 q 155 389 154 294 l 163 758 l 758 758 l 758 189 l 859 189 l 859 -189 l 631 -189 l 631 0 l 253 0 z "},"е":{"ha":884,"x_min":76,"x_max":826,"o":"m 76 0 m 826 179 q 694 28 775 69 q 447 -13 614 -13 q 183 59 290 -13 q 76 278 76 131 l 76 479 q 173 693 76 615 q 443 770 270 770 q 711 693 615 770 q 808 476 808 615 l 808 328 l 328 328 l 328 260 q 357 176 328 207 q 455 145 385 145 q 549 162 509 145 q 619 234 588 179 l 826 179 m 328 504 l 328 455 l 556 455 l 556 492 q 533 591 556 563 q 442 619 510 619 q 351 593 374 619 q 328 504 328 567 z "},"ѐ":{"ha":884,"x_min":76,"x_max":826,"o":"m 76 0 m 826 179 q 694 28 775 69 q 447 -13 614 -13 q 183 59 290 -13 q 76 278 76 131 l 76 479 q 173 693 76 615 q 443 770 270 770 q 711 693 615 770 q 808 476 808 615 l 808 328 l 328 328 l 328 260 q 357 176 328 207 q 455 145 385 145 q 549 162 509 145 q 619 234 588 179 l 826 179 m 328 504 l 328 455 l 556 455 l 556 492 q 533 591 556 563 q 442 619 510 619 q 351 593 374 619 q 328 504 328 567 m 424 884 l 140 1136 l 456 1136 l 590 884 l 424 884 z "},"ё":{"ha":884,"x_min":76,"x_max":826,"o":"m 76 0 m 826 179 q 694 28 775 69 q 447 -13 614 -13 q 183 59 290 -13 q 76 278 76 131 l 76 479 q 173 693 76 615 q 443 770 270 770 q 711 693 615 770 q 808 476 808 615 l 808 328 l 328 328 l 328 260 q 357 176 328 207 q 455 145 385 145 q 549 162 509 145 q 619 234 588 179 l 826 179 m 328 504 l 328 455 l 556 455 l 556 492 q 533 591 556 563 q 442 619 510 619 q 351 593 374 619 q 328 504 328 567 m 278 871 q 189 893 223 871 q 154 967 154 914 l 154 986 q 189 1063 154 1040 q 278 1086 223 1086 q 367 1063 333 1086 q 402 986 402 1040 l 402 967 q 367 893 402 914 q 278 871 332 871 m 606 871 q 517 893 552 871 q 482 967 482 914 l 482 986 q 517 1063 482 1040 q 606 1086 552 1086 q 696 1063 662 1086 q 730 986 730 1040 l 730 967 q 695 893 730 914 q 606 871 660 871 z "},"ж":{"ha":884,"x_min":-4,"x_max":884,"o":"m 297 316 l 198 0 l 0 0 l 163 422 l -4 758 l 198 758 l 317 467 l 354 467 l 354 758 l 530 758 l 530 467 l 561 467 l 676 758 l 884 758 l 720 423 l 884 0 l 679 0 l 581 316 l 530 316 l 530 0 l 354 0 l 354 316 l 297 316 z "},"з":{"ha":884,"x_min":76,"x_max":831,"o":"m 448 -13 q 176 52 266 -13 q 76 255 86 116 l 302 264 q 342 162 312 188 q 448 135 372 135 q 555 162 532 135 q 578 234 578 188 l 578 246 q 556 306 578 285 q 446 327 534 327 l 388 327 l 388 453 l 446 453 q 530 469 505 453 q 556 532 556 485 l 556 549 q 532 605 556 588 q 448 622 509 622 q 358 598 384 622 q 324 508 332 574 l 98 518 q 193 710 109 649 q 448 770 278 770 q 721 722 634 770 q 808 568 808 673 l 808 538 q 761 440 808 476 q 634 399 715 404 l 634 371 q 782 322 732 365 q 831 221 831 279 l 831 196 q 739 38 831 88 q 448 -13 646 -13 z "},"и":{"ha":884,"x_min":76,"x_max":808,"o":"m 593 0 l 593 470 l 332 0 l 76 0 l 76 758 l 290 758 l 290 251 l 572 758 l 808 758 l 808 0 l 593 0 z "},"й":{"ha":884,"x_min":76,"x_max":808,"o":"m 76 0 m 593 0 l 593 470 l 332 0 l 76 0 l 76 758 l 290 758 l 290 251 l 572 758 l 808 758 l 808 0 l 593 0 m 442 875 q 209 940 309 875 q 111 1165 109 1005 l 326 1178 q 349 1061 324 1096 q 442 1025 374 1025 q 535 1061 510 1025 q 558 1178 559 1096 l 773 1165 q 675 940 775 1005 q 442 875 574 875 z "},"ѝ":{"ha":884,"x_min":76,"x_max":808,"o":"m 76 0 m 443 884 l 159 1136 l 475 1136 l 609 884 l 443 884 m 593 0 l 593 470 l 332 0 l 76 0 l 76 758 l 290 758 l 290 251 l 572 758 l 808 758 l 808 0 l 593 0 z "},"к":{"ha":884,"x_min":88,"x_max":840,"o":"m 341 309 l 341 0 l 88 0 l 88 758 l 341 758 l 341 473 l 388 473 l 581 758 l 840 758 l 597 417 l 836 0 l 568 0 l 388 309 l 341 309 z "},"ќ":{"ha":884,"x_min":88,"x_max":840,"o":"m 88 0 m 352 884 l 486 1136 l 802 1136 l 518 884 l 352 884 m 341 309 l 341 0 l 88 0 l 88 758 l 341 758 l 341 473 l 388 473 l 581 758 l 840 758 l 597 417 l 836 0 l 568 0 l 388 309 l 341 309 z "},"л":{"ha":884,"x_min":1,"x_max":821,"o":"m 568 0 l 568 581 l 398 581 l 395 287 q 330 57 394 133 q 136 -18 266 -18 q 71 -11 105 -18 q 1 5 37 -4 l 27 183 q 59 176 43 179 q 88 172 74 172 q 138 198 119 172 q 158 302 157 223 l 163 758 l 821 758 l 821 0 l 568 0 z "},"м":{"ha":884,"x_min":63,"x_max":821,"o":"m 364 189 l 250 426 l 278 0 l 63 0 l 63 758 l 297 758 l 446 396 l 593 758 l 821 758 l 821 0 l 606 0 l 633 423 l 523 189 l 364 189 z "},"н":{"ha":884,"x_min":76,"x_max":808,"o":"m 76 0 l 76 758 l 328 758 l 328 505 l 556 505 l 556 758 l 808 758 l 808 0 l 556 0 l 556 316 l 328 316 l 328 0 l 76 0 z "},"о":{"ha":884,"x_min":76,"x_max":808,"o":"m 76 0 m 442 -13 q 173 63 270 -13 q 76 274 76 139 l 76 479 q 173 693 76 615 q 443 770 270 770 q 711 691 615 770 q 808 472 808 611 l 808 268 q 711 62 808 136 q 442 -13 614 -13 m 442 164 q 529 193 503 164 q 556 287 556 222 l 556 467 q 529 564 556 534 q 442 593 503 593 q 355 564 381 593 q 328 470 328 534 l 328 293 q 355 194 328 225 q 442 164 381 164 z "},"п":{"ha":884,"x_min":76,"x_max":808,"o":"m 76 0 l 76 758 l 808 758 l 808 0 l 556 0 l 556 568 l 328 568 l 328 0 l 76 0 z "},"р":{"ha":884,"x_min":76,"x_max":808,"o":"m 76 0 m 447 168 q 528 193 500 168 q 556 278 556 218 l 556 468 q 531 554 556 527 q 467 581 506 581 q 398 565 432 581 q 328 518 365 549 l 328 201 q 386 176 360 184 q 447 168 412 168 m 495 -8 q 408 0 452 -8 q 328 21 364 8 l 328 -253 l 76 -253 l 76 758 l 328 758 l 328 619 l 366 619 q 455 729 394 688 q 595 770 516 770 q 751 702 693 770 q 808 518 808 634 l 808 277 q 723 69 808 145 q 495 -8 639 -8 z "},"с":{"ha":884,"x_min":76,"x_max":809,"o":"m 76 0 m 453 -13 q 173 64 270 -13 q 76 287 76 141 l 76 476 q 174 693 76 616 q 452 770 271 770 q 708 695 626 770 q 809 485 790 620 l 566 465 q 533 564 559 537 q 444 592 506 592 q 354 563 380 592 q 328 458 328 533 l 328 299 q 355 194 328 223 q 447 164 381 164 q 535 187 509 164 q 566 268 561 210 l 809 247 q 726 55 801 122 q 453 -13 652 -13 z "},"т":{"ha":884,"x_min":63,"x_max":821,"o":"m 316 0 l 316 568 l 63 568 l 63 758 l 821 758 l 821 568 l 568 568 l 568 0 l 316 0 z "},"у":{"ha":884,"x_min":30,"x_max":852,"o":"m 30 0 m 246 -268 q 154 -264 203 -268 q 47 -253 105 -260 l 59 -76 q 156 -90 114 -85 q 230 -96 198 -96 q 336 -68 303 -96 q 394 43 370 -40 l 396 51 l 236 51 l 30 758 l 287 758 l 439 197 l 606 758 l 852 758 l 619 20 q 486 -205 568 -141 q 246 -268 404 -268 z "},"ў":{"ha":884,"x_min":30,"x_max":852,"o":"m 30 0 m 246 -268 q 154 -264 203 -268 q 47 -253 105 -260 l 59 -76 q 156 -90 114 -85 q 230 -96 198 -96 q 336 -68 303 -96 q 394 43 370 -40 l 396 51 l 236 51 l 30 758 l 287 758 l 439 197 l 606 758 l 852 758 l 619 20 q 486 -205 568 -141 q 246 -268 404 -268 m 442 875 q 209 940 309 875 q 111 1165 109 1005 l 326 1178 q 349 1061 324 1096 q 442 1025 374 1025 q 535 1061 510 1025 q 558 1178 559 1096 l 773 1165 q 675 940 775 1005 q 442 875 574 875 z "},"ф":{"ha":884,"x_min":47,"x_max":837,"o":"m 564 0 l 543 0 l 543 -253 l 341 -253 l 341 0 l 319 0 q 119 67 192 0 q 47 253 47 134 l 47 509 q 119 692 47 626 q 319 758 192 758 l 341 758 l 341 1010 l 543 1010 l 543 758 l 564 758 q 765 691 692 758 q 837 508 837 625 l 837 251 q 765 67 837 134 q 564 0 692 0 m 333 149 l 360 149 l 360 606 l 333 606 q 274 585 302 606 q 246 503 246 563 l 246 254 q 274 170 246 192 q 333 149 302 149 m 551 606 l 524 606 l 524 149 l 551 149 q 610 170 583 149 q 638 254 638 192 l 638 503 q 610 585 638 563 q 551 606 583 606 z "},"х":{"ha":884,"x_min":45,"x_max":836,"o":"m 45 0 m 582 0 l 431 223 l 294 0 l 45 0 l 319 386 l 67 758 l 318 758 l 451 563 l 564 758 l 813 758 l 566 395 l 836 0 l 582 0 z "},"ц":{"ha":884,"x_min":76,"x_max":878,"o":"m 638 -189 l 638 0 l 76 0 l 76 758 l 328 758 l 328 189 l 537 189 l 537 758 l 789 758 l 789 189 l 878 189 l 878 -189 l 638 -189 z "},"ч":{"ha":884,"x_min":63,"x_max":795,"o":"m 795 758 l 795 0 l 543 0 l 543 222 q 482 208 515 213 q 396 202 449 202 q 148 283 232 202 q 63 519 63 364 l 63 758 l 316 758 l 316 521 q 347 418 316 447 q 429 389 378 389 q 491 395 463 389 q 543 409 519 400 l 543 758 l 795 758 z "},"ш":{"ha":884,"x_min":47,"x_max":837,"o":"m 47 0 l 47 758 l 246 758 l 246 177 l 343 177 l 343 758 l 540 758 l 540 177 l 638 177 l 638 758 l 837 758 l 837 0 l 47 0 z "},"щ":{"ha":884,"x_min":47,"x_max":884,"o":"m 884 -189 l 684 -189 l 684 0 l 47 0 l 47 758 l 246 758 l 246 177 l 343 177 l 343 758 l 540 758 l 540 177 l 638 177 l 638 758 l 837 758 l 837 177 l 884 177 l 884 -189 z "},"ъ":{"ha":884,"x_min":0,"x_max":859,"o":"m 545 0 l 189 0 l 189 568 l 0 568 l 0 758 l 442 758 l 442 553 l 547 553 q 776 487 693 553 q 859 304 859 422 l 859 241 q 775 64 859 128 q 545 0 692 0 m 442 177 l 505 177 q 581 196 556 177 q 606 260 606 216 l 606 302 q 581 362 606 346 q 505 379 556 379 l 442 379 l 442 177 z "},"ы":{"ha":884,"x_min":47,"x_max":837,"o":"m 47 0 l 47 758 l 253 758 l 253 578 l 282 578 q 482 523 410 578 q 554 367 554 467 l 554 229 q 482 60 554 120 q 280 0 410 0 l 47 0 m 631 0 l 631 758 l 837 758 l 837 0 l 631 0 m 253 164 l 278 164 q 346 183 323 164 q 369 254 369 202 l 369 333 q 346 400 369 383 q 278 417 323 417 l 253 417 l 253 164 z "},"ь":{"ha":884,"x_min":63,"x_max":821,"o":"m 63 0 l 63 758 l 316 758 l 316 553 l 484 553 q 732 487 644 553 q 821 304 821 422 l 821 241 q 732 63 821 126 q 482 0 644 0 l 63 0 m 316 177 l 442 177 q 537 193 505 177 q 568 254 568 210 l 568 295 q 537 359 568 340 q 442 379 505 379 l 316 379 l 316 177 z "},"э":{"ha":884,"x_min":62,"x_max":808,"o":"m 424 -13 q 157 48 244 -13 q 62 241 71 109 l 306 261 q 333 170 311 196 q 431 145 356 145 q 529 176 503 145 q 556 280 556 207 l 556 322 l 357 322 l 357 461 l 556 461 l 556 484 q 530 582 556 553 q 433 611 504 611 q 338 591 366 611 q 306 515 311 571 l 62 535 q 165 714 78 658 q 426 770 253 770 q 704 697 600 770 q 808 476 808 624 l 808 287 q 709 64 808 141 q 424 -13 610 -13 z "},"ю":{"ha":884,"x_min":47,"x_max":837,"o":"m 587 -13 q 403 53 466 -13 q 341 236 341 119 l 341 328 l 251 328 l 251 0 l 47 0 l 47 758 l 251 758 l 251 492 l 341 492 l 341 516 q 404 703 341 635 q 588 770 467 770 q 774 703 711 770 q 837 516 837 635 l 837 236 q 774 53 837 119 q 587 -13 711 -13 m 587 152 q 623 174 615 152 q 631 236 631 197 l 631 516 q 623 581 631 557 q 587 606 615 606 q 551 581 559 606 q 543 516 543 557 l 543 236 q 551 174 543 197 q 587 152 559 152 z "},"я":{"ha":884,"x_min":64,"x_max":808,"o":"m 429 391 l 556 391 l 556 593 l 429 593 q 374 578 394 593 q 354 506 354 562 l 354 479 q 374 406 354 420 q 429 391 394 391 m 556 227 l 480 227 l 332 0 l 64 0 l 231 253 q 134 337 168 280 q 101 476 101 394 l 101 516 q 170 694 101 631 q 365 758 240 758 l 808 758 l 808 0 l 556 0 l 556 227 z "},"ђ":{"ha":884,"x_min":-51,"x_max":808,"o":"m 490 -265 q 403 -257 447 -265 q 317 -236 359 -249 l 342 -77 q 404 -94 375 -87 q 457 -101 433 -101 q 530 -73 504 -101 q 556 19 556 -45 l 556 384 q 536 465 556 437 q 481 492 516 492 q 403 463 442 492 q 328 384 364 433 l 328 0 l 76 0 l 76 758 l -51 758 l -51 884 l 76 884 l 76 1010 l 328 1010 l 328 884 l 530 884 l 530 758 l 328 758 l 328 530 l 366 530 q 458 642 398 602 q 597 682 518 682 q 748 622 688 682 q 808 453 808 562 l 808 -3 q 711 -203 808 -141 q 490 -265 614 -265 z "},"є":{"ha":884,"x_min":76,"x_max":822,"o":"m 822 241 q 724 48 811 109 q 460 -13 638 -13 q 175 64 274 -13 q 76 287 76 141 l 76 476 q 180 697 76 624 q 458 770 284 770 q 718 714 631 770 q 822 535 806 658 l 578 515 q 545 591 573 571 q 451 611 518 611 q 354 582 380 611 q 328 484 328 553 l 328 455 l 556 455 l 556 328 l 328 328 l 328 280 q 355 176 328 207 q 453 145 381 145 q 551 170 528 145 q 578 261 573 196 l 822 241 z "},"ѕ":{"ha":884,"x_min":76,"x_max":802,"o":"m 76 0 m 443 -8 q 246 18 345 -8 q 76 90 146 44 l 133 240 q 295 170 208 193 q 449 146 381 146 q 528 164 505 146 q 551 215 551 181 q 524 272 551 254 q 436 297 497 290 q 188 360 274 313 q 101 518 101 407 q 190 702 101 634 q 433 770 279 770 q 597 748 510 770 q 751 687 683 726 l 707 545 q 568 599 635 582 q 443 616 501 616 q 374 599 395 616 q 352 551 352 582 q 391 495 352 510 q 510 470 429 480 q 731 398 660 451 q 802 244 802 346 q 710 60 802 128 q 443 -8 617 -8 z "},"і":{"ha":884,"x_min":88,"x_max":795,"o":"m 88 0 m 456 871 q 339 893 384 871 q 294 967 294 914 l 294 986 q 339 1063 294 1040 q 456 1086 384 1086 q 573 1063 528 1086 q 617 986 617 1040 l 617 967 q 572 893 617 914 q 456 871 527 871 m 88 0 l 88 177 l 316 177 l 316 581 l 88 581 l 88 758 l 568 758 l 568 177 l 795 177 l 795 0 l 88 0 z "},"ї":{"ha":884,"x_min":88,"x_max":795,"o":"m 88 0 m 88 0 l 88 177 l 316 177 l 316 581 l 88 581 l 88 758 l 568 758 l 568 177 l 795 177 l 795 0 l 88 0 m 278 871 q 189 893 223 871 q 154 967 154 914 l 154 986 q 189 1063 154 1040 q 278 1086 223 1086 q 367 1063 333 1086 q 402 986 402 1040 l 402 967 q 367 893 402 914 q 278 871 332 871 m 606 871 q 517 893 552 871 q 482 967 482 914 l 482 986 q 517 1063 482 1040 q 606 1086 552 1086 q 696 1063 662 1086 q 730 986 730 1040 l 730 967 q 695 893 730 914 q 606 871 660 871 z "},"ј":{"ha":884,"x_min":64,"x_max":705,"o":"m 64 0 m 301 -265 q 181 -259 241 -265 q 64 -236 120 -254 l 90 -77 q 184 -97 140 -92 q 268 -101 229 -101 q 386 -73 343 -101 q 429 19 429 -45 l 429 581 l 115 581 l 115 758 l 682 758 l 682 -3 q 580 -195 682 -125 q 301 -265 479 -265 m 543 871 q 426 893 471 871 q 381 967 381 914 l 381 986 q 426 1063 381 1040 q 543 1086 471 1086 q 660 1063 615 1086 q 705 986 705 1040 l 705 967 q 659 893 705 914 q 543 871 614 871 z "},"љ":{"ha":884,"x_min":-20,"x_max":837,"o":"m 269 606 l 266 169 q 215 40 265 86 q 73 -6 165 -6 q 27 -3 51 -6 q -20 5 4 0 l 5 170 q 20 168 13 169 q 35 167 28 167 q 66 179 53 167 q 80 230 78 191 l 85 758 l 553 758 l 553 553 l 626 553 q 782 498 727 553 q 837 342 837 443 l 837 241 q 782 62 837 125 q 625 0 727 0 l 364 0 l 364 606 l 269 606 m 553 152 l 585 152 q 633 175 619 152 q 648 254 648 198 l 648 321 q 633 385 648 366 q 585 404 619 404 l 553 404 l 553 152 z "},"њ":{"ha":884,"x_min":48,"x_max":837,"o":"m 553 152 l 585 152 q 634 172 620 152 q 648 241 648 192 l 648 346 q 634 410 648 391 q 585 429 620 429 l 553 429 l 553 152 m 237 354 l 237 0 l 48 0 l 48 758 l 237 758 l 237 518 l 364 518 l 364 758 l 553 758 l 553 578 l 626 578 q 782 527 727 578 q 837 380 837 475 l 837 216 q 782 57 837 114 q 625 0 726 0 l 364 0 l 364 354 l 237 354 z "},"ћ":{"ha":884,"x_min":-51,"x_max":808,"o":"m 0 0 m 328 384 l 328 0 l 76 0 l 76 758 l -51 758 l -51 884 l 76 884 l 76 1010 l 328 1010 l 328 884 l 530 884 l 530 758 l 328 758 l 328 530 l 366 530 q 458 641 396 601 q 597 682 520 682 q 749 617 689 682 q 808 453 808 553 l 808 0 l 556 0 l 556 384 q 536 465 556 437 q 481 492 516 492 q 403 463 442 492 q 328 384 364 433 z "},"џ":{"ha":884,"x_min":76,"x_max":808,"o":"m 322 -189 l 322 0 l 76 0 l 76 758 l 328 758 l 328 189 l 556 189 l 556 758 l 808 758 l 808 0 l 562 0 l 562 -189 l 322 -189 z "},"ґ":{"ha":884,"x_min":126,"x_max":783,"o":"m 126 0 l 126 758 l 543 758 l 543 947 l 783 947 l 783 568 l 379 568 l 379 0 l 126 0 z "},"ⁿ":{"ha":884,"x_min":126,"x_max":758,"o":"m 126 379 l 126 1010 l 341 1010 l 341 896 l 379 896 q 411 950 391 927 q 456 990 431 973 q 511 1015 481 1006 q 576 1023 542 1023 q 653 1005 619 1023 q 710 952 687 987 q 746 869 734 918 q 758 756 758 819 l 758 379 l 543 379 l 543 750 q 539 797 543 777 q 527 831 534 817 q 508 852 519 845 q 481 859 496 859 q 446 851 463 859 q 412 828 429 843 q 376 795 394 814 q 341 750 359 775 l 341 379 l 126 379 z "},"̀":{"ha":0,"x_min":-308,"x_max":141,"o":"m -24 884 l -308 1136 l 8 1136 l 141 884 l -24 884 z "},"́":{"ha":0,"x_min":-169,"x_max":280,"o":"m -169 884 l -35 1136 l 280 1136 l -4 884 l -169 884 z "},"̂":{"ha":0,"x_min":-330,"x_max":330,"o":"m -251 864 l -330 970 l -97 1170 l 95 1170 l 330 970 l 253 865 l -1 997 l -251 864 z "},"̃":{"ha":0,"x_min":-318,"x_max":319,"o":"m 121 896 q 27 915 59 896 q -27 956 -6 934 q -64 997 -47 979 q -106 1015 -82 1015 q -143 997 -126 1015 q -158 920 -159 979 l -158 909 l -318 909 l -318 928 q -265 1104 -318 1033 q -119 1174 -212 1174 q -25 1155 -58 1174 q 29 1115 8 1136 q 68 1073 51 1092 q 107 1054 86 1054 q 144 1073 128 1054 q 159 1149 160 1091 l 159 1160 l 319 1160 l 319 1141 q 266 967 319 1038 q 121 896 213 896 z "},"̄":{"ha":0,"x_min":-284,"x_max":284,"o":"m -284 915 l -284 1105 l 284 1105 l 284 915 l -284 915 z "},"̆":{"ha":0,"x_min":-337,"x_max":337,"o":"m 0 875 q -253 949 -170 875 q -337 1178 -336 1024 l -135 1178 q -104 1059 -134 1092 q 0 1025 -73 1025 q 104 1059 73 1025 q 135 1178 134 1092 l 337 1178 q 253 949 336 1024 q 0 875 170 875 z "},"̇":{"ha":0,"x_min":-162,"x_max":162,"o":"m 0 871 q -117 893 -72 871 q -162 967 -162 914 l -162 986 q -117 1063 -162 1040 q 0 1086 -72 1086 q 117 1063 72 1086 q 162 986 162 1040 l 162 967 q 116 893 162 914 q 0 871 71 871 z "},"̈":{"ha":0,"x_min":-288,"x_max":288,"o":"m -164 871 q -253 893 -218 871 q -288 967 -288 914 l -288 986 q -253 1063 -288 1040 q -164 1086 -218 1086 q -74 1063 -109 1086 q -40 986 -40 1040 l -40 967 q -75 893 -40 914 q -164 871 -110 871 m 164 871 q 75 893 110 871 q 40 967 40 914 l 40 986 q 75 1063 40 1040 q 164 1086 110 1086 q 254 1063 220 1086 q 288 986 288 1040 l 288 967 q 253 893 288 914 q 164 871 218 871 z "},"̊":{"ha":0,"x_min":-265,"x_max":265,"o":"m 0 852 q -192 900 -119 852 q -265 1048 -265 948 l -265 1088 q -192 1239 -265 1189 q 0 1288 -119 1288 q 193 1239 120 1288 q 265 1088 265 1189 l 265 1048 q 192 900 265 948 q 0 852 119 852 m 0 967 q 68 985 44 967 q 91 1048 91 1004 l 91 1088 q 68 1152 91 1131 q 0 1173 44 1173 q -68 1152 -45 1173 q -91 1088 -91 1131 l -91 1048 q -68 985 -91 1004 q 0 967 -45 967 z "},"̋":{"ha":0,"x_min":-245,"x_max":343,"o":"m 45 884 l 104 1136 l 343 1136 l 173 884 l 45 884 m -245 884 l -187 1136 l 53 1136 l -117 884 l -245 884 z "},"̌":{"ha":0,"x_min":-330,"x_max":330,"o":"m -95 889 l -330 1090 l -253 1194 l 1 1062 l 251 1196 l 330 1090 l 97 889 l -95 889 z "},"̒":{"ha":0,"x_min":-194,"x_max":205,"o":"m -194 884 l 39 1136 l 205 1136 l 121 884 l -194 884 z "},"̦":{"ha":0,"x_min":-207,"x_max":192,"o":"m -207 -379 l -124 -126 l 192 -126 l -42 -379 l -207 -379 z "},"̧":{"ha":0,"x_min":-322,"x_max":232,"o":"m -38 0 l -13 53 q 164 8 96 43 q 232 -111 232 -27 q 148 -246 232 -206 q -40 -285 63 -285 q -239 -246 -162 -285 q -322 -114 -316 -206 l -110 -101 q -94 -134 -107 -125 q -51 -144 -81 -144 q 1 -131 -16 -144 q 18 -74 18 -117 q 6 -26 18 -43 q -38 0 -5 -9 z "},"̨":{"ha":0,"x_min":-208,"x_max":183,"o":"m 20 -283 q -147 -242 -86 -283 q -208 -121 -208 -202 q -144 20 -208 -38 q -4 97 -80 77 l 30 29 q -22 -21 -13 3 q -32 -67 -32 -45 q -9 -116 -32 -100 q 63 -131 13 -131 q 116 -128 86 -131 q 183 -119 146 -125 l 183 -265 q 97 -278 138 -274 q 20 -283 56 -283 z "},"¼":{"ha":884,"x_min":0,"x_max":884,"o":"m 213 520 l 213 633 l 385 633 l 385 872 l 359 872 q 339 824 354 846 q 304 787 324 803 q 258 763 283 771 q 205 751 232 754 l 197 884 q 253 899 225 889 q 308 927 282 909 q 355 967 333 943 q 388 1020 376 991 l 576 1020 l 576 633 l 732 633 l 732 520 l 213 520 m 0 308 l 0 472 l 402 447 l 402 333 l 0 308 m 500 333 l 500 447 l 884 472 l 884 308 l 500 333 m 771 -143 l 654 -143 l 654 -265 l 463 -265 l 463 -143 l 143 -143 l 143 -16 l 428 273 l 654 273 l 654 -16 l 771 -16 l 771 -143 m 288 -16 l 463 -16 l 463 158 l 288 -16 z "},"½":{"ha":884,"x_min":0,"x_max":884,"o":"m 213 520 l 213 633 l 385 633 l 385 872 l 359 872 q 339 824 354 846 q 304 787 324 803 q 258 763 283 771 q 205 751 232 754 l 197 884 q 253 899 225 889 q 308 927 282 909 q 355 967 333 943 q 388 1020 376 991 l 576 1020 l 576 633 l 732 633 l 732 520 l 213 520 m 0 308 l 0 472 l 402 447 l 402 333 l 0 308 m 500 333 l 500 447 l 884 472 l 884 308 l 500 333 m 150 -265 l 150 -140 q 158 -82 150 -109 q 184 -35 167 -56 q 230 1 202 -14 q 298 24 259 16 l 452 56 q 492 65 479 61 q 515 74 506 69 q 530 88 525 80 q 534 110 534 97 l 534 115 q 527 136 534 128 q 506 148 519 144 q 477 153 492 152 q 441 154 461 154 q 405 152 420 154 q 378 145 390 150 q 357 129 365 140 q 348 101 350 119 l 158 110 q 177 179 160 150 q 229 229 194 208 q 316 258 263 247 q 441 268 369 268 q 567 258 514 268 q 655 229 620 247 q 708 179 691 208 q 725 110 725 149 l 725 87 q 715 37 725 59 q 684 -3 705 15 q 639 -31 665 -19 q 580 -49 612 -43 l 426 -81 q 388 -90 403 -86 q 364 -100 372 -95 q 348 -112 354 -105 q 342 -128 343 -119 l 732 -128 l 732 -265 l 150 -265 z "},"¾":{"ha":884,"x_min":0,"x_max":884,"o":"m 448 510 q 318 521 374 510 q 223 552 261 532 q 165 605 186 573 q 143 679 145 636 l 333 687 q 343 654 336 667 q 364 634 351 641 q 397 624 378 626 q 447 621 417 621 q 491 623 473 621 q 519 630 509 625 q 536 641 530 634 q 542 660 542 649 l 542 679 q 535 701 542 692 q 516 715 529 710 q 485 722 504 720 q 441 725 467 725 l 299 725 l 299 833 l 441 833 q 480 835 463 833 q 506 841 496 837 q 521 852 516 845 q 527 870 527 859 l 527 878 q 521 896 527 889 q 505 908 516 904 q 477 913 494 912 q 433 914 460 914 q 391 913 407 914 q 367 908 376 912 q 354 897 359 904 q 348 879 350 890 l 158 886 q 179 948 160 922 q 231 991 197 973 q 316 1016 265 1008 q 433 1025 366 1025 q 558 1018 505 1025 q 646 996 611 1010 q 698 959 681 981 q 716 907 716 937 l 716 896 q 707 857 716 875 q 683 827 698 840 q 647 806 667 814 q 605 794 628 798 l 605 771 q 648 761 626 769 q 689 740 670 754 q 721 707 710 727 q 732 662 732 687 l 732 652 q 715 588 732 615 q 663 545 697 562 q 574 519 628 528 q 448 510 520 510 m 0 308 l 0 472 l 402 447 l 402 333 l 0 308 m 500 333 l 500 447 l 884 472 l 884 308 l 500 333 m 771 -143 l 654 -143 l 654 -265 l 463 -265 l 463 -143 l 143 -143 l 143 -16 l 428 273 l 654 273 l 654 -16 l 771 -16 l 771 -143 m 288 -16 l 463 -16 l 463 158 l 288 -16 z "},"⅛":{"ha":884,"x_min":0,"x_max":884,"o":"m 213 520 l 213 633 l 385 633 l 385 872 l 359 872 q 339 824 354 846 q 304 787 324 803 q 258 763 283 771 q 205 751 232 754 l 197 884 q 253 899 225 889 q 308 927 282 909 q 355 967 333 943 q 388 1020 376 991 l 576 1020 l 576 633 l 732 633 l 732 520 l 213 520 m 0 308 l 0 472 l 402 447 l 402 333 l 0 308 m 500 333 l 500 447 l 884 472 l 884 308 l 500 333 m 452 -270 q 314 -260 370 -270 q 225 -231 258 -250 q 176 -185 191 -212 q 162 -121 162 -158 l 162 -104 q 170 -62 162 -81 q 197 -29 179 -43 q 239 -6 215 -15 q 295 5 264 3 l 295 28 q 249 37 270 30 q 211 56 227 44 q 186 81 194 67 q 177 115 177 96 l 177 140 q 194 199 177 174 q 247 239 212 223 q 334 263 283 255 q 452 270 385 270 q 571 263 520 270 q 657 240 622 255 q 710 199 692 225 q 727 140 727 174 l 727 115 q 718 81 727 96 q 694 56 710 67 q 657 37 678 44 q 610 28 635 30 l 610 5 q 666 -6 641 3 q 708 -29 691 -15 q 735 -62 726 -43 q 744 -104 744 -81 l 744 -121 q 729 -186 744 -158 q 681 -231 715 -213 q 591 -260 648 -250 q 452 -270 534 -270 m 452 54 q 487 56 472 54 q 514 63 503 58 q 532 74 525 67 q 538 93 538 82 l 538 120 q 532 139 538 131 q 514 150 525 146 q 487 157 503 155 q 452 159 472 159 q 417 157 433 159 q 391 150 402 155 q 374 139 380 146 q 367 120 367 131 l 367 93 q 374 74 367 82 q 391 63 380 67 q 417 56 402 58 q 452 54 433 54 m 452 -159 q 501 -156 481 -159 q 532 -148 520 -153 q 548 -134 543 -141 q 553 -115 553 -126 l 553 -95 q 548 -74 553 -83 q 532 -61 543 -66 q 501 -51 520 -54 q 452 -48 481 -48 q 403 -51 423 -48 q 374 -61 384 -54 q 357 -74 362 -66 q 352 -95 352 -83 l 352 -115 q 357 -134 352 -126 q 374 -148 362 -141 q 403 -156 384 -153 q 452 -159 423 -159 z "},"⅜":{"ha":884,"x_min":0,"x_max":884,"o":"m 448 510 q 319 521 375 510 q 225 552 264 532 q 166 605 187 573 q 143 679 145 636 l 333 687 q 343 654 336 667 q 364 634 351 641 q 397 624 378 626 q 447 621 417 621 q 491 623 473 621 q 519 630 509 625 q 536 641 530 634 q 542 660 542 649 l 542 679 q 535 701 542 692 q 516 715 529 710 q 485 722 504 720 q 441 725 467 725 l 299 725 l 299 833 l 441 833 q 480 835 463 833 q 506 841 496 837 q 521 852 516 845 q 527 870 527 859 l 527 878 q 521 896 527 889 q 505 908 516 904 q 477 913 494 912 q 433 914 460 914 q 391 913 407 914 q 367 908 376 912 q 354 897 359 904 q 348 879 350 890 l 158 886 q 181 953 160 927 q 236 996 201 980 q 320 1018 271 1011 q 433 1025 369 1025 q 550 1020 499 1025 q 638 1001 601 1014 q 696 964 676 987 q 716 907 716 941 l 716 896 q 707 857 716 875 q 683 827 698 840 q 647 806 667 814 q 605 794 628 798 l 605 771 q 648 761 626 769 q 689 740 670 754 q 721 707 710 727 q 732 662 732 687 l 732 652 q 712 582 732 610 q 654 538 692 554 q 566 516 616 523 q 448 510 515 510 m 0 308 l 0 472 l 402 447 l 402 333 l 0 308 m 500 333 l 500 447 l 884 472 l 884 308 l 500 333 m 452 -270 q 314 -260 370 -270 q 225 -231 258 -250 q 176 -185 191 -212 q 162 -121 162 -158 l 162 -104 q 170 -62 162 -81 q 197 -29 179 -43 q 239 -6 215 -15 q 295 5 264 3 l 295 28 q 249 37 270 30 q 211 56 227 44 q 186 81 194 67 q 177 115 177 96 l 177 140 q 194 199 177 174 q 247 239 212 223 q 334 263 283 255 q 452 270 385 270 q 571 263 520 270 q 657 240 622 255 q 710 199 692 225 q 727 140 727 174 l 727 115 q 718 81 727 96 q 694 56 710 67 q 657 37 678 44 q 610 28 635 30 l 610 5 q 666 -6 641 3 q 708 -29 691 -15 q 735 -62 726 -43 q 744 -104 744 -81 l 744 -121 q 729 -186 744 -158 q 681 -231 715 -213 q 591 -260 648 -250 q 452 -270 534 -270 m 452 54 q 487 56 472 54 q 514 63 503 58 q 532 74 525 67 q 538 93 538 82 l 538 120 q 532 139 538 131 q 514 150 525 146 q 487 157 503 155 q 452 159 472 159 q 417 157 433 159 q 391 150 402 155 q 374 139 380 146 q 367 120 367 131 l 367 93 q 374 74 367 82 q 391 63 380 67 q 417 56 402 58 q 452 54 433 54 m 452 -159 q 501 -156 481 -159 q 532 -148 520 -153 q 548 -134 543 -141 q 553 -115 553 -126 l 553 -95 q 548 -74 553 -83 q 532 -61 543 -66 q 501 -51 520 -54 q 452 -48 481 -48 q 403 -51 423 -48 q 374 -61 384 -54 q 357 -74 362 -66 q 352 -95 352 -83 l 352 -115 q 357 -134 352 -126 q 374 -148 362 -141 q 403 -156 384 -153 q 452 -159 423 -159 z "},"⅝":{"ha":884,"x_min":0,"x_max":884,"o":"m 448 500 q 311 509 367 500 q 217 540 254 519 q 164 594 182 561 q 143 677 145 628 l 333 684 q 343 652 336 664 q 364 630 350 639 q 398 617 376 621 q 452 614 419 614 q 500 617 482 614 q 527 626 518 620 q 539 645 535 634 q 542 673 542 655 l 542 688 q 537 710 542 702 q 518 725 532 718 q 475 732 504 730 q 399 735 447 735 l 165 735 l 165 1020 l 712 1020 l 712 907 l 356 907 l 356 845 l 480 845 q 592 836 544 845 q 670 809 639 827 q 717 763 701 790 q 732 698 732 736 l 732 655 q 717 595 732 622 q 667 545 701 567 q 578 512 633 524 q 448 500 524 500 m 0 308 l 0 472 l 402 447 l 402 333 l 0 308 m 500 333 l 500 447 l 884 472 l 884 308 l 500 333 m 452 -270 q 314 -260 370 -270 q 225 -231 258 -250 q 176 -185 191 -212 q 162 -121 162 -158 l 162 -104 q 170 -62 162 -81 q 197 -29 179 -43 q 239 -6 215 -15 q 295 5 264 3 l 295 28 q 249 38 270 30 q 211 56 227 45 q 186 82 194 67 q 177 116 177 97 l 177 141 q 194 199 177 176 q 247 240 212 223 q 334 263 283 255 q 452 270 385 270 q 571 263 520 270 q 657 241 622 256 q 710 200 692 225 q 727 141 727 176 l 727 116 q 718 82 727 97 q 694 56 710 67 q 657 38 678 45 q 610 28 635 30 l 610 5 q 666 -6 641 3 q 708 -29 691 -15 q 735 -62 726 -43 q 744 -104 744 -81 l 744 -121 q 729 -186 744 -158 q 681 -231 715 -213 q 591 -260 648 -250 q 452 -270 534 -270 m 452 54 q 487 56 472 54 q 514 63 503 58 q 532 74 525 67 q 538 93 538 82 l 538 120 q 532 139 538 131 q 514 150 525 146 q 487 157 503 155 q 452 159 472 159 q 417 157 433 159 q 391 150 402 155 q 374 139 380 146 q 367 120 367 131 l 367 93 q 374 74 367 82 q 391 63 380 67 q 417 56 402 58 q 452 54 433 54 m 452 -159 q 501 -156 481 -159 q 532 -148 520 -153 q 548 -134 543 -141 q 553 -115 553 -126 l 553 -95 q 548 -74 553 -83 q 532 -61 543 -66 q 501 -51 520 -54 q 452 -48 481 -48 q 403 -51 423 -48 q 374 -61 384 -54 q 357 -74 362 -66 q 352 -95 352 -83 l 352 -115 q 357 -134 352 -126 q 374 -148 362 -141 q 403 -156 384 -153 q 452 -159 423 -159 z "},"⅞":{"ha":884,"x_min":0,"x_max":884,"o":"m 343 520 q 383 621 360 573 q 434 713 405 669 q 499 800 463 758 q 578 886 534 842 l 187 886 l 187 1020 l 769 1020 l 769 886 q 691 798 726 842 q 628 708 655 754 q 578 617 598 664 q 542 520 557 569 l 343 520 m 0 308 l 0 472 l 402 447 l 402 333 l 0 308 m 500 333 l 500 447 l 884 472 l 884 308 l 500 333 m 452 -270 q 314 -260 370 -270 q 225 -231 258 -250 q 176 -185 191 -212 q 162 -121 162 -158 l 162 -104 q 170 -62 162 -81 q 197 -29 179 -43 q 239 -6 215 -15 q 295 5 264 3 l 295 28 q 249 37 270 30 q 211 56 227 44 q 186 81 194 67 q 177 115 177 96 l 177 140 q 194 199 177 174 q 247 239 212 223 q 334 263 283 255 q 452 270 385 270 q 571 263 520 270 q 657 240 622 255 q 710 199 692 225 q 727 140 727 174 l 727 115 q 718 81 727 96 q 694 56 710 67 q 657 37 678 44 q 610 28 635 30 l 610 5 q 666 -6 641 3 q 708 -29 691 -15 q 735 -62 726 -43 q 744 -104 744 -81 l 744 -121 q 729 -186 744 -158 q 681 -231 715 -213 q 591 -260 648 -250 q 452 -270 534 -270 m 452 54 q 487 56 472 54 q 514 63 503 58 q 532 74 525 67 q 538 93 538 82 l 538 120 q 532 139 538 131 q 514 150 525 146 q 487 157 503 155 q 452 159 472 159 q 417 157 433 159 q 391 150 402 155 q 374 139 380 146 q 367 120 367 131 l 367 93 q 374 74 367 82 q 391 63 380 67 q 417 56 402 58 q 452 54 433 54 m 452 -159 q 501 -156 481 -159 q 532 -148 520 -153 q 548 -134 543 -141 q 553 -115 553 -126 l 553 -95 q 548 -74 553 -83 q 532 -61 543 -66 q 501 -51 520 -54 q 452 -48 481 -48 q 403 -51 423 -48 q 374 -61 384 -54 q 357 -74 362 -66 q 352 -95 352 -83 l 352 -115 q 357 -134 352 -126 q 374 -148 362 -141 q 403 -156 384 -153 q 452 -159 423 -159 z "},"_":{"ha":884,"x_min":76,"x_max":808,"o":"m 76 -253 l 76 -38 l 808 -38 l 808 -253 l 76 -253 z "},"-":{"ha":884,"x_min":76,"x_max":808,"o":"m 76 341 l 76 556 l 808 556 l 808 341 l 76 341 z "},"­":{"ha":884,"x_min":76,"x_max":808,"o":"m 76 341 l 76 556 l 808 556 l 808 341 l 76 341 z "},"‐":{"ha":884,"x_min":76,"x_max":808,"o":"m 76 341 l 76 556 l 808 556 l 808 341 l 76 341 z "},"‑":{"ha":884,"x_min":76,"x_max":808,"o":"m 76 341 l 76 556 l 808 556 l 808 341 l 76 341 z "},"–":{"ha":884,"x_min":51,"x_max":833,"o":"m 51 341 l 51 556 l 833 556 l 833 341 l 51 341 z "},"—":{"ha":884,"x_min":0,"x_max":884,"o":"m 0 341 l 0 556 l 884 556 l 884 341 l 0 341 z "},"―":{"ha":884,"x_min":0,"x_max":884,"o":"m 0 341 l 0 556 l 884 556 l 884 341 l 0 341 z "},"(":{"ha":884,"x_min":189,"x_max":758,"o":"m 732 -265 q 306 -34 422 -218 q 189 379 189 150 q 306 787 189 597 q 732 1023 422 976 l 758 859 q 506 691 569 812 q 442 379 442 569 q 506 72 442 188 q 758 -91 569 -44 l 732 -265 z "},")":{"ha":884,"x_min":126,"x_max":694,"o":"m 152 -265 l 126 -91 q 378 75 314 -44 q 442 379 442 194 q 378 681 442 551 q 126 859 314 812 l 152 1023 q 578 787 462 976 q 694 379 694 597 q 578 -34 694 150 q 152 -265 462 -218 z "},"[":{"ha":884,"x_min":189,"x_max":758,"o":"m 189 -253 l 189 1010 l 758 1010 l 758 833 l 442 833 l 442 -76 l 758 -76 l 758 -253 l 189 -253 z "},"]":{"ha":884,"x_min":126,"x_max":694,"o":"m 126 -253 l 126 -76 l 442 -76 l 442 833 l 126 833 l 126 1010 l 694 1010 l 694 -253 l 126 -253 z "},"{":{"ha":884,"x_min":0,"x_max":758,"o":"m 758 -265 q 272 -223 418 -269 q 126 -56 126 -178 q 143 35 126 -1 q 206 111 160 71 q 272 177 254 154 q 290 218 290 199 q 228 302 290 278 q 0 331 165 327 l 0 457 q 228 485 165 461 q 290 567 290 509 q 273 605 290 586 q 210 655 256 624 q 145 720 163 688 q 126 803 126 753 q 272 979 126 931 q 758 1023 418 1027 l 758 846 q 461 831 543 850 q 379 763 379 813 q 396 715 379 736 q 461 663 414 693 q 525 609 508 634 q 543 543 543 583 q 463 434 543 467 q 174 395 384 400 l 174 389 q 463 342 384 376 q 543 239 543 308 q 526 169 543 194 q 462 112 509 143 q 397 57 415 82 q 379 -1 379 33 q 461 -75 379 -56 q 758 -91 543 -95 l 758 -265 z "},"}":{"ha":884,"x_min":126,"x_max":884,"o":"m 758 -56 q 612 -223 758 -178 q 126 -265 466 -269 l 126 -91 q 423 -75 341 -95 q 505 -1 505 -56 q 487 57 505 33 q 422 112 468 82 q 358 169 375 143 q 341 239 341 194 q 420 342 341 308 q 710 389 500 376 l 710 395 q 420 434 500 400 q 341 543 341 467 q 359 609 341 583 q 423 663 376 634 q 487 715 470 693 q 505 763 505 736 q 423 831 505 813 q 126 846 341 850 l 126 1023 q 612 979 466 1027 q 758 803 758 931 q 739 720 758 753 q 674 655 721 688 q 610 605 628 624 q 593 567 593 586 q 656 485 593 509 q 884 457 718 461 l 884 331 q 656 302 718 327 q 593 218 593 278 q 612 177 593 199 q 678 111 630 154 q 741 35 723 71 q 758 -56 758 -1 z "},"#":{"ha":884,"x_min":0,"x_max":884,"o":"m 511 379 l 524 631 l 372 631 l 360 379 l 511 379 m 492 0 l 504 215 l 352 215 l 341 0 l 152 0 l 163 215 l 0 215 l 0 379 l 170 379 l 183 631 l 0 631 l 0 795 l 192 795 l 202 1010 l 391 1010 l 381 795 l 533 795 l 543 1010 l 732 1010 l 722 795 l 884 795 l 884 631 l 713 631 l 701 379 l 884 379 l 884 215 l 693 215 l 682 0 l 492 0 z "},"%":{"ha":884,"x_min":25,"x_max":859,"o":"m 240 591 q 85 639 144 591 q 25 787 25 687 l 25 837 q 85 987 25 938 q 240 1035 145 1035 q 395 987 336 1035 q 453 837 453 938 l 453 787 q 394 639 453 687 q 240 591 335 591 m 240 712 q 277 727 264 712 q 290 778 290 742 l 290 846 q 277 898 290 881 q 240 914 264 914 q 202 898 216 914 q 188 846 188 881 l 188 778 q 202 727 188 742 q 240 712 216 712 m 39 244 l 756 878 l 855 765 l 128 128 l 39 244 m 645 -28 q 490 20 549 -28 q 431 168 431 68 l 431 218 q 491 368 431 319 q 645 417 551 417 q 800 368 741 417 q 859 218 859 319 l 859 168 q 799 20 859 68 q 645 -28 740 -28 m 645 87 q 682 102 669 87 q 696 153 696 117 l 696 221 q 682 273 696 256 q 645 289 669 289 q 607 273 621 289 q 593 221 593 256 l 593 153 q 607 102 593 117 q 645 87 621 87 z "},"‰":{"ha":884,"x_min":25,"x_max":867,"o":"m 227 591 q 81 639 136 591 q 25 787 25 687 l 25 837 q 81 987 25 938 q 227 1035 138 1035 q 373 987 318 1035 q 428 837 428 938 l 428 787 q 372 639 428 687 q 227 591 317 591 m 176 778 q 189 727 176 742 q 227 712 203 712 q 265 727 251 712 q 278 778 278 742 l 278 846 q 265 898 278 881 q 227 914 251 914 q 189 898 203 914 q 176 846 176 881 l 176 778 m 867 747 l 87 253 l 27 352 l 801 845 l 867 747 m 696 -28 q 628 -10 658 -28 q 581 44 598 8 q 528 -10 561 8 q 456 -28 496 -28 q 346 20 388 -28 q 304 168 304 68 l 304 206 q 350 355 304 307 q 468 404 396 404 q 535 386 506 404 q 582 333 564 369 q 629 386 600 369 q 696 404 659 404 q 814 355 769 404 q 859 206 859 307 l 859 168 q 813 20 859 68 q 696 -28 768 -28 m 436 159 q 446 109 436 124 q 475 93 457 93 q 503 109 492 93 q 513 159 513 124 l 513 215 q 503 266 513 250 q 475 283 492 283 q 446 266 457 283 q 436 215 436 250 l 436 159 m 650 159 q 661 109 650 124 q 689 93 672 93 q 717 109 707 93 q 727 159 727 124 l 727 215 q 717 266 727 250 q 689 283 707 283 q 661 266 672 283 q 650 215 650 250 l 650 159 z "},"'":{"ha":884,"x_min":290,"x_max":593,"o":"m 336 442 l 290 1010 l 593 1010 l 548 442 l 336 442 z "},"\"":{"ha":884,"x_min":114,"x_max":770,"o":"m 538 442 l 492 1010 l 770 1010 l 725 442 l 538 442 m 159 442 l 114 1010 l 391 1010 l 346 442 l 159 442 z "},"ʻ":{"ha":884,"x_min":201,"x_max":678,"o":"m 201 442 l 518 1010 l 678 1010 l 558 442 l 201 442 z "},"‘":{"ha":884,"x_min":201,"x_max":678,"o":"m 201 442 l 518 1010 l 678 1010 l 558 442 l 201 442 z "},"’":{"ha":884,"x_min":206,"x_max":683,"o":"m 206 442 l 326 1010 l 683 1010 l 366 442 l 206 442 z "},"“":{"ha":884,"x_min":49,"x_max":842,"o":"m 428 442 l 707 1010 l 842 1010 l 747 442 l 428 442 m 49 442 l 341 1010 l 476 1010 l 369 442 l 49 442 z "},"”":{"ha":884,"x_min":42,"x_max":835,"o":"m 408 442 l 515 1010 l 835 1010 l 543 442 l 408 442 m 42 442 l 136 1010 l 456 1010 l 177 442 l 42 442 z "},"‛":{"ha":884,"x_min":181,"x_max":658,"o":"m 181 442 m 497 442 l 181 1010 l 538 1010 l 658 442 l 497 442 z "},"‚":{"ha":884,"x_min":218,"x_max":670,"o":"m 218 0 m 218 -189 l 313 379 l 670 379 l 379 -189 l 218 -189 z "},"„":{"ha":884,"x_min":42,"x_max":835,"o":"m 42 0 m 408 -189 l 515 379 l 835 379 l 543 -189 l 408 -189 m 42 -189 l 136 379 l 456 379 l 177 -189 l 42 -189 z "},"‹":{"ha":884,"x_min":189,"x_max":694,"o":"m 694 25 l 189 316 l 189 568 l 694 859 l 694 638 l 354 442 l 694 246 l 694 25 z "},"›":{"ha":884,"x_min":189,"x_max":694,"o":"m 189 25 l 189 246 l 530 442 l 189 638 l 189 859 l 694 568 l 694 316 l 189 25 z "},"«":{"ha":884,"x_min":32,"x_max":852,"o":"m 852 25 l 473 316 l 473 568 l 852 859 l 852 638 l 597 442 l 852 246 l 852 25 m 410 25 l 32 316 l 32 568 l 410 859 l 410 638 l 155 442 l 410 246 l 410 25 z "},"»":{"ha":884,"x_min":32,"x_max":852,"o":"m 32 25 l 32 246 l 287 442 l 32 638 l 32 859 l 410 568 l 410 316 l 32 25 m 473 25 l 473 246 l 729 442 l 473 638 l 473 859 l 852 568 l 852 316 l 473 25 z "},"*":{"ha":884,"x_min":63,"x_max":821,"o":"m 718 330 l 482 558 l 543 253 l 338 253 l 400 557 l 165 330 l 63 506 l 374 633 l 63 759 l 165 936 l 400 707 l 338 1010 l 543 1010 l 482 707 l 718 936 l 821 759 l 509 633 l 821 506 l 718 330 z "},"†":{"ha":884,"x_min":38,"x_max":846,"o":"m 335 -253 l 335 581 l 253 581 l 215 303 l 38 303 l 76 758 l 335 758 l 322 1010 l 562 1010 l 549 758 l 808 758 l 846 303 l 669 303 l 631 581 l 549 581 l 549 -253 l 335 -253 z "},"‡":{"ha":884,"x_min":32,"x_max":852,"o":"m 322 -253 l 331 -38 l 69 -38 l 32 290 l 196 290 l 246 139 l 335 139 l 335 619 l 246 619 l 196 467 l 32 467 l 69 795 l 331 795 l 322 1010 l 562 1010 l 553 795 l 814 795 l 852 467 l 688 467 l 638 619 l 549 619 l 549 139 l 638 139 l 688 290 l 852 290 l 814 -38 l 553 -38 l 562 -253 l 322 -253 z "},".":{"ha":884,"x_min":253,"x_max":631,"o":"m 443 -13 q 305 25 357 -13 q 253 128 253 62 l 253 237 q 305 342 253 304 q 443 380 357 380 q 580 342 528 380 q 631 237 631 304 l 631 128 q 578 25 631 62 q 443 -13 525 -13 z "},",":{"ha":884,"x_min":218,"x_max":670,"o":"m 218 -189 l 313 379 l 670 379 l 379 -189 l 218 -189 z "},":":{"ha":884,"x_min":271,"x_max":612,"o":"m 443 487 q 319 520 366 487 q 271 612 271 553 l 271 687 q 319 781 271 747 q 443 814 366 814 q 566 781 519 814 q 612 687 612 747 l 612 612 q 564 520 612 553 q 443 487 516 487 m 443 -5 q 319 28 366 -5 q 271 120 271 61 l 271 194 q 319 289 271 255 q 443 322 366 322 q 566 289 519 322 q 612 194 612 255 l 612 120 q 564 28 612 61 q 443 -5 516 -5 z "},";":{"ha":884,"x_min":241,"x_max":648,"o":"m 443 487 q 319 520 366 487 q 271 612 271 553 l 271 687 q 319 781 271 747 q 443 814 366 814 q 566 781 519 814 q 612 687 612 747 l 612 612 q 564 520 612 553 q 443 487 516 487 m 241 -162 l 326 351 l 648 351 l 385 -162 l 241 -162 z "},"…":{"ha":884,"x_min":38,"x_max":846,"o":"m 744 -11 q 670 15 698 -11 q 641 95 641 40 l 641 271 q 670 354 641 327 q 744 380 698 380 q 818 354 790 380 q 846 271 846 327 l 846 95 q 817 15 846 40 q 744 -11 788 -11 m 442 -11 q 368 15 396 -11 q 340 95 340 40 l 340 271 q 368 354 340 327 q 442 380 396 380 q 516 354 489 380 q 544 271 544 327 l 544 95 q 515 15 544 40 q 442 -11 486 -11 m 141 -11 q 66 15 95 -11 q 38 95 38 40 l 38 271 q 66 354 38 327 q 141 380 95 380 q 215 354 187 380 q 242 271 242 327 l 242 95 q 213 15 242 40 q 141 -11 184 -11 z "},"!":{"ha":884,"x_min":258,"x_max":628,"o":"m 322 379 l 284 1010 l 587 1010 l 549 379 l 322 379 m 443 -13 q 305 13 352 -13 q 258 93 258 39 l 258 129 q 305 211 258 184 q 443 237 352 237 q 581 211 534 237 q 628 129 628 184 l 628 93 q 580 13 628 39 q 443 -13 533 -13 z "},"¡":{"ha":884,"x_min":258,"x_max":628,"o":"m 442 1023 q 580 997 533 1023 q 628 917 628 971 l 628 881 q 580 799 628 826 q 442 773 533 773 q 304 799 351 773 q 258 881 258 826 l 258 917 q 305 997 258 971 q 442 1023 352 1023 m 563 631 l 601 0 l 298 0 l 336 631 l 563 631 z "}}}
